DBRep_DrawableShape

CASCADE Topology V1, (c) Matra-Datavision
Locations 0
Curve2ds 122
1 0 0 1 0 
1 0 0 1 0 
1 660 0 0 -1 
1 0 0 0 1 
1 0 -450 1 0 
1 0 0 1 0 
1 0 0 0 -1 
1 0 0 0 1 
1 0 0 0 1 
1 0 0 1 0 
1 0 0 1 0 
1 0 450 1 0 
1 660 0 0 1 
1 0 0 1 0 
1 0 0 1 0 
1 3.0000000000000382 -2.9309887850104133e-14 0 1 
1 353.9224007721923 133.53217896296752 -0.90630778703664994 0.4226182617406995 
1 2.8421709430404007e-14 249.99999999999994 1 0 
1 0 0 1 0 
1 126.07759922780772 236.46782103703242 0.4226182617406995 0.90630778703664994 
1 0 0 1 0 
1 0 0 0 1 
1 352.65454598697016 130.81325560185755 -0.90630778703664994 0.4226182617406995 
1 0 0 1 0 
1 0 0 1 0 
1 352.65454598697016 130.81325560185755 0.4226182617406995 0.90630778703664994 
1 0 0 1 0 
1 3.00000000000004 3.4194869158454821e-14 0 1 
1 473.9224007721923 213.53217896296758 -0.90630778703664994 0.4226182617406995 
1 4.2632564145606011e-14 249.99999999999997 1 0 
1 0 0 1 0 
1 246.07759922780778 316.46782103703248 0.4226182617406995 0.90630778703664994 
1 0 0 1 0 
1 0 0 0 1 
1 472.65454598697022 210.81325560185758 -0.90630778703664994 0.4226182617406995 
1 0 0 1 0 
1 0 0 1 0 
1 472.65454598697022 210.81325560185758 0.4226182617406995 0.90630778703664994 
1 660 0 0 1 
1 0 450 1 0 
1 660 0 0 -1 
1 450 0 0 1 
1 0 0 0 1 
1 0 450 1 0 
1 0 -450 1 0 
1 0 450 1 0 
1 0 450 1 0 
1 3.0000000000000382 -2.9309887850104133e-14 0 1 
1 353.9224007721923 133.53217896296752 -0.90630778703664994 0.4226182617406995 
1 2.8421709430404007e-14 249.99999999999994 1 0 
1 0 -450 1 0 
1 126.07759922780772 236.46782103703242 0.4226182617406995 0.90630778703664994 
1 0 450 1 0 
1 0 0 0 1 
1 352.65454598697016 130.81325560185755 -0.90630778703664994 0.4226182617406995 
1 0 0 1 0 
1 0 -450 1 0 
1 352.65454598697016 130.81325560185755 0.4226182617406995 0.90630778703664994 
1 0 450 1 0 
1 3.00000000000004 3.4194869158454821e-14 0 1 
1 473.9224007721923 213.53217896296758 -0.90630778703664994 0.4226182617406995 
1 4.2632564145606011e-14 249.99999999999997 1 0 
1 0 -450 1 0 
1 246.07759922780778 316.46782103703248 0.4226182617406995 0.90630778703664994 
1 0 450 1 0 
1 0 0 0 1 
1 472.65454598697022 210.81325560185758 -0.90630778703664994 0.4226182617406995 
1 0 0 1 0 
1 0 -450 1 0 
1 472.65454598697022 210.81325560185758 0.4226182617406995 0.90630778703664994 
1 0 0 0 -1 
1 450 0 0 1 
1 0 0 0 1 
1 3.0000000000000382 0 0 -1 
1 250 0 0 1 
1 3.0000000000000582 0 0 -1 
7 0 0  8 79 12  3.7376601401406502 -5.9216305027726576e-16  3.7657635076386393 -0.033833926347476138  3.7919383611304296 -0.069269736159168538  3.8161761767153166 -0.10613844691752305  3.8384780396211227 -0.14427950355894836  3.8588419324366896 -0.18354226924799377  3.8772528372574033 -0.22378515109992597  3.8936727637986839 -0.26487295082440698  3.9205884857993376 -0.34324809977172122  3.9315682343037706 -0.38036850925190485  3.9409175099880969 -0.41794536806347082  3.9485656942092646 -0.45589131691716034  3.9544139919946133 -0.49411821409529466  3.9583270354801341 -0.53253452385233058  3.9601197053191792 -0.57104102599996442  3.9590246500638782 -0.64319560040295887  3.9566939697679118 -0.67684931037717888  3.9523718424479739 -0.71040803226651406  3.9458450476086 -0.74378636278515842  3.9368465668612771 -0.77688602799253204  3.9250439638649368 -0.80959047656665462  3.9100135418840165 -0.84175577617926023  3.8748082253682372 -0.90070685887012114  3.8555112187141276 -0.92766250260240213  3.8329996815446066 -0.95393894208154961  3.8068707926395291 -0.9793876130179342  3.7766694794463547 -1.0038278766737676  3.7418928414003858 -1.0270397150378585  3.7020574420816019 -1.0487495677764285  3.6371489603020963 -1.0773513706206674  3.616376238062339 -1.0857092586515553  3.5945637622269402 -1.0936940978084273  3.5716979244598406 -1.1012784889691147  3.5477762100930619 -1.1084339149554552  3.5228112203849218 -1.1151312468046863  3.4968344403688643 -1.121341533820349  3.4446458446185688 -1.1323766847488463  3.4185501753791367 -1.137263871982289  3.3916547162045099 -1.1416758776863938  3.3640187895754763 -1.1455908126927767  3.3357196422768181 -1.1489886017224593  3.3068521088901144 -1.1518518403245923  3.277526003982687 -1.1541665852999428  3.1922398161364178 -1.1592165035639013  3.1354277270161219 -1.1605472907057219  3.0782158055135369 -1.159850995681154  3.0215163806333294 -1.1571132913550173  2.9662650919071893 -1.1523843657359976  2.9131868720196508 -1.1457728784960182  2.8627727876725428 -1.1374159926481433  2.7737867254379296 -1.1187557243099389  2.7345221850750931 -1.108826222309176  2.6977145865193961 -1.0977758433682538  2.663440729606009 -1.0857124176327488  2.6316762103542715 -1.0727417003481605  2.6023395052652631 -1.0589616224024212  2.5753164001070141 -1.0444612408342813  2.5070091715217964 -1.0028241349832387  2.4702297712317431 -0.97436660829873745  2.4394451396783552 -0.94437638573162985  2.4138160819857148 -0.91319605681655958  2.3926371908291912 -0.88108393097354565  2.3753166886899635 -0.84824716766786423  2.3613721071546911 -0.81485246706527525  2.3339630713191792 -0.73031873648796541  2.3242249180000272 -0.67865619296622981  2.3198609339460745 -0.6265206010887141  2.3199884993464366 -0.5742391250360015  2.3240211412876306 -0.52207898925757945  2.3315484464319525 -0.47027399733372022  2.3422945860955116 -0.41904456448000266  2.369853311169789 -0.31817380695335484  2.3866659140796171 -0.26853249742100038  2.4063266542225676 -0.21990369397083676  2.4287417497562274 -0.17250439806289819  2.4538727810954839 -0.12656119423055578  2.4817135970935187 -0.082317693837444833  2.512269130535763 -0.040037276306399659  2.5455251670389356 -5.9216305027726556e-16 
 1.0136492082886321 9 1.5456350696139443 7 2.0111226982735873 7 2.4184243733507746 7 2.7748133390433134 7 2.9307335115337896 7 3.0769086732436111 7 3.3509871014495296 7 3.5908057261297075 7 4.010488319320018 7 4.6400122091054854 7 5.2695360988909536 9
2 139.23328766717313 225 -1 0 -0 -1 31.745849447534486
7 0 0  8 9 2  2.5455251566553283 -6.0000002122251317e-07  2.6945420308889445 8.6106979102910834  2.8435589051209718 15.059707174612413  2.9925757793425873 19.055660209312919  3.1415926535846666 20.409597164878505  3.2906095278121938 19.055660209334746  3.4396264020556373 15.059707174605137  3.5886432762906413 8.6106979102911314  3.7376601505242575 -5.9999996437909431e-07 
 5.6871178102451214 9 6.879252804114051 9
3 216.43130294533569 225 -1 0 -0 -1 113.56921682066015 47.996425000000002
1 249.99999999999997 0 0 1 
1 0 0 0 -1 
1 0 0 0 1 
1 0 0 0 -1 
7 0 0  8 72 11  3.6005476218194725 1.1843261005545315e-15  3.6306370963501391 -0.028586238830166068  3.6588366284681451 -0.059161823074578554  3.6850676824975026 -0.09154145806919016  3.7092744560816082 -0.12553936362173809  3.7314114819502922 -0.1609738353476782  3.7514310564360565 -0.19766894830341278  3.7692704947394993 -0.23545340291681163  3.7984618413728199 -0.30802173472596384  3.8103459336035472 -0.34259031507716564  3.8204307716227532 -0.37774794208064932  3.8286390016535279 -0.41338081479850075  3.8348698504526624 -0.44937360035167373  3.8389909760162366 -0.48560656955030468  3.8408284536663135 -0.52195103166229562  3.8395646002135488 -0.5900344509897123  3.8370519175532536 -0.62178121358579119  3.8324636853303673 -0.65340545724939147  3.8256158731783216 -0.68480073219416226  3.8162864421356062 -0.71584726784385566  3.8042107151745768 -0.74640729545251361  3.7890736636981548 -0.77631735245558786  3.7543065751616269 -0.83081132954891801  3.7354746624323525 -0.85559367187295265  3.7138051567962975 -0.87959612099439255  3.6890499969340453 -0.90266751200033468  3.6609578539519134 -0.92463365210824122  3.6292919293987325 -0.94529389139802333  3.5939006319167754 -0.96442119258054804  3.5205939419757581 -0.99696808369006706  3.483547070975419 -1.0108022743762604  3.4436759047021042 -1.0231239600170738  3.4010947868828225 -1.0337697558125001  3.3560546246644662 -1.0425794275233784  3.309001586640079 -1.0494118358435571  3.2605427896972747 -1.054169576770992  3.1683083884287555 -1.0591129125165923  3.1247045715781496 -1.059795686648954  3.0809907401817327 -1.0588231516367159  3.03765697189192 -1.0561939025528773  2.9951892354802112 -1.0519407949700508  2.9539993852258704 -1.0461279842902513  2.9144035246195164 -1.0388398159191072  2.8435697480192652 -1.0225887491214483  2.8119057582988587 -1.0139490710876446  2.7817835534950319 -1.0043180151981588  2.7532986691941232 -0.99376707833033606  2.7264943977400549 -0.98237001315632  2.701373314859624 -0.97019932729588798  2.6779108013458868 -0.95732413381267789  2.6178300671195363 -0.92015870703897651  2.5845427410997672 -0.8945494793601938  2.5559684033387384 -0.86733002905521062  2.5316979776580411 -0.83880931558451266  2.5113061462852784 -0.80924222982730498  2.4944061628980307 -0.77884306299745276  2.4806557882607163 -0.74779326249297251  2.4534181066189769 -0.66893402595779328  2.4434999377172062 -0.62050720992914421  2.4390118418787097 -0.5714980909967835  2.4392008446502587 -0.52230951512001411  2.4435454571739683 -0.4732773272430677  2.4516630368934784 -0.42470260272529003  2.4632844230529258 -0.37686973924390099  2.4931407657062352 -0.28324777024054482  2.5113757373326733 -0.23745866758820361  2.5327210361464552 -0.19297138274999215  2.5570535170195399 -0.150061514555901  2.5842911587445201 -0.10901135400803419  2.6143646101615143 -0.070115168845768544  2.6471896451750312 -0.033677096679084854  2.6826376853601133 5.9216305027726556e-16 
 0.86326426092776598 9 1.4328463590932612 7 1.9312306949880731 7 2.3673169888960324 7 2.7488924960654968 7 3.0827710648387758 7 3.3749148125153954 7 3.6305405917324456 7 4.0778857053622897 7 4.7489033758070551 7 5.4199210462518197 9
2 139.23328766717307 225 -1 0 -0 -1 27.978756277470286
7 0 0  8 9 2  2.682637672201809 -5.9999996437909431e-07  2.7973764175488052 5.2319232322440703  2.9121151628924054 9.0754729788441182  3.0268539082389907 11.425691408549028  3.1415926535883045 12.216614306133124  3.2563313989376184 11.425691408549028  3.3710701442787467 9.0754729788495752  3.4858088896307802 5.2319232322440934  3.6005476349777763 -5.9999993595738488e-07 
 5.8242303257916026 9 6.7421402885675699 9
3 222.86482370686429 225 -1 0 -0 -1 113.56921682066015 47.996425000000002
1 0 0 0 1 
1 3.0000000000000382 0 0 -1 
1 249.99999999999994 0 0 1 
1 2.9999999999999885 0 0 -1 
7 0 0  8 37 6  6.2831853071795862 0.84733089284221852  6.2535598561913739 0.84733089284221852  6.2239344318773009 0.84582462130174363  6.1945801071635609 0.84281209719506833  6.1657686508825336 0.83831538525976157  6.1377513812612037 0.83237887561429957  6.1107426634116919 0.82506554760044759  6.0849117125498022 0.81645154700997535  6.0174670058734634 0.78941865883454643  5.9785459477026492 0.76849151192061527  5.9443075372660346 0.74429279936794046  5.9150406400163078 0.71735553721964607  5.8906679860076778 0.68820943637547316  5.8709864009141697 0.65733494695030004  5.8557298372640183 0.62516969154866919  5.8362939220957823 0.56731477330959323  5.8302987827252117 0.54201655092568757  5.8265220850281754 0.51638226372651097  5.8248444024043451 0.49056620344251201  5.8251531492070789 0.46471122228810913  5.827345523903853 0.43895098672383859  5.8313276510909668 0.41341215307238544  5.845541895176626 0.35042075649838333  5.8579034724297774 0.31339603304423047  5.8738070328274805 0.27754948207403363  5.8930001098972227 0.24325992123819162  5.9152553016369414 0.21088814725168881  5.9403456349140606 0.18077957005348377  5.9680203206400586 0.15325884563893008  6.0279644981256046 0.1039753373346036  6.060233985171287 0.082212560801686152  6.0945139120942358 0.063619976612955043  6.1304810249632951 0.048455414774338124  6.1677636442384696 0.036931982790179063  6.205939707529943 0.029199825465902052  6.2445625074216968 0.025333733154945103  6.2831853071795862 0.025333733154945099 
 0 9 0.39269908169872386 7 1.0799224746714917 7 1.5953400194010676 7 2.3684663364954308 7 3.1415926535897931 9
2 121.49218163633427 225 -1 0 -0 -1 19.175769176445755
7 0 0  8 37 6  0 0.025333733154945099  0.039235860071506562 0.025333733154945096  0.078471720134871248 0.029323532974103728  0.11723923196041142 0.037303101278553186  0.1550700734808288 0.049192794718919686  0.19152259794998372 0.064832677715997988  0.22620967014080406 0.083996223356734845  0.25879562541584517 0.10641016047118958  0.31162284110102045 0.15078366370308283  0.3329136523529776 0.17145595201832028  0.35272937340814181 0.19365337994571963  0.37095627663339314 0.21723502442677045  0.38748921478138953 0.24205207615866708  0.40222607129929422 0.26794962152605789  0.41506167364581992 0.29476688431684339  0.44211454998120503 0.36368894566541943  0.45381375164026849 0.40673322041089932  0.46059843691136848 0.45090084568369093  0.46204590922889111 0.49558791542131075  0.45765497542720368 0.54013956597009383  0.44682653229006064 0.58383106632936688  0.42887156743986238 0.62580543258242194  0.39057558209446652 0.68473750115284127  0.37591634382612787 0.70370995350349586  0.3593068598733673 0.72188968737617998  0.34070620882999947 0.73914870373548069  0.32009717479618871 0.75535266610474139  0.2975025672518592 0.77036344886367703  0.27300178684948995 0.78404434848016802  0.22047792159102331 0.80849282339012352  0.19245481701167932 0.81926039532163486  0.16281539445736826 0.8284444711625838  0.13176967777667414 0.83592807580816952  0.099599679421942255 0.84161178891963573  0.066657264427462337 0.84542451936431462  0.033328632361738594 0.84733089284221863  0 0.84733089284221863 
 3.1415926535897931 9 3.926990816987241 7 4.5160394395353274 7 5.3996123733574573 7 5.8413988402685213 7 6.2831853071795862 9
2 121.49218163633427 225 -1 0 -0 -1 19.175769176445755
1 249.99999999999997 0 0 1 
1 0 0 0 -1 
1 0 0 0 1 
1 0 0 0 -1 
7 0 0  6 7 2  5.9424970160428163 102.27053260000014  5.9992783978989443 100.31769808297638  6.0560597797550724 98.740201407382301  6.1128411616112075 97.5493756150845  6.1696225434673284 96.752923764590378  6.2264039253234582 96.354697873435555  6.2831853071795862 96.354697873435555 
 2.8009043624530232 7 3.1415926535897931 7
3 33.568697054664476 225 -1 0 -0 -1 113.56921682066015 47.996425000000002
7 0 0  6 7 2  0 96.354697873435555  0.05678138185612832 96.354697873435555  0.11356276371225782 96.752923764589468  0.17034414556837874 97.549375615086319  0.22712552742451386 98.740201407382301  0.28390690928064172 100.31769808297632  0.34068829113677007 102.27053260000008 
 3.1415926535897931 7 3.482280944726563 7
3 33.568697054664476 225 -1 0 -0 -1 113.56921682066015 47.996425000000002
7 0 0  8 37 6  0.34068827369093024 -1.1843261005545309e-15  0.37296059343836596 0.023124947605399966  0.40350897896869342 0.048655764165414755  0.43217671129324309 0.076405836115637005  0.45883995908008046 0.10617498319497543  0.48339937736398397 0.13775790533712673  0.5057670246292375 0.17094906592004783  0.52585151885323655 0.20554393823755404  0.55681397878316008 0.26818099492188202  0.56873829314770297 0.29569917054996148  0.57927147962928127 0.3238041899957313  0.5883622483710208 0.35240870103626754  0.5959503791006574 0.38142438225014241  0.60196315933457401 0.41076077364728308  0.60631171790764637 0.44032343384994382  0.61275055771077458 0.51454340878706839  0.61262459032803918 0.55935740301379155  0.60814208733336272 0.60411246691342058  0.59883643899547678 0.64843564468583281  0.58411043929049811 0.69189772633671964  0.56323040593690621 0.73399443071104997  0.53529542001217312 0.77408272783823984  0.4817701818627052 0.83003451126105177  0.46199130601905836 0.84798833499667126  0.44018860169376239 0.86514808854053626  0.41628819737479716 0.88140804787781235  0.39024080730882815 0.89665446669141602  0.36203801860136764 0.9107669153598863  0.3317384201252862 0.92362339140196781  0.26722149408790502 0.9465936851776392  0.23300417030131371 0.9567075043580644  0.19696588257130543 0.96533461287617683  0.1593241146923674 0.97236633810916828  0.12038711714450301 0.97770838020778683  0.080556082841638954 0.98129238368210281  0.040278042245362154 0.98308439619243615  0 0.98308439619243615 
 3.8395752566712287 9 4.4504777692983168 7 4.9086546537686333 7 5.5959199804741102 7 5.9395526438268487 7 6.2831853071795862 9
2 121.49218163633429 225 -1 0 -0 -1 24.954087614276052
7 0 0  8 37 6  6.2831853071795862 0.98308439619243615  6.247382602961487 0.98308439619243615  6.2115798984874502 0.98166848609048429  6.1760911506252327 0.97883667361747939  6.141230286227163 0.97461018006561062  6.1072858929866456 0.96903160709462099  6.0744949364833403 0.9621609432342666  6.0430384626147102 0.95406940891130421  5.9868011409804538 0.93675439370357638  5.9616773437730757 0.92779883695759713  5.9377601199900045 0.9180201233804226  5.9151050286673765 0.90747414008598071  5.8937391770800378 0.89621799117998435  5.8736669382725202 0.884308067728655  5.8548763993599531 0.87179880779191699  5.8066618342877563 0.8358930153068771  5.7798323544776302 0.81136746402702509  5.7567286171627075 0.78544398931891379  5.7371130255872842 0.75837691887517167  5.7207209145915066 0.73038786672301015  5.7072983316036208 0.70166895142180841  5.696613196602204 0.67239001281384336  5.6762281894165518 0.59817011454167057  5.6696922793019198 0.55271791604656073  5.6681550117544006 0.50685557038104889  5.6710521095308408 0.46100000416299736  5.6779733986689038 0.41551309379087797  5.6886077553822574 0.37072861930494128  5.7027218969342304 0.32696655203507458  5.7375316492042163 0.24211627176222078  5.7582272557057816 0.2010280501727035  5.782024934292755 0.16159126146774216  5.8087806114330292 0.12411470743632691  5.8383673709748329 0.088909385096495264  5.8706452447220183 0.056288232162230264  5.9054342912787101 0.026557557015576719  5.9424970334886558 -1.1843261005545305e-15 
 0 9 0.30545125631354381 7 0.57272110558789424 7 1.040443341818011 7 1.7420266961631845 7 2.4436100505083576 9
2 121.49218163633429 225 -1 0 -0 -1 24.954087614276052
1 6.2831853071795862 -6.2831853071795862 0 1 
1 0 -6.2831853071795862 0 1 
1 0 -1.5707963267948966 1 0 
1 0 0 1 0 
2 0 0 1 0 -0 1 47.996425000000002
1 0 0 1 0 
1 0 102.270532 1 0 
2 0 0 1 0 -0 1 47.996425000000002
1 0 0 1 0 
1 6.2831853071795862 -0 0 1 
1 0 -0 0 1 
1 6.2831853071795862 -6.2831853071795862 0 1 
1 0 -6.2831853071795862 0 1 
1 0 1.5707963267948966 1 0 
Curves 51
1 0 0 0 0 0 1 
1 0 0 660 -0 1 0 
1 0 450 0 0 0 1 
1 0 0 0 -0 1 0 
1 0 0 0 1 0 -0 
1 450 0 0 0 0 1 
1 0 0 660 1 0 -0 
1 133.53217896296752 0 353.9224007721923 0.4226182617406995 0 -0.90630778703664994 
1 236.46782103703242 0 126.07759922780772 0.90630778703664994 0 0.4226182617406995 
1 130.81325560185755 0 352.65454598697016 0.4226182617406995 0 -0.90630778703664994 
1 130.81325560185755 0 352.65454598697016 0.90630778703664994 0 0.4226182617406995 
1 213.53217896296758 0 473.9224007721923 0.4226182617406995 0 -0.90630778703664994 
1 316.46782103703248 0 246.07759922780778 0.90630778703664994 0 0.4226182617406995 
1 210.81325560185758 0 472.65454598697022 0.4226182617406995 0 -0.90630778703664994 
1 210.81325560185758 0 472.65454598697022 0.90630778703664994 0 0.4226182617406995 
1 0 450 660 1 0 -0 
1 450 0 660 -0 1 0 
1 0 450 0 1 0 -0 
1 450 450 0 0 0 1 
1 133.53217896296752 450 353.9224007721923 0.4226182617406995 0 -0.90630778703664994 
1 236.46782103703242 450 126.07759922780772 0.90630778703664994 0 0.4226182617406995 
1 130.81325560185755 450 352.65454598697016 0.4226182617406995 0 -0.90630778703664994 
1 130.81325560185755 450 352.65454598697016 0.90630778703664994 0 0.4226182617406995 
1 213.53217896296758 450 473.9224007721923 0.4226182617406995 0 -0.90630778703664994 
1 316.46782103703248 450 246.07759922780778 0.90630778703664994 0 0.4226182617406995 
1 210.81325560185758 450 472.65454598697022 0.4226182617406995 0 -0.90630778703664994 
1 210.81325560185758 450 472.65454598697022 0.90630778703664994 0 0.4226182617406995 
1 450 0 0 -0 1 0 
1 133.53217896296752 0 353.9224007721923 0 1 0 
1 239.18674439814242 0 127.34545401302984 0 1 0 
2 192.37470897331099 225 227.73418794471934 0.90630778703664994 0 0.4226182617406995 -0.4226182617406995 0 0.90630778703664994 0 -1 0 31.745849447534486
3 225 225 157.76902555434634 0.90630778703664994 0 0.4226182617406995 -0.4226182617406995 0 0.90630778703664994 0 -1 0 113.56921682066015 47.996425000000002
1 236.46782103703242 0 126.07759922780772 0 1 0 
1 130.81325560185755 0 352.65454598697016 0 1 0 
2 189.65578561220104 225 226.46633315949725 0.90630778703664994 0 0.4226182617406995 -0.4226182617406995 0 0.90630778703664994 0 -1 0 27.978756277470286
3 225 225 150.67042080488886 0.90630778703664994 0 0.4226182617406995 -0.4226182617406995 0 0.90630778703664994 0 -1 0 113.56921682066015 47.996425000000002
1 213.53217896296758 0 473.9224007721923 0 1 0 
1 319.18674439814242 0 247.34545401302987 0 1 0 
2 264.87699358120051 225 363.8130904911115 0.90630778703664994 0 0.4226182617406995 -0.4226182617406995 0 0.90630778703664994 0 -1 0 19.175769176445755
2 264.87699358120051 225 363.8130904911115 0.90630778703664994 0 0.4226182617406995 -0.4226182617406995 0 0.90630778703664994 0 -1 0 19.175769176445755
1 316.46782103703248 0 246.07759922780778 0 1 0 
1 210.81325560185758 0 472.65454598697022 0 1 0 
3 225 225 442.23097444565354 0.90630778703664994 0 0.4226182617406995 -0.4226182617406995 0 0.90630778703664994 0 -1 0 113.56921682066015 47.996425000000002
3 225 225 442.23097444565354 0.90630778703664994 0 0.4226182617406995 -0.4226182617406995 0 0.90630778703664994 0 -1 0 113.56921682066015 47.996425000000002
2 262.15807022009051 225 362.54523570588935 0.90630778703664994 0 0.4226182617406995 -0.4226182617406995 0 0.90630778703664994 0 -1 0 24.954087614276052
2 262.15807022009051 225 362.54523570588935 0.90630778703664994 0 0.4226182617406995 -0.4226182617406995 0 0.90630778703664994 0 -1 0 24.954087614276052
2 225 225 242.94761099999999 -2.4492935982947064e-16 -1 0 1 -2.4492935982947064e-16 0 0 0 1 47.996425000000002
2 225 225 242.94761099999999 0 0 1 1 0 -0 -0 1 0 47.996425000000002
2 225 225 345.218143 0 0 1 1 0 -0 -0 1 0 47.996425000000002
1 272.99642499999999 225 242.94761099999999 0 0 1 
2 225 225 345.218143 -2.4492935982947064e-16 -1 0 1 -2.4492935982947064e-16 0 0 0 1 47.996425000000002
Polygon3D 0
PolygonOnTriangulations 0
Surfaces 23
1 0 0 0 1 0 -0 0 0 1 0 -1 0 
1 0 0 0 -0 1 0 0 0 1 1 0 -0 
1 0 0 660 0 0 1 1 0 -0 -0 1 0 
1 0 450 0 -0 1 0 0 0 1 1 0 -0 
1 0 0 0 0 0 1 1 0 -0 -0 1 0 
1 450 0 0 1 0 -0 0 0 1 0 -1 0 
1 133.53217896296752 0 353.9224007721923 0.90630778703664994 0 0.4226182617406995 0.4226182617406995 0 -0.90630778703664994 0 1 0 
1 130.81325560185755 0 352.65454598697016 0 1 0 0.90630778703664994 0 0.4226182617406995 0.4226182617406995 0 -0.90630778703664994 
1 236.46782103703242 0 126.07759922780772 0.4226182617406995 0 -0.90630778703664994 0.90630778703664994 0 0.4226182617406995 0 -1 0 
1 130.81325560185755 0 352.65454598697016 0.90630778703664994 0 0.4226182617406995 0.4226182617406995 0 -0.90630778703664994 0 1 0 
1 130.81325560185755 0 352.65454598697016 0.4226182617406995 0 -0.90630778703664994 0.90630778703664994 0 0.4226182617406995 0 -1 0 
1 213.53217896296758 0 473.9224007721923 0.90630778703664994 0 0.4226182617406995 0.4226182617406995 0 -0.90630778703664994 0 1 0 
1 210.81325560185758 0 472.65454598697022 0 1 0 0.90630778703664994 0 0.4226182617406995 0.4226182617406995 0 -0.90630778703664994 
1 316.46782103703248 0 246.07759922780778 0.4226182617406995 0 -0.90630778703664994 0.90630778703664994 0 0.4226182617406995 0 -1 0 
1 210.81325560185758 0 472.65454598697022 0.90630778703664994 0 0.4226182617406995 0.4226182617406995 0 -0.90630778703664994 0 1 0 
1 210.81325560185758 0 472.65454598697022 0.4226182617406995 0 -0.90630778703664994 0.90630778703664994 0 0.4226182617406995 0 -1 0 
1 130.81325560185755 450 352.65454598697016 0 1 0 0.90630778703664994 0 0.4226182617406995 0.4226182617406995 0 -0.90630778703664994 
1 210.81325560185758 450 472.65454598697022 0 1 0 0.90630778703664994 0 0.4226182617406995 0.4226182617406995 0 -0.90630778703664994 
4 225 225 242.94761099999999 0 0 1 1 0 -0 -0 1 0 47.996425000000002
2 225 225 242.94761099999999 0 0 1 1 0 -0 -0 1 0 47.996425000000002
4 225 225 345.218143 0 0 1 1 0 -0 -0 1 0 47.996425000000002
1 225 225 242.94761099999999 0 0 1 1 0 -0 -0 1 0 
1 225 225 345.218143 0 0 1 1 0 -0 -0 1 0 
Triangulations 0

TShapes 190
Ve
1e-07
0 0 660
0 0

0101101
*
Ve
1e-07
0 0 0
0 0

0101101
*
Ed
 1e-07 1 1 0
1  1 0 0 660
2  1 1 0 0 660
2  2 2 0 0 660
0

0101000
-190 0 +189 0 *
Ve
1e-07
0 450 660
0 0

0101101
*
Ed
 1e-07 1 1 0
1  2 0 0 450
2  3 1 0 0 450
2  4 3 0 0 450
0

0101000
-187 0 +190 0 *
Ve
1e-07
0 450 0
0 0

0101101
*
Ed
 1e-07 1 1 0
1  3 0 0 660
2  5 1 0 0 660
2  6 4 0 0 660
0

0101000
-187 0 +185 0 *
Ed
 1e-07 1 1 0
1  4 0 0 450
2  7 1 0 0 450
2  8 5 0 0 450
0

0101000
-185 0 +189 0 *
Wi

0101100
-188 0 -186 0 +184 0 +183 0 *
Fa
0  1e-07 1 0

0111000
+182 0 *
Ve
1e-07
450 0 0
0 0

0101101
*
Ed
 1e-07 1 1 0
1  5 0 0 450
2  9 2 0 0 450
2  10 5 0 0 450
0

0101000
-180 0 +189 0 *
Ve
1e-07
450 0 660
0 0

0101101
*
Ed
 1e-07 1 1 0
1  6 0 0 660
2  11 6 0 0 660
2  12 2 0 0 660
0

0101000
-178 0 +180 0 *
Ed
 1e-07 1 1 0
1  7 0 0 450
2  13 2 0 0 450
2  14 3 0 0 450
0

0101000
-178 0 +190 0 *
Wi

0101100
-179 0 -177 0 +188 0 +176 0 *
Ve
1e-07
239.186744398142 0 127.34545401303
0 0

0101101
*
Ve
1e-07
133.532178962968 0 353.922400772192
0 0

0101101
*
Ed
 1e-07 1 1 0
1  8 0 0 250
2  15 7 0 0 250
2  16 8 0 0 250
2  17 2 0 0 250
0

0101000
-174 0 +173 0 *
Ve
1e-07
236.467821037032 0 126.077599227808
0 0

0101101
*
Ed
 1e-07 1 1 0
1  9 0 0 3
2  18 8 0 0 3
2  19 9 0 0 3
2  20 2 0 0 3
0

0101000
-174 0 +171 0 *
Ve
1e-07
130.813255601858 0 352.65454598697
0 0

0101101
*
Ed
 1e-07 1 1 0
1  10 0 0 250
2  21 10 0 0 250
2  22 8 0 0 250
2  23 2 0 0 250
0

0101000
-171 0 +169 0 *
Ed
 1e-07 1 1 0
1  11 0 0 3
2  24 8 0 0 3
2  25 11 0 0 3
2  26 2 0 0 3
0

0101000
-173 0 +169 0 *
Wi

0101100
-172 0 +170 0 +168 0 -167 0 *
Ve
1e-07
319.186744398142 0 247.34545401303
0 0

0101101
*
Ve
1e-07
213.532178962968 0 473.922400772192
0 0

0101101
*
Ed
 1e-07 1 1 0
1  12 0 0 250
2  27 12 0 0 250
2  28 13 0 0 250
2  29 2 0 0 250
0

0101000
-165 0 +164 0 *
Ve
1e-07
316.467821037032 0 246.077599227808
0 0

0101101
*
Ed
 1e-07 1 1 0
1  13 0 0 3
2  30 13 0 0 3
2  31 14 0 0 3
2  32 2 0 0 3
0

0101000
-165 0 +162 0 *
Ve
1e-07
210.813255601858 0 472.65454598697
0 0

0101101
*
Ed
 1e-07 1 1 0
1  14 0 0 250
2  33 15 0 0 250
2  34 13 0 0 250
2  35 2 0 0 250
0

0101000
-162 0 +160 0 *
Ed
 1e-07 1 1 0
1  15 0 0 3
2  36 13 0 0 3
2  37 16 0 0 3
2  38 2 0 0 3
0

0101000
-164 0 +160 0 *
Wi

0101100
-163 0 +161 0 +159 0 -158 0 *
Fa
0  1e-07 2 0

0101000
+175 0 +166 0 +157 0 *
Ve
1e-07
450 450 660
0 0

0101101
*
Ed
 1e-07 1 1 0
1  16 0 0 450
2  39 4 0 0 450
2  40 3 0 0 450
0

0101000
-155 0 +187 0 *
Ed
 1e-07 1 1 0
1  17 0 0 450
2  41 6 0 0 450
2  42 3 0 0 450
0

0101000
-155 0 +178 0 *
Wi

0101100
-186 0 -154 0 +153 0 +176 0 *
Fa
0  1e-07 3 0

0111000
+152 0 *
Ve
1e-07
450 450 0
0 0

0101101
*
Ed
 1e-07 1 1 0
1  18 0 0 450
2  43 4 0 0 450
2  44 5 0 0 450
0

0101000
-150 0 +185 0 *
Ed
 1e-07 1 1 0
1  19 0 0 660
2  45 6 0 0 660
2  46 4 0 0 660
0

0101000
-155 0 +150 0 *
Wi

0101100
-149 0 -148 0 +184 0 +154 0 *
Ve
1e-07
239.186744398142 450 127.34545401303
0 0

0101101
*
Ve
1e-07
133.532178962968 450 353.922400772192
0 0

0101101
*
Ed
 1e-07 1 1 0
1  20 0 0 250
2  47 7 0 0 250
2  48 17 0 0 250
2  49 4 0 0 250
0

0101000
-146 0 +145 0 *
Ve
1e-07
236.467821037032 450 126.077599227808
0 0

0101101
*
Ed
 1e-07 1 1 0
1  21 0 0 3
2  50 17 0 0 3
2  51 9 0 0 3
2  52 4 0 0 3
0

0101000
-146 0 +143 0 *
Ve
1e-07
130.813255601858 450 352.65454598697
0 0

0101101
*
Ed
 1e-07 1 1 0
1  22 0 0 250
2  53 10 0 0 250
2  54 17 0 0 250
2  55 4 0 0 250
0

0101000
-143 0 +141 0 *
Ed
 1e-07 1 1 0
1  23 0 0 3
2  56 17 0 0 3
2  57 11 0 0 3
2  58 4 0 0 3
0

0101000
-145 0 +141 0 *
Wi

0101100
-144 0 +142 0 +140 0 -139 0 *
Ve
1e-07
319.186744398142 450 247.34545401303
0 0

0101101
*
Ve
1e-07
213.532178962968 450 473.922400772192
0 0

0101101
*
Ed
 1e-07 1 1 0
1  24 0 0 250
2  59 12 0 0 250
2  60 18 0 0 250
2  61 4 0 0 250
0

0101000
-137 0 +136 0 *
Ve
1e-07
316.467821037032 450 246.077599227808
0 0

0101101
*
Ed
 1e-07 1 1 0
1  25 0 0 3
2  62 18 0 0 3
2  63 14 0 0 3
2  64 4 0 0 3
0

0101000
-137 0 +134 0 *
Ve
1e-07
210.813255601858 450 472.65454598697
0 0

0101101
*
Ed
 1e-07 1 1 0
1  26 0 0 250
2  65 15 0 0 250
2  66 18 0 0 250
2  67 4 0 0 250
0

0101000
-134 0 +132 0 *
Ed
 1e-07 1 1 0
1  27 0 0 3
2  68 18 0 0 3
2  69 16 0 0 3
2  70 4 0 0 3
0

0101000
-136 0 +132 0 *
Wi

0101100
-135 0 +133 0 +131 0 -130 0 *
Fa
0  1e-07 4 0

0101000
+147 0 +138 0 +129 0 *
Ed
 1e-07 1 1 0
1  28 0 0 450
2  71 6 0 0 450
2  72 5 0 0 450
0

0101000
-150 0 +180 0 *
Wi

0101100
-183 0 -149 0 +127 0 +179 0 *
Fa
0  1e-07 5 0

0111000
+126 0 *
Wi

0101100
-177 0 -153 0 +148 0 +127 0 *
Fa
0  1e-07 6 0

0111000
+124 0 *
Ed
 1e-07 1 1 0
1  29 0 0 450
2  73 7 0 0 450
2  74 11 0 0 450
0

0101000
-145 0 +173 0 *
Ed
 1e-07 1 1 0
1  30 0 0 450
2  75 7 0 0 450
2  76 9 0 0 450
0

0101000
-146 0 +174 0 *
Wi

0101100
-122 0 -144 0 +172 0 +121 0 *
Ve
1.209519533577e-07
185.280573295882 198.055168304908 242.947611
0 0

0101101
*
Ve
1.209519533577e-07
185.280573295882 251.944831695092 242.947611
0 0

0101101
*
Ed
 1.20951913163333e-07 1 1 0
1  31 0 1.01364920828863 5.26953609889095
2  77 19 0 1.01364920828863 5.26953609889095
2  78 7 0 1.01364920828863 5.26953609889095
0

0101000
+119 0 -118 0 *
Ed
 1e-07 1 1 0
1  32 0 5.68711782062873 6.87925279373044
2  79 20 0 5.68711782062873 6.87925279373044
2  80 7 0 5.68711782062873 6.87925279373044
0

0101000
+118 0 -119 0 *
Wi

0101100
-117 0 -116 0 *
Fa
0  1e-07 7 0

0101000
+120 0 +115 0 *
Ed
 1e-07 1 1 0
1  33 0 0 450
2  81 10 0 0 450
2  82 9 0 0 450
0

0101000
-143 0 +171 0 *
Wi

0101100
-170 0 -121 0 +142 0 +113 0 *
Fa
0  1e-07 9 0

0111000
+112 0 *
Ed
 1e-07 1 1 0
1  34 0 0 450
2  83 10 0 0 450
2  84 11 0 0 450
0

0101000
-141 0 +169 0 *
Wi

0101100
-110 0 -140 0 +168 0 +113 0 *
Ve
1.26691308892525e-07
181.970439538994 203.737033619147 242.947611
0 0

0101101
*
Ve
1.26691288501684e-07
181.970439538994 246.262966380853 242.947611
0 0

0101101
*
Ed
 1.2669123927384e-07 1 1 0
1  35 0 0.863264260927766 5.41992104625182
2  85 19 0 0.863264260927766 5.41992104625182
2  86 10 0 0.863264260927766 5.41992104625182
0

0101000
+108 0 -107 0 *
Ed
 1e-07 1 1 0
1  36 0 5.82423033894991 6.74214027540927
2  87 20 0 5.82423033894991 6.74214027540927
2  88 10 0 5.82423033894991 6.74214027540927
0

0101000
+107 0 -108 0 *
Wi

0101100
-106 0 -105 0 *
Fa
0  1e-07 10 0

0101000
+109 0 +104 0 *
Wi

0101100
-167 0 -122 0 +139 0 +110 0 *
Fa
0  1e-07 11 0

0111000
+102 0 *
Ed
 1e-07 1 1 0
1  37 0 0 450
2  89 12 0 0 450
2  90 16 0 0 450
0

0101000
-136 0 +164 0 *
Ed
 1e-07 1 1 0
1  38 0 0 450
2  91 12 0 0 450
2  92 14 0 0 450
0

0101000
-137 0 +165 0 *
Wi

0101100
-100 0 -135 0 +163 0 +99 0 *
Ve
1.1586121370689e-07
256.77296334431 225 381.192239418142
0 0

0101101
*
Ve
1.1586121370689e-07
272.981023818091 225 346.433941564081
0 0

0101101
*
Ed
 1.15861156863471e-07 1 1 0
1  39 0 0 3.14159265358979
2  93 21 0 0 3.14159265358979
2  94 12 0 0 3.14159265358979
0

0101000
+97 0 -96 0 *
Ed
 1e-07 1 1 0
1  40 0 3.14159265358979 6.28318530717959
2  95 21 0 3.14159265358979 6.28318530717959
2  96 12 0 3.14159265358979 6.28318530717959
0

0101000
+96 0 -97 0 *
Wi

0101100
-95 0 -94 0 *
Fa
0  1e-07 12 0

0101000
+98 0 +93 0 *
Ed
 1e-07 1 1 0
1  41 0 0 450
2  97 15 0 0 450
2  98 14 0 0 450
0

0101000
-134 0 +162 0 *
Wi

0101100
-161 0 -99 0 +133 0 +91 0 *
Fa
0  1e-07 14 0

0111000
+90 0 *
Ed
 1e-07 1 1 0
1  42 0 0 450
2  99 15 0 0 450
2  100 16 0 0 450
0

0101000
-132 0 +160 0 *
Wi

0101100
-88 0 -131 0 +159 0 +91 0 *
Ve
1.26825931182665e-07
270.237826242408 208.962671991809 345.218143
0 0

0101101
*
Ve
1.00000056843419e-07
272.996425 225 339.302308873436
0 0

0101101
*
Ed
 1e-07 1 1 0
1  43 0 2.80090437989886 3.14159265358979
2  101 20 0 2.80090437989886 3.14159265358979
2  102 15 0 2.80090437989886 3.14159265358979
0

0101000
+86 0 -85 0 *
Ve
1.00000063552874e-07
270.237826242408 241.037328008191 345.218143
0 0

0101101
*
Ed
 1e-07 1 1 0
1  44 0 3.14159265358979 3.48228092728072
2  103 20 0 3.14159265358979 3.48228092728072
2  104 15 0 3.14159265358979 3.48228092728072
0

0101000
+85 0 -83 0 *
Ve
1.2682590763735e-07
251.61201708922 225 385.161319629103
0 0

0101101
*
Ed
 1e-07 1 1 0
1  45 0 3.83957525667123 6.28318530717959
2  105 21 0 3.83957525667123 6.28318530717959
2  106 15 0 3.83957525667123 6.28318530717959
0

0101000
+83 0 -81 0 *
Ed
 1.26825850793931e-07 1 1 0
1  46 0 0 2.44361005050836
2  107 21 0 0 2.44361005050836
2  108 15 0 0 2.44361005050836
0

0101000
+81 0 -86 0 *
Wi

0101100
-84 0 -82 0 -80 0 -79 0 *
Fa
0  1e-07 15 0

0101000
+87 0 +78 0 *
Wi

0101100
-158 0 -100 0 +130 0 +88 0 *
Fa
0  1e-07 16 0

0111000
+76 0 *
Ve
1e-07
225 225 194.951186
0 0

0101101
*
Ve
1.16800774208059e-06
272.996425 225 242.947611
0 0

0101101
*
Ed
 1e-07 1 1 0
1  47 0 4.71238898038469 6.28318530717959
3  109 110CN 19 0 4.71238898038469 6.28318530717959
0

0101000
+74 0 -73 0 *
Ed
 1e-07 1 1 1
2  111 19 0 0 6.28318530717959
0

0101000
+74 0 -74 0 *
Ed
 1.00000028421709e-07 1 1 0
1  48 0 0 2.54552516703894
2  112 20 0 0 2.54552516703894
2  113 22 0 0 2.54552516703894
2  114 19 0 0 2.54552516703894
0

0101000
+73 0 -118 0 *
Ed
 1.00000028421709e-07 1 1 0
1  48 0 3.73766014014065 6.28318530717959
2  112 20 0 3.73766014014065 6.28318530717959
2  113 22 0 3.73766014014065 6.28318530717959
2  114 19 0 3.73766014014065 6.28318530717959
0

0101000
+119 0 -73 0 *
Wi

0101100
+72 0 +71 0 -72 0 -70 0 +117 0 -69 0 *
Fa
0  1e-07 19 0

0101000
+68 0 *
Ed
 1.00000028421709e-07 1 1 0
1  49 0 0.34068827369093 5.94249703348866
2  115 20 0 0.34068827369093 5.94249703348866
2  116 23 0 0.34068827369093 5.94249703348866
2  117 21 0 0.34068827369093 5.94249703348866
0

0101000
+83 0 -86 0 *
Ed
 1e-07 1 1 0
1  50 0 0 96.3546978734356
3  118 119CN 20 0 0 96.3546978734356
0

0101000
+73 0 -85 0 *
Wi

0101100
-66 0 -84 0 +65 0 +69 0 +116 0 +70 0 -65 0 -82 0 *
Fa
0  1e-07 20 0

0101000
+64 0 *
Ed
 1.00000028421709e-07 1 1 0
1  48 0 2.68263768536011 3.60054762181947
2  112 20 0 2.68263768536011 3.60054762181947
2  113 22 0 2.68263768536011 3.60054762181947
2  114 19 0 2.68263768536011 3.60054762181947
0

0101000
+107 0 -108 0 *
Wi

0101100
-62 0 -106 0 *
Fa
0  1e-07 19 0

0101000
+61 0 *
Wi

0101100
-105 0 +62 0 *
Fa
0  1e-07 20 0

0101000
+59 0 *
Ed
 1e-07 1 1 0
1  51 0 6.30851904033453 7.1305162000218
3  120 121CN 21 0 6.30851904033453 7.1305162000218
0

0101000
+96 0 -97 0 *
Wi

0101100
+95 0 +57 0 *
Fa
0  1e-07 21 0

0101000
+56 0 *
Wi

0101100
-57 0 +94 0 *
Fa
0  1e-07 21 0

0101000
+54 0 *
Ve
1e-07
225 225 393.214568
0 0

0101101
*
Ed
 1e-07 1 1 0
1  51 0 7.26626970337202 7.85398163397448
3  120 121CN 21 0 7.26626970337202 7.85398163397448
0

0101000
+81 0 -52 0 *
Ed
 1e-07 1 1 1
2  122 21 0 0 6.28318530717959
0

0101000
+52 0 -52 0 *
Wi

0101100
-80 0 -51 0 -50 0 +51 0 -79 0 +66 0 *
Fa
0  1e-07 21 0

0101000
+49 0 *
Sh

0101100
-181 0 -156 0 +151 0 +128 0 -125 0 +123 0 -114 0 -111 0 +103 0 +101 0 
-92 0 -89 0 +77 0 +75 0 -67 0 -63 0 -60 0 -58 0 -55 0 -53 0 
-48 0 *
So

0100000
+47 0 *
Wi

0101100
-168 0 -170 0 +172 0 +167 0 *
Fa
0  1e-07 8 0

0111000
+45 0 *
Wi

0101100
-140 0 -142 0 +144 0 +139 0 *
Fa
0  1e-07 17 0

0111000
+43 0 *
Ed
 1.00000028421709e-07 1 1 0
1  48 0 2.54552516703894 2.68263768536011
2  112 20 0 2.54552516703894 2.68263768536011
2  113 22 0 2.54552516703894 2.68263768536011
2  114 19 0 2.54552516703894 2.68263768536011
0

0101000
+118 0 -107 0 *
Ed
 1.00000028421709e-07 1 1 0
1  48 0 3.60054762181947 3.73766014014065
2  112 20 0 3.60054762181947 3.73766014014065
2  113 22 0 3.60054762181947 3.73766014014065
2  114 19 0 3.60054762181947 3.73766014014065
0

0101000
+108 0 -119 0 *
Wi

0101100
-41 0 +106 0 -40 0 -117 0 *
Fa
0  1e-07 19 0

0101000
+39 0 *
Wi

0101100
-116 0 +40 0 +105 0 +41 0 *
Fa
0  1e-07 20 0

0101000
+37 0 *
Sh

0101100
-44 0 -103 0 +111 0 +114 0 -101 0 +42 0 -38 0 -36 0 *
So

0100000
+35 0 *
Wi

0101100
-159 0 -161 0 +163 0 +158 0 *
Fa
0  1e-07 13 0

0111000
+33 0 *
Wi

0101100
-131 0 -133 0 +135 0 +130 0 *
Fa
0  1e-07 18 0

0111000
+31 0 *
Ve
1.1680077705023e-06
272.996425 225 345.218143
0 0

0101101
*
Ed
 1e-07 1 1 0
1  50 0 96.3546978734356 102.270532
3  118 119CN 20 0 96.3546978734356 102.270532
0

0101000
+85 0 -29 0 *
Ed
 1.00000028421709e-07 1 1 0
1  49 0 5.94249703348866 6.28318530717959
2  115 20 0 5.94249703348866 6.28318530717959
2  116 23 0 5.94249703348866 6.28318530717959
2  117 21 0 5.94249703348866 6.28318530717959
0

0101000
+86 0 -29 0 *
Wi

0101100
+28 0 +84 0 -27 0 *
Fa
0  1e-07 20 0

0101000
+26 0 *
Ed
 1.00000028421709e-07 1 1 0
1  49 0 0 0.34068827369093
2  115 20 0 0 0.34068827369093
2  116 23 0 0 0.34068827369093
2  117 21 0 0 0.34068827369093
0

0101000
+29 0 -83 0 *
Wi

0101100
-24 0 +82 0 -28 0 *
Fa
0  1e-07 20 0

0101000
+23 0 *
Ed
 1e-07 1 1 0
1  51 0 6.28318530717959 6.30851904033453
3  120 121CN 21 0 6.28318530717959 6.30851904033453
0

0101000
+29 0 -96 0 *
Ed
 1e-07 1 1 0
1  51 0 7.1305162000218 7.26626970337202
3  120 121CN 21 0 7.1305162000218 7.26626970337202
0

0101000
+97 0 -81 0 *
Wi

0101100
-21 0 -94 0 -20 0 +80 0 +24 0 *
Fa
0  1e-07 21 0

0101000
+19 0 *
Wi

0101100
+27 0 +79 0 +20 0 -95 0 +21 0 *
Fa
0  1e-07 21 0

0101000
+17 0 *
Sh

0101100
-32 0 -77 0 +89 0 +92 0 -75 0 +30 0 -25 0 -22 0 -18 0 -16 0 
*
So

0100000
+15 0 *
Wi

0101100
+94 0 +95 0 *
Fa
0  1e-07 12 0

0101000
+13 0 *
Wi

0101100
+79 0 +80 0 +82 0 +84 0 *
Fa
0  1e-07 15 0

0101000
+11 0 *
Sh

0101100
+12 0 +18 0 +16 0 -10 0 +22 0 +25 0 *
So

0100000
+9 0 *
Wi

0101100
+116 0 +117 0 *
Fa
0  1e-07 7 0

0101000
+7 0 *
Wi

0101100
+105 0 +106 0 *
Fa
0  1e-07 10 0

0101000
+5 0 *
Sh

0101100
+6 0 +36 0 +38 0 -4 0 *
So

0100000
+3 0 *
Co

1100000
+46 0 +34 0 +14 0 +8 0 +2 0 *

+1 0 