DBRep_DrawableShape

CASCADE Topology V1, (c) Matra-Datavision
Locations 0
Curve2ds 166
1 0 0 1 0 
1 0 0 1 0 
1 660 0 0 -1 
1 0 0 0 1 
1 0 -450 1 0 
1 0 0 1 0 
1 0 0 0 -1 
1 0 0 0 1 
1 0 0 0 1 
1 0 0 1 0 
1 0 0 1 0 
1 0 450 1 0 
1 660 0 0 1 
1 0 0 1 0 
1 0 0 1 0 
1 3.0000000000000142 2.2204460492503131e-14 0 1 
1 343.9224007721923 133.53217896296752 -0.90630778703664994 0.4226182617406995 
1 1.4210854715202004e-14 250 1 0 
1 0 0 1 0 
1 116.07759922780775 236.46782103703242 0.4226182617406995 0.90630778703664994 
1 0 0 1 0 
1 0 0 0 1 
1 342.65454598697022 130.81325560185755 -0.90630778703664994 0.4226182617406995 
1 0 0 1 0 
1 0 0 1 0 
1 342.65454598697022 130.81325560185755 0.4226182617406995 0.90630778703664994 
1 0 0 1 0 
1 3.00000000000004 3.4194869158454821e-14 0 1 
1 513.9224007721923 213.53217896296758 -0.90630778703664994 0.4226182617406995 
1 5.6843418860808015e-14 250.00000000000009 1 0 
1 0 0 1 0 
1 286.0775992278077 316.46782103703254 0.4226182617406995 0.90630778703664994 
1 0 0 1 0 
1 0 0 0 1 
1 512.65454598697022 210.81325560185758 -0.90630778703664994 0.4226182617406995 
1 0 0 1 0 
1 0 0 1 0 
1 512.65454598697022 210.81325560185758 0.4226182617406995 0.90630778703664994 
1 660 0 0 1 
1 0 450 1 0 
1 660 0 0 -1 
1 450 0 0 1 
1 0 0 0 1 
1 0 450 1 0 
1 0 -450 1 0 
1 0 450 1 0 
1 0 450 1 0 
1 3.0000000000000142 2.2204460492503131e-14 0 1 
1 343.9224007721923 133.53217896296752 -0.90630778703664994 0.4226182617406995 
1 1.4210854715202004e-14 250 1 0 
1 0 -450 1 0 
1 116.07759922780775 236.46782103703242 0.4226182617406995 0.90630778703664994 
1 0 450 1 0 
1 0 0 0 1 
1 342.65454598697022 130.81325560185755 -0.90630778703664994 0.4226182617406995 
1 0 0 1 0 
1 0 -450 1 0 
1 342.65454598697022 130.81325560185755 0.4226182617406995 0.90630778703664994 
1 0 450 1 0 
1 3.00000000000004 3.4194869158454821e-14 0 1 
1 513.9224007721923 213.53217896296758 -0.90630778703664994 0.4226182617406995 
1 5.6843418860808015e-14 250.00000000000009 1 0 
1 0 -450 1 0 
1 286.0775992278077 316.46782103703254 0.4226182617406995 0.90630778703664994 
1 0 450 1 0 
1 0 0 0 1 
1 512.65454598697022 210.81325560185758 -0.90630778703664994 0.4226182617406995 
1 0 0 1 0 
1 0 -450 1 0 
1 512.65454598697022 210.81325560185758 0.4226182617406995 0.90630778703664994 
1 0 0 0 -1 
1 450 0 0 1 
1 0 0 0 1 
1 3.0000000000000142 0 0 -1 
1 249.99999999999997 0 0 1 
1 2.9999999999999947 0 0 -1 
7 0 0  7 8 2  1.9420675554112425 -2.9286288583950202e-14  2.0192679303906771 6.687674659153485  2.0927349909504187 13.464249778680824  2.1628425270494063 20.256174639878736  2.229957288141577 26.988431777364895  2.2944161153840241 33.586559799528004  2.3565272265226178 39.978755364229244  2.4165719626177338 46.09772228646446 
 4.5744155777006847 8 5.1488184791891021 8
3 174.19598513358497 225 -1 0 -0 -1 88.625934631032791 32.928266589445251
7 0 0  6 12 3  2.4165719626177329 0  2.5293832182113398 5.0875032432306773  2.6465920245671839 9.1993401978199927  2.7675741898835327 12.304392125532104  2.8913282941024079 14.381485507917887  3.0164602694415366 15.420032095027722  3.2667250377380497 15.420032095027725  3.3918570130771855 14.381485507918001  3.5156111172959754 12.304392125531876  3.6365932826124094 9.1993401978199927  3.7538020889682455 5.0875032432307039  3.8666133445618525 3.1306519417862666e-14 
 2.791828328363203 7 3.1415926535897931 5 3.4913569788163832 7
3 389.59465120493803 225 1 0 -0 1 269.15798468404563 87.084464633554077
7 0 0  7 8 2  3.8666133445618525 46.09772228646446  3.926658080656968 39.978755364229244  3.988769191795086 33.586559799534371  4.05322801903867 26.988431777359438  4.1203427801297039 20.256174639886012  4.1904503162293167 13.464249778674457  4.2639173767889087 6.6876746591535117  4.3411177517683432 0 
 1.1343668279904844 8 1.7087697294789015 8
3 174.19598513358497 225 -1 0 -0 -1 88.625934631032791 32.928266589445251
8 0 3.8357798936724361
7 0 0  8 30 5  6.2831853071795569 1.2150058464393314  6.1916680442388135 1.2150058464393314  6.1001512283328223 1.2233147530450543  6.009466772618655 1.2399325587770176  5.9204551517882456 1.2649229477676118  5.8338573267172107 1.2984132614618091  5.7502521344622624 1.3405957226118015  5.670039143607279 1.3917299175655646  5.4594656798217027 1.5578756205959852  5.3366141851975044 1.6920321352095016  5.2262493207654188 1.856388423201679  5.1282603988183837 2.0533839928702946  5.0415339262508496 2.2861878228741261  4.9648996728774364 2.5588001138812615  4.8971434795415156 2.8761997719997296  4.7472083450239735 3.7971045373720984  4.6747565895575462 4.4643125145112208  4.6160971204280941 5.2670253220203449  4.5680334510689136 6.2321401655353839  4.5283817669514974 7.3942513125111873  4.4954071504453168 8.7981280848880488  4.4678282497477477 10.502334208470486  4.4214438031473007 14.668540633477068  4.4026386736018139 17.130541210004594  4.3872152237745468 20.050005585741019  4.374458912978298 23.525517273621517  4.3638360928962356 27.681859956719563  4.3549388518249543 32.678982913705113  4.3474496107088862 38.724911043820207  4.3411177517683432 46.097722286464439 
 0 9 0.47947248670905385 7 1.3185493384498999 7 2.5771646160611681 7 3.8357798936724361 9
8 0 3.8357798936724361
5 220.06747777206542 225 -1 0 -0 -1 1.4533510012238859 1.4086278268581085
8 -3.8357798936724361 0
7 0 0  8 30 5  1.9420675554112434 46.097722286464439  1.9372432819327345 40.480342292068826  1.9317471528367751 35.633215956181189  1.9254683002239261 31.43335693572169  1.9182733847706004 27.781372075791296  1.9100003160641137 24.595858581224661  1.9004503189053588 21.809474685659069  1.8893756493181884 19.366142921500156  1.8570871860341995 13.997898353162523  1.8335732001708038 11.443028994083761  1.8048454170884725 9.395566065046296  1.7695155848814466 7.7427634601481259  1.7256131379717772 6.4014412755532248  1.6706130612792549 5.3093330604615403  1.6005493895180689 4.4193046092850192  1.4651565135922173 3.3339153251060161  1.4149763828047777 3.013727728302444  1.359105537513237 2.7306932184741157  1.2968355185912515 2.4810732834469036  1.2274006704521128 2.2617319752611138  1.1500285125066108 2.0700507007484572  1.0640885778755287 1.9038659399861966  0.87470649304628878 1.618980784086594  0.77126463509961241 1.5002803955397894  0.65888136128864971 1.4035679106668795  0.53783099598967965 1.3274984052222862  0.40901426703248944 1.2710909550023644  0.27455127886827313 1.2337008827421414  0.13727589441111246 1.2150058464393316  0 1.2150058464393316 
 -3.8357798936724361 9 -2.8768349202543293 7 -1.4384174601271675 7 -0.7192087300635841 7 0 9
8 -3.8357798936724361 0
5 220.06747777206542 225 -1 0 -0 -1 1.4533510012238859 1.4086278268581085
1 250 0 0 1 
1 0 0 0 -1 
1 0 0 0 1 
1 0 0 0 -1 
7 0 0  7 8 2  2.0458380949033113 -3.0827672193631793e-14  2.1257198294982591 6.9842452045390742  2.2015672711075922 13.98644331061314  2.2738570529572826 20.914600974581845  2.3430395832817794 27.676369449767662  2.4095184144626955 34.182076426672211  2.4736578565617702 40.347772726361931  2.535788094580063 46.097722286464403 
 4.6878588242096235 8 5.3164661548781984 8
3 182.93098797297171 225 -1 0 -0 -1 83.796540399980444 31.133943275759847
7 0 0  7 8 2  2.5357880945800635 -5.0362661672213848e-14  2.7007699027552348 6.190930872905982  2.873361437407425 10.376052580445503  3.0514400412544092 12.486352390637876  3.2317452659272021 12.48635239062969  3.4098238697727083 10.376052580445958  3.5824154044243501 6.190930872906022  3.7473972125995214 4.0834590545038259e-15 
 2.8524444840309373 8 3.4307408231486485 8
3 401.55943586635226 225 1 0 -0 1 277.75555373668846 89.866156950719784
7 0 0  7 8 2  3.7473972125995223 46.097722286464453  3.8095274506178152 40.347772726361981  3.8736668927169831 34.18207642667403  3.9401457238977855 27.676369449762205  4.009328254223874 20.914600974581845  4.0816180360714043 13.98644331061314  4.1574654776813267 6.9842452045391079  4.2373472122762745 0 
 0.96671915230138727 8 1.5953264829699623 8
3 182.93098797297171 225 -1 0 -0 -1 83.796540399980444 31.133943275759847
8 -3.3428035316196261 3.3428035316196261
7 0 0  8 44 7  2.045838094903313 46.097722286464439  2.0524117636742991 41.426048581515403  2.0597468000509274 37.313501044225134  2.067942631632242 33.682398289145567  2.0771131429050911 30.468069610762541  2.0873885265360457 27.61615970797061  2.0989176483975291 25.080645923912343  2.1118695761865509 22.822359043284557  2.1519187757832539 17.282318069590168  2.1823399358002007 14.503250207513702  2.218704081758915 12.291064044598897  2.2622167392255506 10.519427434781392  2.3142070732083084 9.0960767140422831  2.3761626897749011 7.9529072409441142  2.4491503292772312 7.0394587034590677  2.5960131271535953 5.7787381894002134  2.6651047542986817 5.3470124357149871  2.740308759481195 5.0083925369963254  2.8212168502632267 4.7517556103048264  2.9069340922324045 4.5694030220856803  2.9958570376620628 4.4565631350578769  3.0860843296333522 4.4111550070007892  3.2430648589961648 4.4508330025789347  3.3100471608468496 4.5061337889799207  3.3759638922055504 4.6000034718898535  3.4400613057839702 4.7335815889685362  3.5017029222451432 4.9088786877169825  3.5604231459134379 5.1288351490500688  3.6159339835706978 5.3974343969046688  3.7463111904902471 6.2035246393512224  3.8169781303436139 6.8083123304995752  3.8795802626354998 7.551767550274235  3.934335403417208 8.4575746879927465  3.9819478044810239 9.5568946213134041  4.0232025207706101 10.890502172240303  4.058898620386965 12.511968100022973  4.1206444074879238 16.4742649285614  4.1466942151464536 18.815096051159344  4.1686575217336213 21.587432939224527  4.1872128969698679 24.88136254332494  4.2029278698773851 28.810671687460854  4.2162743967683127 33.520713599700684  4.2276407794816135 39.199704081500634  4.2373472122762728 46.097722286464446 
 -3.3428035316196261 9 -2.507102648714731 7 -1.0446261036311673 7 0.052231305181506205 7 0.87487436179103539 7 2.1088389467053306 7 3.3428035316196261 9
8 -3.3428035316196261 3.3428035316196261
5 217.17939156815225 225 -1 0 -0 -1 2.2724233253160255 2.2024952869237966
1 0 0 0 1 
1 3.0000000000000142 0 0 -1 
1 249.99999999999997 0 0 1 
1 2.9999999999999369 0 0 -1 
7 0 0  8 9 2  0 2.064823737685332  0.087258770001927111 2.064823737685332  0.1745172165140616 3.7804923280327785  0.26360434866955984 7.211819415075297  0.35633593238867434 12.23043660876283  0.4548393229119938 18.579408903504373  0.56173201367556658 25.89777073166988  0.68077145511942494 33.76749873930811  0.81779685651859679 41.761226035642139 
 0 9 1.4984578550524494 9
3 56.228398320191005 225 1 0 -0 1 45.221307438731849 14.631084985102991
7 0 0  7 8 2  0.8177968565185908 -4.5770081158084311e-15  0.90421217930745346 4.5962216239070042  0.9965976714943281 9.3092116665679896  1.0961221090284425 14.037227876537145  1.2041917342909301 18.674648842266834  1.3224321378214086 23.1176111985842  1.4528255995706925 27.270057213476068  1.5968511375521302 31.048349392520048 
 1.3858804472994797 8 2.2007943721844518 8
3 51.623456502823203 225 1 0 -0 1 42.821522238085592 14.845917858316717
8 -0.23547030484338083 0.23547030484338083
7 0 0  8 30 5  4.6863341696274512 1.0556604470279146e-13  4.6244290386795335 1.720355098602002  4.5581345283935368 3.315564915792049  4.4870982416340572 4.786197232815848  4.4109689452648615 6.1327620075087168  4.3294265705979686 7.3557117673161105  4.2422375037093403 8.4554419363045739  4.1493351656211441 9.4322910961632154  3.9771189198977219 10.927228744970069  3.9002136528213875 11.498954329164855  3.8202972341481667 12.001836874842134  3.7375352153031103 12.435977399559071  3.6521996225281219 12.801459043707993  3.5646756357264477 13.098347105258751  3.4754468697332381 13.326689062903403  3.2494778404307367 13.72625287465287  3.1112884134608976 13.811829187565309  2.9723317208390654 13.743343665897555  2.8347457953968842 13.520806297507079  2.7007110476461094 13.144137006580422  2.5718203112091942 12.613165609702264  2.4490876278166755 11.927631640057005  2.2170152974016326 10.246736439557854  2.1076751064941321 9.2513752087130339  2.0055727484644237 8.1007492894055702  1.9107601013976137 6.7944170326672975  1.8229507534682767 5.3318458903785597  1.7416921816629527 3.7124119750467397  1.6664944098685428 1.9353994859272394  1.596851137552135 1.0556604470279146e-13 
 -0.23547030484338083 9 -0.11773515242169023 7 -0.029433788105421896 7 0.10301825836897975 7 0.23547030484338083 9
8 -0.23547030484338083 0.23547030484338083
5 -476.51578040565647 225 1 0 -0 1 489.28395447028822 50.476790055993924
7 0 0  7 8 2  4.6863341696274539 31.048349392520105  4.830359707608892 27.270057213476125  4.9607531693586679 23.117611198585109  5.0789935728876117 18.674648842261377  5.1870631981537372 14.03722787654624  5.2865876356843273 9.3092116665638969  5.3789731278721327 4.5962216239070095  5.4653884506609955 -3.6616064926467449e-15 
 4.0823909349951339 8 4.8973048598801068 8
3 51.623456502823203 225 1 0 -0 1 42.821522238085592 14.845917858316717
7 0 0  8 9 2  5.4653884506609893 41.761226035642139  5.6024138520601614 33.76749873930811  5.7214532934995077 25.897770731678975  5.8283459842787124 18.579408903504373  5.9268493747804314 12.230436608777381  6.0195809585202369 7.2118194150898489  6.1086680906619222 3.7804923280400544  6.1959265371776553 2.0648237376853342  6.2831853071795827 2.064823737685332 
 4.7847274521271368 9 6.2831853071795862 9
3 56.228398320191005 225 1 0 -0 1 45.221307438731849 14.631084985102991
1 250.00000000000006 0 0 1 
1 0 0 0 -1 
1 0 0 0 1 
1 0 0 0 -1 
7 0 0  6 7 2  5.8481066053038484 50.159744815937806  5.9199604919278679 48.355511270052126  5.9922020612091842 46.895727001103296  6.0647440421399779 45.792578779164614  6.1374898736317505 45.054376292801408  6.2103375891784838 44.685275099404329  6.2831853071795836 44.685275099404329 
 2.7740436779153117 7 3.1415926535897931 7
3 18.102173731031996 225 -1 0 -0 -1 90.151978385534349 37.534987565929192
7 0 0  6 7 2  0 44.685275099404329  0.072847718001100001 44.685275099404329  0.14569543354780023 45.054376292800953  0.21844126503973627 45.792578779166433  0.29098324597032921 46.895727001102387  0.36322481525171835 48.355511270052126  0.43507870187573744 50.159744815937806 
 3.1415926535897931 7 3.5091416292642745 7
3 18.102173731031996 225 -1 0 -0 -1 90.151978385534349 37.534987565929192
7 0 0  7 8 2  0.43507870187573744 0  0.50297753840473769 4.9218523725609922  0.57437768849064241 10.428779524446327  0.65020960812364592 16.395612325046386  0.73161266759996124 22.674871011908181  0.81999654928071664 29.104689323816274  0.91726858797396826 35.519716574591811  1.0259067264203687 41.761226035642203 
 0.88603512080881719 8 1.7594936804904198 8
3 68.193182981604977 225 1 0 -0 1 53.818876491374489 17.41277730226863
7 0 0  7 8 2  1.0259067264203647 4.5770081158084311e-15  1.1195820133803163 5.0540759196975085  1.2203731069889159 10.05899836278877  1.3294955043505752 14.916293364223748  1.4483391404849044 19.528920297974764  1.5784473521567293 23.806080835982357  1.7213520329286418 27.6678462689183  1.8774775111952278 31.048349392520109 
 1.646972620953769 8 2.4115156859557976 8
3 61.863218134020585 225 1 0 -0 1 49.477319486744499 17.153435528655802
8 -0.17662469262685376 0.17662469262685376
7 0 0  8 23 4  4.4057077959843562 3.8434239576259023e-15  4.3464326736825853 1.2306341422372529  4.2841509954944064 2.3724536647433809  4.2187613891718554 3.4256870866138547  4.1501904368615987 4.3905398379248357  4.0784150760563822 5.2671943487826427  4.0034830332849225 6.0558101234665367  3.9255312905402509 6.7565237996648326  3.7237095253058827 8.2888372825135708  3.5963673880305578 9.0107017353366246  3.4635916609913693 9.5354266783906496  3.3267022912314133 9.8632807011890691  3.1876028403348755 9.9944171928436845  3.0485916910315609 9.928874509761954  2.9117121240479853 9.6665759762969152  2.6454966009336891 8.7480834555777669  2.5161603039564828 8.0918894683329974  2.3922331533458916 7.2385558777322387  2.274937709193523 6.1877756066519396  2.1648558323611837 4.939126208843021  2.0620666977226656 3.4920695323138089  1.9663901946478872 1.8459512133558771  1.8774775111952304 3.0747391661007214e-15 
 -0.17662469262685376 9 -0.088312346313426965 7 0.044156173156713358 7 0.17662469262685376 9
8 -0.17662469262685376 0.17662469262685376
5 -609.35613834151093 225 1 0 -0 1 624.58494659016367 64.435064614571047
7 0 0  7 8 2  4.4057077959843589 31.048349392520109  4.5618332742509446 27.667846268918304  4.7047379550224377 23.806080835982812  4.83484616669557 19.528920297974764  4.9536898028291034 14.916293364221929  5.0628122001908196 10.058998362786951  5.1636032937992704 5.0540759196975058  5.2572785807592215 3.6616064926467449e-15 
 3.8716696212237887 8 4.6362126862258171 8
3 61.863218134020585 225 1 0 -0 1 49.477319486744499 17.153435528655802
7 0 0  7 8 2  5.2572785807592179 41.761226035642203  5.3659167192056181 35.519716574591811  5.4631887578989335 29.104689323815364  5.5515726395801721 22.674871011906362  5.6329756990553506 16.395612325042748  5.7088076186898888 10.428779524449055  5.780207768774849 4.921852372560986  5.8481066053038493 -8.1669181090076502e-15 
 4.5236916266891667 8 5.3971501863707694 8
3 68.193182981604977 225 1 0 -0 1 53.818876491374489 17.41277730226863
1 6.2831853071795862 0 0 1 
1 0 0 0 1 
1 0 46.097722286464432 1 0 
1 0 0 1 0 
1 0 46.097722286464439 1 0 
1 0 0 1 0 
1 6.2831853071795862 0 0 1 
1 0 0 0 1 
1 0 52.201532544552755 1 0 
1 0 0 1 0 
1 6.2831853071795862 0 0 1 
1 0 0 0 1 
1 6.2831853071795862 0 0 1 
1 0 0 0 1 
1 0 41.761226035642203 1 0 
1 0 0 1 0 
1 6.2831853071795862 0 0 1 
1 0 0 0 1 
1 0 31.048349392520045 1 0 
1 0 0 1 0 
1 6.2831853071795862 0 0 1 
1 0 0 0 1 
1 0 27.730849247724095 1 0 
1 6.2831853071795862 0 0 1 
1 0 0 0 1 
1 0 50.159744815937806 1 0 
1 0 0 1 0 
1 0 50.990195135927848 1 0 
1 0 0 1 0 
1 0 50.635955604688647 1 0 
1 0 0 1 0 
1 6.2831853071795862 0 0 1 
1 0 0 0 1 
1 6.2831853071795862 0 0 1 
1 0 0 0 1 
1 0 0 1 0 
Curves 75
1 0 0 0 0 0 1 
1 0 0 660 -0 1 0 
1 0 450 0 0 0 1 
1 0 0 0 -0 1 0 
1 0 0 0 1 0 -0 
1 450 0 0 0 0 1 
1 0 0 660 1 0 -0 
1 133.53217896296752 0 343.9224007721923 0.4226182617406995 0 -0.90630778703664994 
1 236.46782103703242 0 116.07759922780775 0.90630778703664994 0 0.4226182617406995 
1 130.81325560185755 0 342.65454598697022 0.4226182617406995 0 -0.90630778703664994 
1 130.81325560185755 0 342.65454598697022 0.90630778703664994 0 0.4226182617406995 
1 213.53217896296758 0 513.9224007721923 0.4226182617406995 0 -0.90630778703664994 
1 316.46782103703254 0 286.0775992278077 0.90630778703664994 0 0.4226182617406995 
1 210.81325560185758 0 512.65454598697022 0.4226182617406995 0 -0.90630778703664994 
1 210.81325560185758 0 512.65454598697022 0.90630778703664994 0 0.4226182617406995 
1 0 450 660 1 0 -0 
1 450 0 660 -0 1 0 
1 0 450 0 1 0 -0 
1 450 450 0 0 0 1 
1 133.53217896296752 450 343.9224007721923 0.4226182617406995 0 -0.90630778703664994 
1 236.46782103703242 450 116.07759922780775 0.90630778703664994 0 0.4226182617406995 
1 130.81325560185755 450 342.65454598697022 0.4226182617406995 0 -0.90630778703664994 
1 130.81325560185755 450 342.65454598697022 0.90630778703664994 0 0.4226182617406995 
1 213.53217896296758 450 513.9224007721923 0.4226182617406995 0 -0.90630778703664994 
1 316.46782103703254 450 286.0775992278077 0.90630778703664994 0 0.4226182617406995 
1 210.81325560185758 450 512.65454598697022 0.4226182617406995 0 -0.90630778703664994 
1 210.81325560185758 450 512.65454598697022 0.90630778703664994 0 0.4226182617406995 
1 450 0 0 -0 1 0 
1 133.53217896296752 0 343.9224007721923 0 1 0 
1 239.18674439814237 0 117.34545401302984 0 1 0 
3 207.15058340233196 225 186.04722297510375 0.90630778703664994 0 0.4226182617406995 -0.4226182617406995 0 0.90630778703664994 0 -1 0 88.625934631032791 32.928266589445251
3 298.18199323867259 225 -9.1702654026705659 0.90630778703664994 0 0.4226182617406995 0.4226182617406995 0 -0.90630778703664994 -0 1 0 269.15798468404563 87.084464633554077
3 207.15058340233196 225 186.04722297510375 0.90630778703664994 0 0.4226182617406995 -0.4226182617406995 0 0.90630778703664994 0 -1 0 88.625934631032791 32.928266589445251
5 226.53671388465784 225 144.47353199385455 0.90630778703664994 0 0.4226182617406995 -0.4226182617406995 0 0.90630778703664994 0 -1 0 1.4533510012238859 1.4086278268581085
5 226.53671388465784 225 144.47353199385455 0.90630778703664994 0 0.4226182617406995 -0.4226182617406995 0 0.90630778703664994 0 -1 0 1.4533510012238859 1.4086278268581085
1 236.46782103703242 0 116.07759922780775 0 1 0 
1 130.81325560185755 0 342.65454598697022 0 1 0 
3 208.12323175750367 225 176.8627670967582 0.90630778703664994 0 0.4226182617406995 -0.4226182617406995 0 0.90630778703664994 0 -1 0 83.796540399980444 31.133943275759847
3 300.51960637327124 225 -21.281897696749098 0.90630778703664994 0 0.4226182617406995 0.4226182617406995 0 -0.90630778703664994 -0 1 0 277.75555373668846 89.866156950719784
3 208.12323175750367 225 176.8627670967582 0.90630778703664994 0 0.4226182617406995 -0.4226182617406995 0 0.90630778703664994 0 -1 0 83.796540399980444 31.133943275759847
5 222.59723255229275 225 145.82317222487205 0.90630778703664994 0 0.4226182617406995 -0.4226182617406995 0 0.90630778703664994 0 -1 0 2.2724233253160255 2.2024952869237966
1 213.53217896296758 0 513.9224007721923 0 1 0 
1 319.18674439814242 0 287.34545401302984 0 1 0 
3 237.29532692151031 225 462.96216552200468 0.90630778703664994 0 0.4226182617406995 0.4226182617406995 0 -0.90630778703664994 -0 1 0 45.221307438731849 14.631084985102991
3 235.34919441523735 225 467.13566014993586 0.90630778703664994 0 0.4226182617406995 0.4226182617406995 0 -0.90630778703664994 -0 1 0 42.821522238085592 14.845917858316717
5 12.147908155916184 225 945.79236319968504 0.90630778703664994 0 0.4226182617406995 0.4226182617406995 0 -0.90630778703664994 -0 1 0 489.28395447028822 50.476790055993924
3 235.34919441523735 225 467.13566014993586 0.90630778703664994 0 0.4226182617406995 0.4226182617406995 0 -0.90630778703664994 -0 1 0 42.821522238085592 14.845917858316717
3 237.29532692151031 225 462.96216552200468 0.90630778703664994 0 0.4226182617406995 0.4226182617406995 0 -0.90630778703664994 -0 1 0 45.221307438731849 14.631084985102991
1 316.46782103703254 0 286.0775992278077 0 1 0 
1 210.81325560185758 0 512.65454598697022 0 1 0 
3 218.46356479779445 225 496.24840497224562 0.90630778703664994 0 0.4226182617406995 -0.4226182617406995 0 0.90630778703664994 0 -1 0 90.151978385534349 37.534987565929192
3 218.46356479779445 225 496.24840497224562 0.90630778703664994 0 0.4226182617406995 -0.4226182617406995 0 0.90630778703664994 0 -1 0 90.151978385534349 37.534987565929192
3 239.63294005610891 225 450.85053322792646 0.90630778703664994 0 0.4226182617406995 0.4226182617406995 0 -0.90630778703664994 -0 1 0 53.818876491374489 17.41277730226863
3 236.95778131534311 225 456.58742966096048 0.90630778703664994 0 0.4226182617406995 0.4226182617406995 0 -0.90630778703664994 -0 1 0 49.477319486744499 17.153435528655802
5 -46.711776365057005 225 1064.9187592444637 0.90630778703664994 0 0.4226182617406995 0.4226182617406995 0 -0.90630778703664994 -0 1 0 624.58494659016367 64.435064614571047
3 236.95778131534311 225 456.58742966096048 0.90630778703664994 0 0.4226182617406995 0.4226182617406995 0 -0.90630778703664994 -0 1 0 49.477319486744499 17.153435528655802
3 239.63294005610891 225 450.85053322792646 0.90630778703664994 0 0.4226182617406995 0.4226182617406995 0 -0.90630778703664994 -0 1 0 53.818876491374489 17.41277730226863
1 260 225 175 0.21693045781865616 0 0.97618706018395274 
2 225 225 220 0 0 1 1 0 -0 -0 1 0 45
2 225 225 175 0 0 1 1 0 -0 -0 1 0 35
1 270 225 220 -0.28734788556634544 0 0.95782628522115143 
2 225 225 270 0 0 1 1 0 -0 -0 1 0 30
1 225 225 145 0.75925660236529657 0 0.65079137345596849 
1 257 225 420 -0.28734788556634538 0 0.95782628522115132 
2 225 225 460 0 0 1 1 0 -0 -0 1 0 20
1 245 225 460 -0.25766265056033233 0 0.96623493960124629 
2 225 225 490 0 0 1 1 0 -0 -0 1 0 12
1 237 225 490 -0.43273106758477131 0 0.90152305746827355 
1 253 225 370 0.079745222282889994 0 0.99681527853612495 
2 225 225 420 0 0 1 1 0 -0 -0 1 0 32
2 225 225 370 0 0 1 1 0 -0 -0 1 0 28
2 225 225 320 0 0 1 1 0 -0 -0 1 0 38
1 255 225 270 0.15799050110667284 0 0.98744063191670528 
1 263 225 320 -0.19611613513818404 0 0.98058067569092011 
1 225 225 515 0 0 -1 
Polygon3D 0
PolygonOnTriangulations 0
Surfaces 28
1 0 0 0 1 0 -0 0 0 1 0 -1 0 
1 0 0 0 -0 1 0 0 0 1 1 0 -0 
1 0 0 660 0 0 1 1 0 -0 -0 1 0 
1 0 450 0 -0 1 0 0 0 1 1 0 -0 
1 0 0 0 0 0 1 1 0 -0 -0 1 0 
1 450 0 0 1 0 -0 0 0 1 0 -1 0 
1 133.53217896296752 0 343.9224007721923 0.90630778703664994 0 0.4226182617406995 0.4226182617406995 0 -0.90630778703664994 0 1 0 
1 130.81325560185755 0 342.65454598697022 0 1 0 0.90630778703664994 0 0.4226182617406995 0.4226182617406995 0 -0.90630778703664994 
1 236.46782103703242 0 116.07759922780775 0.4226182617406995 0 -0.90630778703664994 0.90630778703664994 0 0.4226182617406995 0 -1 0 
1 130.81325560185755 0 342.65454598697022 0.90630778703664994 0 0.4226182617406995 0.4226182617406995 0 -0.90630778703664994 0 1 0 
1 130.81325560185755 0 342.65454598697022 0.4226182617406995 0 -0.90630778703664994 0.90630778703664994 0 0.4226182617406995 0 -1 0 
1 213.53217896296758 0 513.9224007721923 0.90630778703664994 0 0.4226182617406995 0.4226182617406995 0 -0.90630778703664994 0 1 0 
1 210.81325560185758 0 512.65454598697022 0 1 0 0.90630778703664994 0 0.4226182617406995 0.4226182617406995 0 -0.90630778703664994 
1 316.46782103703254 0 286.0775992278077 0.4226182617406995 0 -0.90630778703664994 0.90630778703664994 0 0.4226182617406995 0 -1 0 
1 210.81325560185758 0 512.65454598697022 0.90630778703664994 0 0.4226182617406995 0.4226182617406995 0 -0.90630778703664994 0 1 0 
1 210.81325560185758 0 512.65454598697022 0.4226182617406995 0 -0.90630778703664994 0.90630778703664994 0 0.4226182617406995 0 -1 0 
1 130.81325560185755 450 342.65454598697022 0 1 0 0.90630778703664994 0 0.4226182617406995 0.4226182617406995 0 -0.90630778703664994 
1 210.81325560185758 450 512.65454598697022 0 1 0 0.90630778703664994 0 0.4226182617406995 0.4226182617406995 0 -0.90630778703664994 
3 225 225 175 0 0 1 1 0 -0 -0 1 0 35
0.21866894587394195
3 225 225 220 0 0 1 1 0 -0 -0 1 0 45
-0.2914567944778671
3 225 225 145 0 0 1 1 0 -0 -0 1 0 0
0.8621700546672264
3 225 225 420 0 0 1 1 0 -0 -0 1 0 32
-0.29145679447786704
3 225 225 460 0 0 1 1 0 -0 -0 1 0 20
-0.26060239174734096
3 225 225 490 0 0 1 1 0 -0 -0 1 0 12
-0.4475199751571699
3 225 225 370 0 0 1 1 0 -0 -0 1 0 28
0.079829985712237303
3 225 225 270 0 0 1 1 0 -0 -0 1 0 30
0.15865526218640139
3 225 225 320 0 0 1 1 0 -0 -0 1 0 38
-0.19739555984988078
1 239.69398201156682 225.00000000000003 327.0662214768509 -0 -1 -0 0 0 -1 1 -0 0 
Triangulations 0

TShapes 281
Ve
1e-07
0 0 660
0 0

0101101
*
Ve
1e-07
0 0 0
0 0

0101101
*
Ed
 1e-07 1 1 0
1  1 0 0 660
2  1 1 0 0 660
2  2 2 0 0 660
0

0101000
-281 0 +280 0 *
Ve
1e-07
0 450 660
0 0

0101101
*
Ed
 1e-07 1 1 0
1  2 0 0 450
2  3 1 0 0 450
2  4 3 0 0 450
0

0101000
-278 0 +281 0 *
Ve
1e-07
0 450 0
0 0

0101101
*
Ed
 1e-07 1 1 0
1  3 0 0 660
2  5 1 0 0 660
2  6 4 0 0 660
0

0101000
-278 0 +276 0 *
Ed
 1e-07 1 1 0
1  4 0 0 450
2  7 1 0 0 450
2  8 5 0 0 450
0

0101000
-276 0 +280 0 *
Wi

0101100
-279 0 -277 0 +275 0 +274 0 *
Fa
0  1e-07 1 0

0111000
+273 0 *
Ve
1e-07
450 0 0
0 0

0101101
*
Ed
 1e-07 1 1 0
1  5 0 0 450
2  9 2 0 0 450
2  10 5 0 0 450
0

0101000
-271 0 +280 0 *
Ve
1e-07
450 0 660
0 0

0101101
*
Ed
 1e-07 1 1 0
1  6 0 0 660
2  11 6 0 0 660
2  12 2 0 0 660
0

0101000
-269 0 +271 0 *
Ed
 1e-07 1 1 0
1  7 0 0 450
2  13 2 0 0 450
2  14 3 0 0 450
0

0101000
-269 0 +281 0 *
Wi

0101100
-270 0 -268 0 +279 0 +267 0 *
Ve
1e-07
239.186744398142 0 117.34545401303
0 0

0101101
*
Ve
1e-07
133.532178962968 0 343.922400772192
0 0

0101101
*
Ed
 1e-07 1 1 0
1  8 0 0 250
2  15 7 0 0 250
2  16 8 0 0 250
2  17 2 0 0 250
0

0101000
-265 0 +264 0 *
Ve
1e-07
236.467821037032 0 116.077599227808
0 0

0101101
*
Ed
 1e-07 1 1 0
1  9 0 0 3
2  18 8 0 0 3
2  19 9 0 0 3
2  20 2 0 0 3
0

0101000
-265 0 +262 0 *
Ve
1e-07
130.813255601858 0 342.65454598697
0 0

0101101
*
Ed
 1e-07 1 1 0
1  10 0 0 250
2  21 10 0 0 250
2  22 8 0 0 250
2  23 2 0 0 250
0

0101000
-262 0 +260 0 *
Ed
 1e-07 1 1 0
1  11 0 0 3
2  24 8 0 0 3
2  25 11 0 0 3
2  26 2 0 0 3
0

0101000
-264 0 +260 0 *
Wi

0101100
-263 0 +261 0 +259 0 -258 0 *
Ve
1e-07
319.186744398142 0 287.34545401303
0 0

0101101
*
Ve
1e-07
213.532178962968 0 513.922400772192
0 0

0101101
*
Ed
 1e-07 1 1 0
1  12 0 0 250
2  27 12 0 0 250
2  28 13 0 0 250
2  29 2 0 0 250
0

0101000
-256 0 +255 0 *
Ve
1e-07
316.467821037033 0 286.077599227808
0 0

0101101
*
Ed
 1e-07 1 1 0
1  13 0 0 3
2  30 13 0 0 3
2  31 14 0 0 3
2  32 2 0 0 3
0

0101000
-256 0 +253 0 *
Ve
1e-07
210.813255601858 0 512.65454598697
0 0

0101101
*
Ed
 1e-07 1 1 0
1  14 0 0 250
2  33 15 0 0 250
2  34 13 0 0 250
2  35 2 0 0 250
0

0101000
-253 0 +251 0 *
Ed
 1e-07 1 1 0
1  15 0 0 3
2  36 13 0 0 3
2  37 16 0 0 3
2  38 2 0 0 3
0

0101000
-255 0 +251 0 *
Wi

0101100
-254 0 +252 0 +250 0 -249 0 *
Fa
0  1e-07 2 0

0101000
+266 0 +257 0 +248 0 *
Ve
1e-07
450 450 660
0 0

0101101
*
Ed
 1e-07 1 1 0
1  16 0 0 450
2  39 4 0 0 450
2  40 3 0 0 450
0

0101000
-246 0 +278 0 *
Ed
 1e-07 1 1 0
1  17 0 0 450
2  41 6 0 0 450
2  42 3 0 0 450
0

0101000
-246 0 +269 0 *
Wi

0101100
-277 0 -245 0 +244 0 +267 0 *
Fa
0  1e-07 3 0

0111000
+243 0 *
Ve
1e-07
450 450 0
0 0

0101101
*
Ed
 1e-07 1 1 0
1  18 0 0 450
2  43 4 0 0 450
2  44 5 0 0 450
0

0101000
-241 0 +276 0 *
Ed
 1e-07 1 1 0
1  19 0 0 660
2  45 6 0 0 660
2  46 4 0 0 660
0

0101000
-246 0 +241 0 *
Wi

0101100
-240 0 -239 0 +275 0 +245 0 *
Ve
1e-07
239.186744398142 450 117.34545401303
0 0

0101101
*
Ve
1e-07
133.532178962968 450 343.922400772192
0 0

0101101
*
Ed
 1e-07 1 1 0
1  20 0 0 250
2  47 7 0 0 250
2  48 17 0 0 250
2  49 4 0 0 250
0

0101000
-237 0 +236 0 *
Ve
1e-07
236.467821037032 450 116.077599227808
0 0

0101101
*
Ed
 1e-07 1 1 0
1  21 0 0 3
2  50 17 0 0 3
2  51 9 0 0 3
2  52 4 0 0 3
0

0101000
-237 0 +234 0 *
Ve
1e-07
130.813255601858 450 342.65454598697
0 0

0101101
*
Ed
 1e-07 1 1 0
1  22 0 0 250
2  53 10 0 0 250
2  54 17 0 0 250
2  55 4 0 0 250
0

0101000
-234 0 +232 0 *
Ed
 1e-07 1 1 0
1  23 0 0 3
2  56 17 0 0 3
2  57 11 0 0 3
2  58 4 0 0 3
0

0101000
-236 0 +232 0 *
Wi

0101100
-235 0 +233 0 +231 0 -230 0 *
Ve
1e-07
319.186744398142 450 287.34545401303
0 0

0101101
*
Ve
1e-07
213.532178962968 450 513.922400772192
0 0

0101101
*
Ed
 1e-07 1 1 0
1  24 0 0 250
2  59 12 0 0 250
2  60 18 0 0 250
2  61 4 0 0 250
0

0101000
-228 0 +227 0 *
Ve
1e-07
316.467821037033 450 286.077599227808
0 0

0101101
*
Ed
 1e-07 1 1 0
1  25 0 0 3
2  62 18 0 0 3
2  63 14 0 0 3
2  64 4 0 0 3
0

0101000
-228 0 +225 0 *
Ve
1e-07
210.813255601858 450 512.65454598697
0 0

0101101
*
Ed
 1e-07 1 1 0
1  26 0 0 250
2  65 15 0 0 250
2  66 18 0 0 250
2  67 4 0 0 250
0

0101000
-225 0 +223 0 *
Ed
 1e-07 1 1 0
1  27 0 0 3
2  68 18 0 0 3
2  69 16 0 0 3
2  70 4 0 0 3
0

0101000
-227 0 +223 0 *
Wi

0101100
-226 0 +224 0 +222 0 -221 0 *
Fa
0  1e-07 4 0

0101000
+238 0 +229 0 +220 0 *
Ed
 1e-07 1 1 0
1  28 0 0 450
2  71 6 0 0 450
2  72 5 0 0 450
0

0101000
-241 0 +271 0 *
Wi

0101100
-274 0 -240 0 +218 0 +270 0 *
Fa
0  1e-07 5 0

0111000
+217 0 *
Wi

0101100
-268 0 -244 0 +239 0 +218 0 *
Fa
0  1e-07 6 0

0111000
+215 0 *
Ed
 1e-07 1 1 0
1  29 0 0 450
2  73 7 0 0 450
2  74 11 0 0 450
0

0101000
-236 0 +264 0 *
Ed
 1e-07 1 1 0
1  30 0 0 450
2  75 7 0 0 450
2  76 9 0 0 450
0

0101000
-237 0 +265 0 *
Wi

0101100
-213 0 -235 0 +263 0 +212 0 *
Ve
3.68757110295151e-07
212.301988076969 257.615341377986 175
0 0

0101101
*
Ve
1.01637700206186e-06
191.318143459994 254.841791836591 220
0 0

0101101
*
Ed
 1e-07 1 1 0
1  31 0 4.57441557770068 5.1488184791891
2  77 19 0 4.57441557770068 5.1488184791891
2  78 7 0 4.57441557770068 5.1488184791891
0

0101000
+210 0 -209 0 *
Ve
1.01637700206186e-06
191.318143459994 195.158208163409 220
0 0

0101101
*
Ed
 1.01637696186749e-06 1 1 0
1  32 0 2.7918283283632 3.49135697881638
2  79 20 0 2.7918283283632 3.49135697881638
2  80 7 0 2.7918283283632 3.49135697881638
0

0101000
+209 0 -207 0 *
Ve
1.5990796778636e-07
212.301988076969 192.384658622014 175
0 0

0101101
*
Ed
 1e-07 1 1 0
1  33 0 1.13436682799048 1.7087697294789
2  81 19 0 1.13436682799048 1.7087697294789
2  82 7 0 1.13436682799048 1.7087697294789
0

0101000
+207 0 -205 0 *
Ve
3.68758110295151e-07
225.922501210821 225 145.790715323561
0 0

0101101
*
Ed
 1.5990796778636e-07 1 1 0
1  34 0 0 3.83577989367244
2  83 21 0 0 3.83577989367244
2  84 7 0 0 3.83577989367244
0

0101000
+203 0 -205 0 *
Ed
 3.68757110295151e-07 1 1 0
1  35 0 -3.83577989367244 0
2  85 21 0 -3.83577989367244 0
2  86 7 0 -3.83577989367244 0
0

0101000
+210 0 -203 0 *
Wi

0101100
-208 0 -206 0 -204 0 +202 0 +201 0 *
Fa
0  1e-07 7 0

0101000
+211 0 +200 0 *
Ed
 1e-07 1 1 0
1  36 0 0 450
2  87 10 0 0 450
2  88 9 0 0 450
0

0101000
-234 0 +262 0 *
Wi

0101100
-261 0 -212 0 +233 0 +198 0 *
Fa
0  1e-07 9 0

0111000
+197 0 *
Ed
 1e-07 1 1 0
1  37 0 0 450
2  89 10 0 0 450
2  90 11 0 0 450
0

0101000
-232 0 +260 0 *
Wi

0101100
-195 0 -231 0 +259 0 +198 0 *
Ve
2.24624965090525e-07
208.991854320081 256.124576653996 175
0 0

0101101
*
Ve
1.28326241335282e-06
188.008009703106 250.624063960943 220
0 0

0101101
*
Ed
 1e-07 1 1 0
1  38 0 4.68785882420962 5.3164661548782
2  91 19 0 4.68785882420962 5.3164661548782
2  92 10 0 4.68785882420962 5.3164661548782
0

0101000
+193 0 -192 0 *
Ve
1.28326237822166e-06
188.008009703106 199.375936039057 220
0 0

0101101
*
Ed
 1.28326234979995e-06 1 1 0
1  39 0 2.85244448403094 3.43074082314865
2  93 20 0 2.85244448403094 3.43074082314865
2  94 10 0 2.85244448403094 3.43074082314865
0

0101000
+192 0 -190 0 *
Ve
2.24624965090525e-07
208.991854320081 193.875423346004 175
0 0

0101101
*
Ed
 1e-07 1 1 0
1  40 0 0.966719152301387 1.59532648296996
2  95 19 0 0.966719152301387 1.59532648296996
2  96 10 0 0.966719152301387 1.59532648296996
0

0101000
+190 0 -188 0 *
Ed
 2.24624936668816e-07 1 1 0
1  41 0 -3.34280353161963 3.34280353161963
2  97 21 0 -3.34280353161963 3.34280353161963
2  98 10 0 -3.34280353161963 3.34280353161963
0

0101000
+193 0 -188 0 *
Wi

0101100
-191 0 -189 0 -187 0 +186 0 *
Fa
0  1e-07 10 0

0101000
+194 0 +185 0 *
Wi

0101100
-258 0 -213 0 +230 0 +195 0 *
Fa
0  1e-07 11 0

0111000
+183 0 *
Ed
 1e-07 1 1 0
1  42 0 0 450
2  99 12 0 0 450
2  100 16 0 0 450
0

0101000
-227 0 +255 0 *
Ed
 1e-07 1 1 0
1  43 0 0 450
2  101 12 0 0 450
2  102 14 0 0 450
0

0101000
-228 0 +256 0 *
Wi

0101100
-181 0 -226 0 +254 0 +180 0 *
Ve
7.13543403077551e-07
256.406677264909 225 421.977742450304
0 0

0101101
*
Ve
7.13517420570783e-07
238.676607389144 239.592820506099 460
0 0

0101101
*
Ed
 7.13516420570783e-07 1 1 0
1  44 0 0 1.49845785505245
2  103 22 0 0 1.49845785505245
2  104 12 0 0 1.49845785505245
0

0101000
+178 0 -177 0 *
Ve
5.75379260184986e-07
224.687377644494 236.995927111434 490
0 0

0101101
*
Ed
 3.83139958919494e-07 1 1 0
1  45 0 1.38588044729948 2.20079437218445
2  105 23 0 1.38588044729948 2.20079437218445
2  106 12 0 1.38588044729948 2.20079437218445
0

0101000
+177 0 -175 0 *
Ve
5.75379260184986e-07
224.687377644494 213.004072888566 490
0 0

0101101
*
Ed
 5.75378260184985e-07 1 1 0
1  46 0 -0.235470304843381 0.235470304843381
2  107 24 0 -0.235470304843381 0.235470304843381
2  108 12 0 -0.235470304843381 0.235470304843381
0

0101000
+173 0 -175 0 *
Ve
7.13543403077551e-07
238.676607389144 210.407179493901 460
0 0

0101101
*
Ed
 3.83134315045107e-07 1 1 0
1  47 0 4.08239093499513 4.89730485988011
2  109 23 0 4.08239093499513 4.89730485988011
2  110 12 0 4.08239093499513 4.89730485988011
0

0101000
+173 0 -171 0 *
Ed
 7.13542403077551e-07 1 1 0
1  48 0 4.78472745212714 6.28318530717959
2  111 22 0 4.78472745212714 6.28318530717959
2  112 12 0 4.78472745212714 6.28318530717959
0

0101000
+171 0 -178 0 *
Wi

0101100
-176 0 -174 0 +172 0 -170 0 -169 0 *
Fa
0  1e-07 12 0

0101000
+179 0 +168 0 *
Ed
 1e-07 1 1 0
1  49 0 0 450
2  113 15 0 0 450
2  114 14 0 0 450
0

0101000
-225 0 +253 0 *
Wi

0101100
-252 0 -180 0 +224 0 +166 0 *
Fa
0  1e-07 14 0

0111000
+165 0 *
Ed
 1e-07 1 1 0
1  50 0 0 450
2  115 15 0 0 450
2  116 16 0 0 450
0

0101000
-223 0 +251 0 *
Wi

0101100
-163 0 -222 0 +250 0 +166 0 *
Ve
5.81012245460493e-07
254.018779958456 211.512583282085 420
0 0

0101101
*
Ve
1.00000056843419e-07
256.563437195574 225 414.542964944676
0 0

0101101
*
Ed
 1e-07 1 1 0
1  51 0 2.77404367791531 3.14159265358979
2  117 25 0 2.77404367791531 3.14159265358979
2  118 15 0 2.77404367791531 3.14159265358979
0

0101000
+161 0 -160 0 *
Ve
5.81016223234333e-07
254.018779958456 238.487416717915 420
0 0

0101101
*
Ed
 1e-07 1 1 0
1  52 0 3.14159265358979 3.50914162926427
2  119 25 0 3.14159265358979 3.50914162926427
2  120 15 0 3.14159265358979 3.50914162926427
0

0101000
+160 0 -158 0 *
Ve
5.81017223234334e-07
235.366473632256 242.103690374645 460
0 0

0101101
*
Ed
 5.81016223234333e-07 1 1 0
1  53 0 0.886035120808817 1.75949368049042
2  121 22 0 0.886035120808817 1.75949368049042
2  122 15 0 0.886035120808817 1.75949368049042
0

0101000
+158 0 -156 0 *
Ve
4.18765622953126e-07
221.377243887606 236.440089079641 490
0 0

0101101
*
Ed
 3.11738355155502e-07 1 1 0
1  54 0 1.64697262095377 2.4115156859558
2  123 23 0 1.64697262095377 2.4115156859558
2  124 15 0 1.64697262095377 2.4115156859558
0

0101000
+156 0 -154 0 *
Ve
4.18765622953126e-07
221.377243887606 213.559910920359 490
0 0

0101101
*
Ed
 4.18764622953126e-07 1 1 0
1  55 0 -0.176624692626854 0.176624692626854
2  125 24 0 -0.176624692626854 0.176624692626854
2  126 15 0 -0.176624692626854 0.176624692626854
0

0101000
+152 0 -154 0 *
Ve
5.81013217038784e-07
235.366473632256 207.896309625355 460
0 0

0101101
*
Ed
 3.11741741278901e-07 1 1 0
1  56 0 3.87166962122379 4.63621268622582
2  127 23 0 3.87166962122379 4.63621268622582
2  128 15 0 3.87166962122379 4.63621268622582
0

0101000
+152 0 -150 0 *
Ed
 5.81012217038784e-07 1 1 0
1  57 0 4.52369162668917 5.39715018637077
2  129 22 0 4.52369162668917 5.39715018637077
2  130 15 0 4.52369162668917 5.39715018637077
0

0101000
+150 0 -161 0 *
Wi

0101100
-159 0 -157 0 -155 0 -153 0 +151 0 -149 0 -148 0 *
Fa
0  1e-07 15 0

0101000
+162 0 +147 0 *
Wi

0101100
-249 0 -181 0 +221 0 +163 0 *
Fa
0  1e-07 16 0

0111000
+145 0 *
Ve
1e-07
260 225 175
0 0

0101101
*
Ve
1e-07
270 225 220
0 0

0101101
*
Ed
 1e-07 1 1 0
1  58 0 0 46.0977222864644
3  131 132CN 19 0 0 46.0977222864644
0

0101000
+143 0 -142 0 *
Ed
 1e-07 1 1 0
1  59 0 0 2.41657196261773
2  133 19 0 0 2.41657196261773
2  134 20 0 0 2.41657196261773
0

0101000
+142 0 -209 0 *
Ed
 1e-07 1 1 0
1  60 0 0 1.94206755541124
2  135 21 0 0 1.94206755541124
2  136 19 0 0 1.94206755541124
0

0101000
+143 0 -210 0 *
Wi

0101100
-141 0 -140 0 +208 0 +139 0 *
Fa
0  1e-07 19 0

0101000
+138 0 *
Ve
1e-07
255 225 270
0 0

0101101
*
Ed
 1e-07 1 1 0
1  61 0 0 52.2015325445527
3  137 138CN 20 0 0 52.2015325445527
0

0101000
+142 0 -136 0 *
Ed
 1e-07 1 1 0
1  62 0 0 6.28318530717959
2  139 20 0 0 6.28318530717959
2  140 26 0 0 6.28318530717959
0

0101000
+136 0 -136 0 *
Ed
 1e-07 1 1 0
1  59 0 3.86661334456185 6.28318530717959
2  133 19 0 3.86661334456185 6.28318530717959
2  134 20 0 3.86661334456185 6.28318530717959
0

0101000
+207 0 -142 0 *
Wi

0101100
-135 0 -134 0 +135 0 +133 0 +206 0 +140 0 *
Fa
0  1e-07 20 0

0101000
+132 0 *
Ed
 1e-07 1 1 0
1  60 0 4.34111775176834 6.28318530717959
2  135 21 0 4.34111775176834 6.28318530717959
2  136 19 0 4.34111775176834 6.28318530717959
0

0101000
+205 0 -143 0 *
Wi

0101100
+130 0 +204 0 -133 0 +141 0 *
Fa
0  1e-07 19 0

0101000
+129 0 *
Ed
 1e-07 1 1 0
1  63 0 1.21500584643931 46.0977222864644
3  141 142CN 21 0 1.21500584643931 46.0977222864644
0

0101000
+203 0 -143 0 *
Wi

0101100
-202 0 -130 0 +127 0 *
Fa
0  1e-07 21 0

0101000
+126 0 *
Wi

0101100
-127 0 -139 0 -201 0 *
Fa
0  1e-07 21 0

0101000
+124 0 *
Ed
 1e-07 1 1 0
1  59 0 2.53578809458006 3.74739721259952
2  133 19 0 2.53578809458006 3.74739721259952
2  134 20 0 2.53578809458006 3.74739721259952
0

0101000
+192 0 -190 0 *
Ed
 1e-07 1 1 0
1  60 0 2.04583809490331 4.23734721227627
2  135 21 0 2.04583809490331 4.23734721227627
2  136 19 0 2.04583809490331 4.23734721227627
0

0101000
+193 0 -188 0 *
Wi

0101100
-191 0 -122 0 -187 0 +121 0 *
Fa
0  1e-07 19 0

0101000
+120 0 *
Wi

0101100
-189 0 +122 0 *
Fa
0  1e-07 20 0

0101000
+118 0 *
Wi

0101100
-121 0 +186 0 *
Fa
0  1e-07 21 0

0101000
+116 0 *
Ve
1e-07
245 225 460
0 0

0101101
*
Ed
 1e-07 1 1 0
1  64 0 2.0648237376861 41.7612260356422
3  143 144CN 22 0 2.0648237376861 41.7612260356422
0

0101000
+178 0 -114 0 *
Ed
 1e-07 1 1 0
1  65 0 0 0.817796856518592
2  145 22 0 0 0.817796856518592
2  146 23 0 0 0.817796856518592
0

0101000
+114 0 -177 0 *
Wi

0101100
-113 0 -112 0 +176 0 *
Fa
0  1e-07 22 0

0101000
+111 0 *
Ve
1e-07
237 225 490
0 0

0101101
*
Ed
 1e-07 1 1 0
1  66 0 0 31.04834939252
3  147 148CN 23 0 0 31.04834939252
0

0101000
+114 0 -109 0 *
Ed
 1e-07 1 1 0
1  67 0 0 1.59685113755213
2  149 23 0 0 1.59685113755213
2  150 24 0 0 1.59685113755213
0

0101000
+109 0 -175 0 *
Wi

0101100
-108 0 -107 0 +174 0 +112 0 *
Fa
0  1e-07 23 0

0101000
+106 0 *
Ve
1e-07
225 225 515
0 0

0101101
*
Ed
 1e-07 1 1 0
1  68 0 0 27.7308492477241
3  151 152CN 24 0 0 27.7308492477241
0

0101000
+109 0 -104 0 *
Ed
 1e-07 1 1 1
2  153 24 0 0 6.28318530717959
0

0101000
+104 0 -104 0 *
Ed
 1e-07 1 1 0
1  67 0 4.68633416962745 6.28318530717959
2  149 23 0 4.68633416962745 6.28318530717959
2  150 24 0 4.68633416962745 6.28318530717959
0

0101000
+173 0 -109 0 *
Wi

0101100
-103 0 -102 0 +103 0 +101 0 -172 0 +107 0 *
Fa
0  1e-07 24 0

0101000
+100 0 *
Ed
 1e-07 1 1 0
1  65 0 5.46538845066099 6.28318530717959
2  145 22 0 5.46538845066099 6.28318530717959
2  146 23 0 5.46538845066099 6.28318530717959
0

0101000
+171 0 -114 0 *
Wi

0101100
+98 0 +170 0 -101 0 +108 0 *
Fa
0  1e-07 23 0

0101000
+97 0 *
Wi

0101100
+169 0 -98 0 +113 0 *
Fa
0  1e-07 22 0

0101000
+95 0 *
Ve
1e-07
253 225 370
0 0

0101101
*
Ed
 1e-07 1 1 0
1  69 0 0 44.6852750994044
3  154 155CN 25 0 0 44.6852750994044
0

0101000
+93 0 -160 0 *
Ed
 1e-07 1 1 0
1  70 0 0.435078701875737 5.84810660530385
2  156 25 0 0.435078701875737 5.84810660530385
2  157 22 0 0.435078701875737 5.84810660530385
0

0101000
+158 0 -161 0 *
Ed
 1e-07 1 1 0
1  71 0 0 6.28318530717959
2  158 27 0 0 6.28318530717959
2  159 25 0 0 6.28318530717959
0

0101000
+93 0 -93 0 *
Wi

0101100
-92 0 -157 0 -91 0 -159 0 +92 0 +90 0 *
Fa
0  1e-07 25 0

0101000
+89 0 *
Ed
 1e-07 1 1 0
1  65 0 1.02590672642037 5.25727858075922
2  145 22 0 1.02590672642037 5.25727858075922
2  146 23 0 1.02590672642037 5.25727858075922
0

0101000
+156 0 -150 0 *
Wi

0101100
-155 0 -87 0 -148 0 +91 0 *
Fa
0  1e-07 22 0

0101000
+86 0 *
Ed
 1e-07 1 1 0
1  67 0 1.87747751119523 4.40570779598436
2  149 23 0 1.87747751119523 4.40570779598436
2  150 24 0 1.87747751119523 4.40570779598436
0

0101000
+154 0 -152 0 *
Wi

0101100
-153 0 -84 0 -149 0 +87 0 *
Fa
0  1e-07 23 0

0101000
+83 0 *
Wi

0101100
+151 0 +84 0 *
Fa
0  1e-07 24 0

0101000
+81 0 *
Ve
1e-07
263 225 320
0 0

0101101
*
Ed
 1e-07 1 1 0
1  72 0 0 6.28318530717959
2  160 26 0 0 6.28318530717959
2  161 27 0 0 6.28318530717959
0

0101000
+79 0 -79 0 *
Ed
 1e-07 1 1 0
1  73 0 0 50.6359556046887
3  162 163CN 26 0 0 50.6359556046887
0

0101000
+136 0 -79 0 *
Wi

0101100
+134 0 -78 0 -77 0 +77 0 *
Fa
0  1e-07 26 0

0101000
+76 0 *
Ed
 1e-07 1 1 0
1  74 0 0 50.9901951359278
3  164 165CN 27 0 0 50.9901951359278
0

0101000
+79 0 -93 0 *
Wi

0101100
+78 0 -90 0 -74 0 +74 0 *
Fa
0  1e-07 27 0

0101000
+73 0 *
Sh

0101100
-272 0 -247 0 +242 0 +219 0 -216 0 +214 0 -199 0 -196 0 +184 0 +182 0 
-167 0 -164 0 +146 0 +144 0 -137 0 -131 0 -128 0 -125 0 -123 0 -119 0 
-117 0 -115 0 -110 0 -105 0 -99 0 -96 0 -94 0 -88 0 -85 0 -82 0 
-80 0 -75 0 -72 0 *
So

0100000
+71 0 *
Wi

0101100
-259 0 -261 0 +263 0 +258 0 *
Fa
0  1e-07 8 0

0111000
+69 0 *
Wi

0101100
-231 0 -233 0 +235 0 +230 0 *
Fa
0  1e-07 17 0

0111000
+67 0 *
Ed
 1e-07 1 1 0
1  59 0 2.41657196261773 2.53578809458006
2  133 19 0 2.41657196261773 2.53578809458006
2  134 20 0 2.41657196261773 2.53578809458006
0

0101000
+209 0 -192 0 *
Ed
 1e-07 1 1 0
1  60 0 1.94206755541124 2.04583809490331
2  135 21 0 1.94206755541124 2.04583809490331
2  136 19 0 1.94206755541124 2.04583809490331
0

0101000
+210 0 -193 0 *
Wi

0101100
-208 0 -65 0 +191 0 +64 0 *
Fa
0  1e-07 19 0

0101000
+63 0 *
Ed
 1e-07 1 1 0
1  59 0 3.74739721259952 3.86661334456185
2  133 19 0 3.74739721259952 3.86661334456185
2  134 20 0 3.74739721259952 3.86661334456185
0

0101000
+190 0 -207 0 *
Wi

0101100
-206 0 +61 0 +189 0 +65 0 *
Fa
0  1e-07 20 0

0101000
+60 0 *
Ed
 1e-07 1 1 0
1  60 0 4.23734721227627 4.34111775176834
2  135 21 0 4.23734721227627 4.34111775176834
2  136 19 0 4.23734721227627 4.34111775176834
0

0101000
+188 0 -205 0 *
Wi

0101100
+58 0 +187 0 -61 0 -204 0 *
Fa
0  1e-07 19 0

0101000
+57 0 *
Ve
1e-07
225 225 145
0 0

0101101
*
Ed
 1e-07 1 1 0
1  63 0 0 1.21500584643931
3  141 142CN 21 0 0 1.21500584643931
0

0101000
+55 0 -203 0 *
Ed
 1e-07 1 1 1
2  166 21 0 0 6.28318530717959
0

0101000
+55 0 -55 0 *
Wi

0101100
-54 0 +201 0 -64 0 -186 0 -58 0 +202 0 +54 0 +53 0 *
Fa
0  1e-07 21 0

0101000
+52 0 *
Sh

0101100
-68 0 -184 0 +196 0 +199 0 -182 0 +66 0 -62 0 -59 0 -56 0 -51 0 
*
So

0100000
+50 0 *
Wi

0101100
-250 0 -252 0 +254 0 +249 0 *
Fa
0  1e-07 13 0

0111000
+48 0 *
Wi

0101100
-222 0 -224 0 +226 0 +221 0 *
Fa
0  1e-07 18 0

0111000
+46 0 *
Ve
1e-07
257 225 420
0 0

0101101
*
Ed
 1e-07 1 1 0
1  70 0 5.84810660530385 6.28318530717959
2  156 25 0 5.84810660530385 6.28318530717959
2  157 22 0 5.84810660530385 6.28318530717959
0

0101000
+161 0 -44 0 *
Ed
 1e-07 1 1 0
1  69 0 44.6852750994044 50.1597448159378
3  154 155CN 25 0 44.6852750994044 50.1597448159378
0

0101000
+160 0 -44 0 *
Wi

0101100
+159 0 -43 0 +42 0 *
Fa
0  1e-07 25 0

0101000
+41 0 *
Ed
 1e-07 1 1 0
1  70 0 0 0.435078701875737
2  156 25 0 0 0.435078701875737
2  157 22 0 0 0.435078701875737
0

0101000
+44 0 -158 0 *
Wi

0101100
-42 0 -39 0 +157 0 *
Fa
0  1e-07 25 0

0101000
+38 0 *
Ed
 1e-07 1 1 0
1  64 0 0 2.0648237376861
3  143 144CN 22 0 0 2.0648237376861
0

0101000
+44 0 -178 0 *
Ed
 1e-07 1 1 0
1  65 0 0.817796856518592 1.02590672642037
2  145 22 0 0.817796856518592 1.02590672642037
2  146 23 0 0.817796856518592 1.02590672642037
0

0101000
+177 0 -156 0 *
Wi

0101100
-36 0 -176 0 -35 0 +155 0 +39 0 *
Fa
0  1e-07 22 0

0101000
+34 0 *
Ed
 1e-07 1 1 0
1  67 0 1.59685113755213 1.87747751119523
2  149 23 0 1.59685113755213 1.87747751119523
2  150 24 0 1.59685113755213 1.87747751119523
0

0101000
+175 0 -154 0 *
Wi

0101100
-174 0 -32 0 +153 0 +35 0 *
Fa
0  1e-07 23 0

0101000
+31 0 *
Ed
 1e-07 1 1 0
1  67 0 4.40570779598436 4.68633416962745
2  149 23 0 4.40570779598436 4.68633416962745
2  150 24 0 4.40570779598436 4.68633416962745
0

0101000
+152 0 -173 0 *
Wi

0101100
+172 0 +29 0 -151 0 +32 0 *
Fa
0  1e-07 24 0

0101000
+28 0 *
Ed
 1e-07 1 1 0
1  65 0 5.25727858075922 5.46538845066099
2  145 22 0 5.25727858075922 5.46538845066099
2  146 23 0 5.25727858075922 5.46538845066099
0

0101000
+150 0 -171 0 *
Wi

0101100
+26 0 +149 0 -29 0 -170 0 *
Fa
0  1e-07 23 0

0101000
+25 0 *
Wi

0101100
+43 0 +148 0 -26 0 -169 0 +36 0 *
Fa
0  1e-07 22 0

0101000
+23 0 *
Sh

0101100
-47 0 -146 0 +164 0 +167 0 -144 0 +45 0 -40 0 -37 0 -33 0 -30 0 
-27 0 -24 0 -22 0 *
So

0100000
+21 0 *
Wi

0101100
+169 0 +170 0 -172 0 +174 0 +176 0 *
Fa
0  1e-07 12 0

0101000
+19 0 *
Wi

0101100
+148 0 +149 0 -151 0 +153 0 +155 0 +157 0 +159 0 *
Fa
0  1e-07 15 0

0101000
+17 0 *
Sh

0101100
+18 0 +22 0 +24 0 +27 0 +30 0 +33 0 +40 0 -16 0 +37 0 *
So

0100000
+15 0 *
Wi

0101100
-201 0 -202 0 +204 0 +206 0 +208 0 *
Fa
0  1e-07 7 0

0101000
+13 0 *
Wi

0101100
-186 0 +187 0 +189 0 +191 0 *
Fa
0  1e-07 10 0

0101000
+11 0 *
Sh

0101100
+12 0 +51 0 +56 0 +59 0 +62 0 -10 0 *
So

0100000
+9 0 *
Ed
 1e-07 1 1 0
1  63 0 0 46.0977222864644
3  141 142CN 21 0 0 46.0977222864644
0

0101000
+55 0 -143 0 *
Ed
 1e-07 1 1 0
1  69 0 0 50.1597448159378
3  154 155CN 25 0 0 50.1597448159378
0

0101000
+93 0 -44 0 *
Ed
 1e-07 1 1 0
1  64 0 0 41.7612260356422
3  143 144CN 22 0 0 41.7612260356422
0

0101000
+44 0 -114 0 *
Ed
 1e-07 1 1 0
1  75 0 0 370
0

0101000
+104 0 -55 0 *
Wi

0101100
+7 0 +141 0 +135 0 +77 0 +74 0 +6 0 +5 0 +108 0 +103 0 +4 0 
*
Fa
0  1e-07 28 0

0111000
+3 0 *
Co

1100000
+70 0 +49 0 +20 0 +14 0 +8 0 +2 0 *

+1 0 