DBRep_DrawableShape

CASCADE Topology V1, (c) Matra-Datavision
Locations 0
Curve2ds 38
1 0 0 1 0 
1 0 0 1 0 
1 660 0 0 -1 
1 0 0 0 1 
1 0 -450 1 0 
1 0 0 1 0 
1 0 0 0 -1 
1 0 0 0 1 
1 0 0 0 1 
1 0 0 1 0 
1 0 0 1 0 
1 0 450 1 0 
1 660 0 0 1 
1 0 0 1 0 
1 660 0 0 1 
1 0 450 1 0 
1 660 0 0 -1 
1 450 0 0 1 
1 0 0 0 1 
1 0 450 1 0 
1 0 -450 1 0 
1 0 450 1 0 
1 0 0 0 -1 
1 450 0 0 1 
1 0 0 1 0 
2 0 0 1 0 -0 1 47.996425000000002
1 0 0 1 0 
1 6.2831853071795862 -6.2831853071795862 0 1 
1 0 -6.2831853071795862 0 1 
1 0 -1.5707963267948966 1 0 
1 0 102.270532 1 0 
2 0 0 1 0 -0 1 47.996425000000002
1 0 0 1 0 
1 6.2831853071795862 -0 0 1 
1 0 -0 0 1 
1 6.2831853071795862 -6.2831853071795862 0 1 
1 0 -6.2831853071795862 0 1 
1 0 1.5707963267948966 1 0 
Curves 17
1 0 0 0 0 0 1 
1 0 0 660 -0 1 0 
1 0 450 0 0 0 1 
1 0 0 0 -0 1 0 
1 0 0 0 1 0 -0 
1 450 0 0 0 0 1 
1 0 0 660 1 0 -0 
1 0 450 660 1 0 -0 
1 450 0 660 -0 1 0 
1 0 450 0 1 0 -0 
1 450 450 0 0 0 1 
1 450 0 0 -0 1 0 
2 225 225 242.94761099999999 0 0 1 1 0 -0 -0 1 0 47.996425000000002
2 225 225 242.94761099999999 -2.4492935982947064e-16 -1 0 1 -2.4492935982947064e-16 0 0 0 1 47.996425000000002
2 225 225 345.218143 0 0 1 1 0 -0 -0 1 0 47.996425000000002
1 272.99642499999999 225 242.94761099999999 0 0 1 
2 225 225 345.218143 -2.4492935982947064e-16 -1 0 1 -2.4492935982947064e-16 0 0 0 1 47.996425000000002
Polygon3D 0
PolygonOnTriangulations 0
Surfaces 11
1 0 0 0 1 0 -0 0 0 1 0 -1 0 
1 0 0 0 -0 1 0 0 0 1 1 0 -0 
1 0 0 660 0 0 1 1 0 -0 -0 1 0 
1 0 450 0 -0 1 0 0 0 1 1 0 -0 
1 0 0 0 0 0 1 1 0 -0 -0 1 0 
1 450 0 0 1 0 -0 0 0 1 0 -1 0 
4 225 225 242.94761099999999 0 0 1 1 0 -0 -0 1 0 47.996425000000002
2 225 225 242.94761099999999 0 0 1 1 0 -0 -0 1 0 47.996425000000002
1 225 225 242.94761099999999 0 0 1 1 0 -0 -0 1 0 
1 225 225 345.218143 0 0 1 1 0 -0 -0 1 0 
4 225 225 345.218143 0 0 1 1 0 -0 -0 1 0 47.996425000000002
Triangulations 0

TShapes 53
Ve
1e-07
0 0 660
0 0

0101101
*
Ve
1e-07
0 0 0
0 0

0101101
*
Ed
 1e-07 1 1 0
1  1 0 0 660
2  1 1 0 0 660
2  2 2 0 0 660
0

0101000
-53 0 +52 0 *
Ve
1e-07
0 450 660
0 0

0101101
*
Ed
 1e-07 1 1 0
1  2 0 0 450
2  3 1 0 0 450
2  4 3 0 0 450
0

0101000
-50 0 +53 0 *
Ve
1e-07
0 450 0
0 0

0101101
*
Ed
 1e-07 1 1 0
1  3 0 0 660
2  5 1 0 0 660
2  6 4 0 0 660
0

0101000
-50 0 +48 0 *
Ed
 1e-07 1 1 0
1  4 0 0 450
2  7 1 0 0 450
2  8 5 0 0 450
0

0101000
-48 0 +52 0 *
Wi

0101100
-51 0 -49 0 +47 0 +46 0 *
Fa
0  1e-07 1 0

0111000
+45 0 *
Ve
1e-07
450 0 0
0 0

0101101
*
Ed
 1e-07 1 1 0
1  5 0 0 450
2  9 2 0 0 450
2  10 5 0 0 450
0

0101000
-43 0 +52 0 *
Ve
1e-07
450 0 660
0 0

0101101
*
Ed
 1e-07 1 1 0
1  6 0 0 660
2  11 6 0 0 660
2  12 2 0 0 660
0

0101000
-41 0 +43 0 *
Ed
 1e-07 1 1 0
1  7 0 0 450
2  13 2 0 0 450
2  14 3 0 0 450
0

0101000
-41 0 +53 0 *
Wi

0101100
-42 0 -40 0 +39 0 +51 0 *
Fa
0  1e-07 2 0

0111000
+38 0 *
Ve
1e-07
450 450 660
0 0

0101101
*
Ed
 1e-07 1 1 0
1  8 0 0 450
2  15 4 0 0 450
2  16 3 0 0 450
0

0101000
-36 0 +50 0 *
Ed
 1e-07 1 1 0
1  9 0 0 450
2  17 6 0 0 450
2  18 3 0 0 450
0

0101000
-36 0 +41 0 *
Wi

0101100
-49 0 -35 0 +34 0 +39 0 *
Fa
0  1e-07 3 0

0111000
+33 0 *
Ve
1e-07
450 450 0
0 0

0101101
*
Ed
 1e-07 1 1 0
1  10 0 0 450
2  19 4 0 0 450
2  20 5 0 0 450
0

0101000
-31 0 +48 0 *
Ed
 1e-07 1 1 0
1  11 0 0 660
2  21 6 0 0 660
2  22 4 0 0 660
0

0101000
-36 0 +31 0 *
Wi

0101100
-30 0 -29 0 +35 0 +47 0 *
Fa
0  1e-07 4 0

0111000
+28 0 *
Ed
 1e-07 1 1 0
1  12 0 0 450
2  23 6 0 0 450
2  24 5 0 0 450
0

0101000
-31 0 +43 0 *
Wi

0101100
-46 0 -30 0 +26 0 +42 0 *
Fa
0  1e-07 5 0

0111000
+25 0 *
Wi

0101100
-40 0 -34 0 +29 0 +26 0 *
Fa
0  1e-07 6 0

0111000
+23 0 *
Sh

0101100
-44 0 -37 0 +32 0 +27 0 -24 0 +22 0 *
Ve
1.16800774208059e-06
272.996425 225 242.947611
0 0

0101101
*
Ed
 1.00000028421709e-07 1 1 0
1  13 0 0 6.28318530717959
2  25 8 0 0 6.28318530717959
2  26 9 0 0 6.28318530717959
2  27 7 0 0 6.28318530717959
0

0101000
+20 0 -20 0 *
Ve
1e-07
225 225 194.951186
0 0

0101101
*
Ed
 1e-07 1 1 0
1  14 0 4.71238898038469 6.28318530717959
3  28 29CN 7 0 4.71238898038469 6.28318530717959
0

0101000
+18 0 -20 0 *
Ed
 1e-07 1 1 1
2  30 7 0 0 6.28318530717959
0

0101000
+18 0 -18 0 *
Wi

0101100
-19 0 +17 0 +16 0 -17 0 *
Fa
0  1e-07 7 0

0101000
+15 0 *
Ve
1.1680077705023e-06
272.996425 225 345.218143
0 0

0101101
*
Ed
 1.00000028421709e-07 1 1 0
1  15 0 0 6.28318530717959
2  31 8 0 0 6.28318530717959
2  32 10 0 0 6.28318530717959
2  33 11 0 0 6.28318530717959
0

0101000
+13 0 -13 0 *
Ed
 1e-07 1 1 0
1  16 0 0 102.270532
3  34 35CN 8 0 0 102.270532
0

0101000
-13 0 +20 0 *
Wi

0101100
-12 0 +11 0 +19 0 -11 0 *
Fa
0  1e-07 8 0

0111000
+10 0 *
Ve
1e-07
225 225 393.214568
0 0

0101101
*
Ed
 1e-07 1 1 0
1  17 0 6.28318530717959 7.85398163397448
3  36 37CN 11 0 6.28318530717959 7.85398163397448
0

0101000
+13 0 -8 0 *
Ed
 1e-07 1 1 1
2  38 11 0 0 6.28318530717959
0

0101000
+8 0 -8 0 *
Wi

0101100
+7 0 +12 0 -7 0 -6 0 *
Fa
0  1e-07 11 0

0101000
+5 0 *
Sh

0101100
-14 0 -9 0 -4 0 *
So

0100000
+21 0 +3 0 *
Co

1100000
+2 0 *

+1 0 