DBRep_DrawableShape

CASCADE Topology V1, (c) Matra-Datavision
Locations 0
Curve2ds 82
1 0 0 1 0 
1 0 0 1 0 
1 472.65454598697022 210.81325560185758 0.4226182617406995 0.90630778703664994 
1 0 0 0 1 
1 3.0000000000000382 0 0 -1 
1 0 -450 1 0 
1 0 0 1 0 
1 472.65454598697022 210.81325560185758 0.4226182617406995 0.90630778703664994 
1 0 0 0 1 
1 0 0 0 -1 
1 0 0 1 0 
1 4.2632564145606011e-14 249.99999999999997 1 0 
1 246.07759922780778 316.46782103703248 0.4226182617406995 0.90630778703664994 
1 249.99999999999994 0 0 1 
1 2.9999999999999885 0 0 -1 
1 0 -450 1 0 
1 4.2632564145606011e-14 249.99999999999997 1 0 
1 246.07759922780778 316.46782103703248 0.4226182617406995 0.90630778703664994 
1 249.99999999999997 0 0 1 
1 0 0 0 -1 
1 0 0 1 0 
1 0 0 0 1 
1 472.65454598697022 210.81325560185758 -0.90630778703664994 0.4226182617406995 
1 0 0 1 0 
1 3.00000000000004 3.4194869158454821e-14 0 1 
1 473.9224007721923 213.53217896296758 -0.90630778703664994 0.4226182617406995 
1 0 450 1 0 
1 0 0 0 1 
1 472.65454598697022 210.81325560185758 -0.90630778703664994 0.4226182617406995 
1 0 450 1 0 
1 3.00000000000004 3.4194869158454821e-14 0 1 
1 473.9224007721923 213.53217896296758 -0.90630778703664994 0.4226182617406995 
7 0 0  6 7 2  5.9424970160428163 102.27053260000014  5.9992783978989443 100.31769808297638  6.0560597797550724 98.740201407382301  6.1128411616112075 97.5493756150845  6.1696225434673284 96.752923764590378  6.2264039253234582 96.354697873435555  6.2831853071795862 96.354697873435555 
 2.8009043624530232 7 3.1415926535897931 7
3 33.568697054664476 225 -1 0 -0 -1 113.56921682066015 47.996425000000002
3 33.56869705466449 225 -1 0 -0 -1 113.56921682066017 47.996424999999988
7 0 0  6 7 2  0 96.354697873435555  0.05678138185612832 96.354697873435555  0.11356276371225782 96.752923764589468  0.17034414556837874 97.549375615086319  0.22712552742451386 98.740201407382301  0.28390690928064172 100.31769808297632  0.34068829113677007 102.27053260000008 
 3.1415926535897931 7 3.482280944726563 7
3 33.568697054664476 225 -1 0 -0 -1 113.56921682066015 47.996425000000002
3 33.56869705466449 225 -1 0 -0 -1 113.56921682066017 47.996424999999988
7 0 0  8 37 6  0.34068827369093024 -1.1843261005545309e-15  0.37296059343836596 0.023124947605399966  0.40350897896869342 0.048655764165414755  0.43217671129324309 0.076405836115637005  0.45883995908008046 0.10617498319497543  0.48339937736398397 0.13775790533712673  0.5057670246292375 0.17094906592004783  0.52585151885323655 0.20554393823755404  0.55681397878316008 0.26818099492188202  0.56873829314770297 0.29569917054996148  0.57927147962928127 0.3238041899957313  0.5883622483710208 0.35240870103626754  0.5959503791006574 0.38142438225014241  0.60196315933457401 0.41076077364728308  0.60631171790764637 0.44032343384994382  0.61275055771077458 0.51454340878706839  0.61262459032803918 0.55935740301379155  0.60814208733336272 0.60411246691342058  0.59883643899547678 0.64843564468583281  0.58411043929049811 0.69189772633671964  0.56323040593690621 0.73399443071104997  0.53529542001217312 0.77408272783823984  0.4817701818627052 0.83003451126105177  0.46199130601905836 0.84798833499667126  0.44018860169376239 0.86514808854053626  0.41628819737479716 0.88140804787781235  0.39024080730882815 0.89665446669141602  0.36203801860136764 0.9107669153598863  0.3317384201252862 0.92362339140196781  0.26722149408790502 0.9465936851776392  0.23300417030131371 0.9567075043580644  0.19696588257130543 0.96533461287617683  0.1593241146923674 0.97236633810916828  0.12038711714450301 0.97770838020778683  0.080556082841638954 0.98129238368210281  0.040278042245362154 0.98308439619243615  0 0.98308439619243615 
 3.8395752566712287 9 4.4504777692983168 7 4.9086546537686333 7 5.5959199804741102 7 5.9395526438268487 7 6.2831853071795862 9
2 121.49218163633429 225 -1 0 -0 -1 24.954087614276052
2 121.49218163633429 225 -1 0 -0 -1 24.95408761427603
7 0 0  8 37 6  6.2831853071795862 0.98308439619243615  6.247382602961487 0.98308439619243615  6.2115798984874502 0.98166848609048429  6.1760911506252327 0.97883667361747939  6.141230286227163 0.97461018006561062  6.1072858929866456 0.96903160709462099  6.0744949364833403 0.9621609432342666  6.0430384626147102 0.95406940891130421  5.9868011409804538 0.93675439370357638  5.9616773437730757 0.92779883695759713  5.9377601199900045 0.9180201233804226  5.9151050286673765 0.90747414008598071  5.8937391770800378 0.89621799117998435  5.8736669382725202 0.884308067728655  5.8548763993599531 0.87179880779191699  5.8066618342877563 0.8358930153068771  5.7798323544776302 0.81136746402702509  5.7567286171627075 0.78544398931891379  5.7371130255872842 0.75837691887517167  5.7207209145915066 0.73038786672301015  5.7072983316036208 0.70166895142180841  5.696613196602204 0.67239001281384336  5.6762281894165518 0.59817011454167057  5.6696922793019198 0.55271791604656073  5.6681550117544006 0.50685557038104889  5.6710521095308408 0.46100000416299736  5.6779733986689038 0.41551309379087797  5.6886077553822574 0.37072861930494128  5.7027218969342304 0.32696655203507458  5.7375316492042163 0.24211627176222078  5.7582272557057816 0.2010280501727035  5.782024934292755 0.16159126146774216  5.8087806114330292 0.12411470743632691  5.8383673709748329 0.088909385096495264  5.8706452447220183 0.056288232162230264  5.9054342912787101 0.026557557015576719  5.9424970334886558 -1.1843261005545305e-15 
 0 9 0.30545125631354381 7 0.57272110558789424 7 1.040443341818011 7 1.7420266961631845 7 2.4436100505083576 9
2 121.49218163633429 225 -1 0 -0 -1 24.954087614276052
2 121.49218163633429 225 -1 0 -0 -1 24.95408761427603
1 0 0 1 0 
1 0 0 1 0 
1 660 0 0 -1 
1 0 0 0 1 
1 0 -450 1 0 
1 0 0 1 0 
1 0 0 0 -1 
1 0 0 0 1 
1 0 0 0 1 
1 0 0 1 0 
1 0 0 1 0 
1 0 450 1 0 
1 660 0 0 1 
1 0 0 1 0 
1 660 0 0 1 
1 0 450 1 0 
1 660 0 0 -1 
1 450 0 0 1 
1 0 0 0 1 
1 0 450 1 0 
1 0 -450 1 0 
1 0 450 1 0 
1 0 0 0 -1 
1 450 0 0 1 
1 0 102.270532 1 0 
2 0 0 1 0 -0 1 47.996425000000002
1 0 0 1 0 
1 6.2831853071795862 -0 0 1 
1 0 -0 0 1 
1 0 0 1 0 
2 0 0 1 0 -0 1 47.996425000000002
1 0 0 1 0 
1 6.2831853071795862 -6.2831853071795862 0 1 
1 0 -6.2831853071795862 0 1 
1 0 1.5707963267948966 1 0 
1 6.2831853071795862 -6.2831853071795862 0 1 
1 0 -6.2831853071795862 0 1 
1 0 -1.5707963267948966 1 0 
Curves 33
1 210.81325560185758 0 472.65454598697022 0.90630778703664994 0 0.4226182617406995 
1 213.53217896296758 0 473.9224007721923 0 1 0 
1 210.81325560185758 450 472.65454598697022 0.90630778703664994 0 0.4226182617406995 
1 210.81325560185758 0 472.65454598697022 0 1 0 
1 316.46782103703248 0 246.07759922780778 0.90630778703664994 0 0.4226182617406995 
1 319.18674439814242 0 247.34545401302987 0 1 0 
1 316.46782103703248 450 246.07759922780778 0.90630778703664994 0 0.4226182617406995 
1 316.46782103703248 0 246.07759922780778 0 1 0 
1 210.81325560185758 0 472.65454598697022 0.4226182617406995 0 -0.90630778703664994 
1 213.53217896296758 0 473.9224007721923 0.4226182617406995 0 -0.90630778703664994 
1 210.81325560185758 450 472.65454598697022 0.4226182617406995 0 -0.90630778703664994 
1 213.53217896296758 450 473.9224007721923 0.4226182617406995 0 -0.90630778703664994 
3 225 225 442.23097444565354 0.90630778703664994 0 0.4226182617406995 -0.4226182617406995 0 0.90630778703664994 0 -1 0 113.56921682066015 47.996425000000002
3 225 225 442.23097444565354 0.90630778703664994 0 0.4226182617406995 -0.4226182617406995 0 0.90630778703664994 0 -1 0 113.56921682066015 47.996425000000002
2 262.15807022009051 225 362.54523570588935 0.90630778703664994 0 0.4226182617406995 -0.4226182617406995 0 0.90630778703664994 0 -1 0 24.954087614276052
2 262.15807022009051 225 362.54523570588935 0.90630778703664994 0 0.4226182617406995 -0.4226182617406995 0 0.90630778703664994 0 -1 0 24.954087614276052
1 0 0 0 0 0 1 
1 0 0 660 -0 1 0 
1 0 450 0 0 0 1 
1 0 0 0 -0 1 0 
1 0 0 0 1 0 -0 
1 450 0 0 0 0 1 
1 0 0 660 1 0 -0 
1 0 450 660 1 0 -0 
1 450 0 660 -0 1 0 
1 0 450 0 1 0 -0 
1 450 450 0 0 0 1 
1 450 0 0 -0 1 0 
2 225 225 345.218143 0 0 1 1 0 -0 -0 1 0 47.996425000000002
1 272.99642499999999 225 242.94761099999999 0 0 1 
2 225 225 242.94761099999999 0 0 1 1 0 -0 -0 1 0 47.996425000000002
2 225 225 345.218143 -2.4492935982947064e-16 -1 0 1 -2.4492935982947064e-16 0 0 0 1 47.996425000000002
2 225 225 242.94761099999999 -2.4492935982947064e-16 -1 0 1 -2.4492935982947064e-16 0 0 0 1 47.996425000000002
Polygon3D 0
PolygonOnTriangulations 0
Surfaces 18
1 210.81325560185758 0 472.65454598697022 0.4226182617406995 0 -0.90630778703664994 0.90630778703664994 0 0.4226182617406995 0 -1 0 
1 210.81325560185758 0 472.65454598697022 0 1 0 0.90630778703664994 0 0.4226182617406995 0.4226182617406995 0 -0.90630778703664994 
1 0 0 0 -0 1 0 0 0 1 1 0 -0 
1 213.53217896296758 0 473.9224007721923 0.90630778703664994 0 0.4226182617406995 0.4226182617406995 0 -0.90630778703664994 0 1 0 
1 210.81325560185758 450 472.65454598697022 0 1 0 0.90630778703664994 0 0.4226182617406995 0.4226182617406995 0 -0.90630778703664994 
1 0 450 0 -0 1 0 0 0 1 1 0 -0 
1 210.81325560185758 0 472.65454598697022 0.90630778703664994 0 0.4226182617406995 0.4226182617406995 0 -0.90630778703664994 0 1 0 
1 316.46782103703248 0 246.07759922780778 0.4226182617406995 0 -0.90630778703664994 0.90630778703664994 0 0.4226182617406995 0 -1 0 
2 225 225 242.94761099999999 0 0 1 1 0 -0 -0 1 0 47.996425000000002
1 210.81325560185758 0 472.65454598697022 0.90630778703664994 0 0.4226182617406995 0.4226182617406995 0 -0.90630778703664994 0 1 0 
4 225 225 345.218143 0 0 1 1 0 -0 -0 1 0 47.996425000000002
1 0 0 0 1 0 -0 0 0 1 0 -1 0 
1 0 0 660 0 0 1 1 0 -0 -0 1 0 
1 0 0 0 0 0 1 1 0 -0 -0 1 0 
1 450 0 0 1 0 -0 0 0 1 0 -1 0 
1 225 225 345.218143 0 0 1 1 0 -0 -0 1 0 
1 225 225 242.94761099999999 0 0 1 1 0 -0 -0 1 0 
4 225 225 242.94761099999999 0 0 1 1 0 -0 -0 1 0 47.996425000000002
Triangulations 0

TShapes 98
Ve
1e-07
213.532178962968 0 473.922400772192
0 0

0101101
*
Ve
1e-07
210.813255601858 0 472.65454598697
0 0

0101101
*
Ed
 1e-07 1 1 0
1  1 0 0 3
2  1 1 0 0 3
2  2 2 0 0 3
2  3 3 0 0 3
0

0101000
-98 0 +97 0 *
Ve
1e-07
213.532178962968 450 473.922400772192
0 0

0101101
*
Ed
 1e-07 1 1 0
1  2 0 0 450
2  4 4 0 0 450
2  5 1 0 0 450
0

0101000
-95 0 +98 0 *
Ve
1e-07
210.813255601858 450 472.65454598697
0 0

0101101
*
Ed
 1e-07 1 1 0
1  3 0 0 3
2  6 1 0 0 3
2  7 5 0 0 3
2  8 6 0 0 3
0

0101000
-95 0 +93 0 *
Ed
 1e-07 1 1 0
1  4 0 0 450
2  9 7 0 0 450
2  10 1 0 0 450
0

0101000
-93 0 +97 0 *
Wi

0101100
-96 0 -94 0 +92 0 +91 0 *
Fa
0  1e-07 1 0

0111000
+90 0 *
Ve
1e-07
319.186744398142 0 247.34545401303
0 0

0101101
*
Ve
1e-07
316.467821037032 0 246.077599227808
0 0

0101101
*
Ed
 1e-07 1 1 0
1  5 0 0 3
2  11 8 0 0 3
2  12 2 0 0 3
2  13 3 0 0 3
0

0101000
-88 0 +87 0 *
Ve
1e-07
319.186744398142 450 247.34545401303
0 0

0101101
*
Ed
 1e-07 1 1 0
1  6 0 0 450
2  14 4 0 0 450
2  15 8 0 0 450
0

0101000
-85 0 +88 0 *
Ve
1e-07
316.467821037032 450 246.077599227808
0 0

0101101
*
Ed
 1e-07 1 1 0
1  7 0 0 3
2  16 8 0 0 3
2  17 5 0 0 3
2  18 6 0 0 3
0

0101000
-85 0 +83 0 *
Ed
 1e-07 1 1 0
1  8 0 0 450
2  19 7 0 0 450
2  20 8 0 0 450
0

0101000
-83 0 +87 0 *
Wi

0101100
-86 0 -84 0 +82 0 +81 0 *
Fa
0  1e-07 8 0

0111000
+80 0 *
Ed
 1e-07 1 1 0
1  9 0 0 250
2  21 7 0 0 250
2  22 2 0 0 250
2  23 3 0 0 250
0

0101000
-87 0 +97 0 *
Ed
 1e-07 1 1 0
1  10 0 0 250
2  24 4 0 0 250
2  25 2 0 0 250
2  26 3 0 0 250
0

0101000
-88 0 +98 0 *
Wi

0101100
-78 0 -86 0 +77 0 +96 0 *
Fa
0  1e-07 2 0

0111000
+76 0 *
Ed
 1e-07 1 1 0
1  11 0 0 250
2  27 7 0 0 250
2  28 5 0 0 250
2  29 6 0 0 250
0

0101000
-83 0 +93 0 *
Ed
 1e-07 1 1 0
1  12 0 0 250
2  30 4 0 0 250
2  31 5 0 0 250
2  32 6 0 0 250
0

0101000
-85 0 +95 0 *
Wi

0101100
-74 0 -82 0 +73 0 +92 0 *
Fa
0  1e-07 5 0

0111000
+72 0 *
Wi

0101100
-91 0 -74 0 +78 0 +81 0 *
Ve
1.26825931182665e-07
270.237826242408 208.962671991809 345.218143
0 0

0101101
*
Ve
1.00000056843419e-07
272.996425 225 339.302308873436
0 0

0101101
*
Ed
 1.00000056843419e-07 1 1 0
1  13 0 2.80090437989886 3.14159265358979
2  33 9 0 2.80090437989886 3.14159265358979
2  34 10 0 2.80090437989886 3.14159265358979
2  35 7 0 2.80090437989886 3.14159265358979
0

0101000
+69 0 -68 0 *
Ve
1.00000063552874e-07
270.237826242408 241.037328008191 345.218143
0 0

0101101
*
Ed
 1.00000056843419e-07 1 1 0
1  14 0 3.14159265358979 3.48228092728072
2  36 9 0 3.14159265358979 3.48228092728072
2  37 10 0 3.14159265358979 3.48228092728072
2  38 7 0 3.14159265358979 3.48228092728072
0

0101000
+68 0 -66 0 *
Ve
1.2682590763735e-07
251.61201708922 225 385.161319629103
0 0

0101101
*
Ed
 1e-07 1 1 0
1  15 0 3.83957525667123 6.28318530717959
2  39 11 0 3.83957525667123 6.28318530717959
2  40 10 0 3.83957525667123 6.28318530717959
2  41 7 0 3.83957525667123 6.28318530717959
0

0101000
+66 0 -64 0 *
Ed
 1.26825850793931e-07 1 1 0
1  16 0 0 2.44361005050836
2  42 11 0 0 2.44361005050836
2  43 10 0 0 2.44361005050836
2  44 7 0 0 2.44361005050836
0

0101000
+64 0 -69 0 *
Wi

0101100
-67 0 -65 0 -63 0 -62 0 *
Fa
0  1e-07 7 0

0101000
+70 0 +61 0 *
Wi

0101100
+62 0 +63 0 +65 0 +67 0 *
Fa
0  1e-07 10 0

0101000
+59 0 *
Wi

0101100
-94 0 -73 0 +84 0 +77 0 *
Fa
0  1e-07 4 0

0111000
+57 0 *
Sh

0101100
-89 0 +79 0 -75 0 +71 0 -60 0 -58 0 +56 0 *
So

0100000
+55 0 *
Ve
1e-07
0 0 660
0 0

0101101
*
Ve
1e-07
0 0 0
0 0

0101101
*
Ed
 1e-07 1 1 0
1  17 0 0 660
2  45 12 0 0 660
2  46 3 0 0 660
0

0101000
-53 0 +52 0 *
Ve
1e-07
0 450 660
0 0

0101101
*
Ed
 1e-07 1 1 0
1  18 0 0 450
2  47 12 0 0 450
2  48 13 0 0 450
0

0101000
-50 0 +53 0 *
Ve
1e-07
0 450 0
0 0

0101101
*
Ed
 1e-07 1 1 0
1  19 0 0 660
2  49 12 0 0 660
2  50 6 0 0 660
0

0101000
-50 0 +48 0 *
Ed
 1e-07 1 1 0
1  20 0 0 450
2  51 12 0 0 450
2  52 14 0 0 450
0

0101000
-48 0 +52 0 *
Wi

0101100
-51 0 -49 0 +47 0 +46 0 *
Fa
0  1e-07 12 0

0111000
+45 0 *
Ve
1e-07
450 0 0
0 0

0101101
*
Ed
 1e-07 1 1 0
1  21 0 0 450
2  53 3 0 0 450
2  54 14 0 0 450
0

0101000
-43 0 +52 0 *
Ve
1e-07
450 0 660
0 0

0101101
*
Ed
 1e-07 1 1 0
1  22 0 0 660
2  55 15 0 0 660
2  56 3 0 0 660
0

0101000
-41 0 +43 0 *
Ed
 1e-07 1 1 0
1  23 0 0 450
2  57 3 0 0 450
2  58 13 0 0 450
0

0101000
-41 0 +53 0 *
Wi

0101100
-42 0 -40 0 +51 0 +39 0 *
Wi

0101100
-77 0 +86 0 +78 0 -96 0 *
Fa
0  1e-07 3 0

0101000
+38 0 +37 0 *
Ve
1e-07
450 450 660
0 0

0101101
*
Ed
 1e-07 1 1 0
1  24 0 0 450
2  59 6 0 0 450
2  60 13 0 0 450
0

0101000
-35 0 +50 0 *
Ed
 1e-07 1 1 0
1  25 0 0 450
2  61 15 0 0 450
2  62 13 0 0 450
0

0101000
-35 0 +41 0 *
Wi

0101100
-49 0 -34 0 +33 0 +39 0 *
Fa
0  1e-07 13 0

0111000
+32 0 *
Ve
1e-07
450 450 0
0 0

0101101
*
Ed
 1e-07 1 1 0
1  26 0 0 450
2  63 6 0 0 450
2  64 14 0 0 450
0

0101000
-30 0 +48 0 *
Ed
 1e-07 1 1 0
1  27 0 0 660
2  65 15 0 0 660
2  66 6 0 0 660
0

0101000
-35 0 +30 0 *
Wi

0101100
-29 0 -28 0 +47 0 +34 0 *
Wi

0101100
-73 0 +82 0 +74 0 -92 0 *
Fa
0  1e-07 6 0

0101000
+27 0 +26 0 *
Ed
 1e-07 1 1 0
1  28 0 0 450
2  67 15 0 0 450
2  68 14 0 0 450
0

0101000
-30 0 +43 0 *
Wi

0101100
-46 0 -29 0 +24 0 +42 0 *
Fa
0  1e-07 14 0

0111000
+23 0 *
Wi

0101100
-40 0 -33 0 +28 0 +24 0 *
Fa
0  1e-07 15 0

0111000
+21 0 *
Ed
 1.00000028421709e-07 1 1 0
1  29 0 0.34068827369093 5.94249703348866
2  69 9 0 0.34068827369093 5.94249703348866
2  70 16 0 0.34068827369093 5.94249703348866
2  71 11 0 0.34068827369093 5.94249703348866
0

0101000
+66 0 -69 0 *
Ve
1.16800774208059e-06
272.996425 225 242.947611
0 0

0101101
*
Ed
 1e-07 1 1 0
1  30 0 0 96.3546978734356
3  72 73CN 9 0 0 96.3546978734356
0

0101000
+18 0 -68 0 *
Ed
 1.00000028421709e-07 1 1 0
1  31 0 0 6.28318530717959
2  74 9 0 0 6.28318530717959
2  75 17 0 0 6.28318530717959
2  76 18 0 0 6.28318530717959
0

0101000
+18 0 -18 0 *
Wi

0101100
-19 0 -67 0 +17 0 +16 0 -17 0 -65 0 *
Fa
0  1e-07 9 0

0101000
+15 0 *
Ve
1e-07
225 225 393.214568
0 0

0101101
*
Ed
 1e-07 1 1 0
1  32 0 7.26626970337202 7.85398163397448
3  77 78CN 11 0 7.26626970337202 7.85398163397448
0

0101000
+64 0 -13 0 *
Ed
 1e-07 1 1 1
2  79 11 0 0 6.28318530717959
0

0101000
+13 0 -13 0 *
Wi

0101100
-62 0 +19 0 -63 0 -12 0 -11 0 +12 0 *
Fa
0  1e-07 11 0

0101000
+10 0 *
Ve
1e-07
225 225 194.951186
0 0

0101101
*
Ed
 1e-07 1 1 0
1  33 0 4.71238898038469 6.28318530717959
3  80 81CN 18 0 4.71238898038469 6.28318530717959
0

0101000
+8 0 -18 0 *
Ed
 1e-07 1 1 1
2  82 18 0 0 6.28318530717959
0

0101000
+8 0 -8 0 *
Wi

0101100
-16 0 +7 0 +6 0 -7 0 *
Fa
0  1e-07 18 0

0101000
+5 0 *
Sh

0101100
-44 0 -36 0 +31 0 +25 0 -22 0 +20 0 -56 0 -79 0 +60 0 +89 0 
-14 0 -9 0 -4 0 *
So

0100000
+3 0 *
Co

1100000
+54 0 +2 0 *

+1 0 