DBRep_DrawableShape

CASCADE Topology V1, (c) Matra-Datavision
Locations 0
Curve2ds 86
1 0 0 1 0 
1 0 0 1 0 
1 462.65454598697016 190.81325560185763 0.4226182617406995 0.90630778703664994 
1 0 0 0 1 
1 3.0000000000000142 0 0 -1 
1 0 -450 1 0 
1 0 0 1 0 
1 462.65454598697016 190.81325560185763 0.4226182617406995 0.90630778703664994 
1 0 0 0 1 
1 0 0 0 -1 
1 0 0 1 0 
1 0 249.99999999999994 1 0 
1 236.07759922780772 296.46782103703248 0.4226182617406995 0.90630778703664994 
1 250 0 0 1 
1 3.000000000000052 0 0 -1 
1 0 -450 1 0 
1 0 249.99999999999994 1 0 
1 236.07759922780772 296.46782103703248 0.4226182617406995 0.90630778703664994 
1 249.99999999999994 0 0 1 
1 0 0 0 -1 
1 0 0 1 0 
1 0 0 0 1 
1 462.65454598697016 190.81325560185763 -0.90630778703664994 0.4226182617406995 
1 0 0 1 0 
1 3.0000000000000124 -4.1300296516055823e-14 0 1 
1 463.9224007721923 193.53217896296758 -0.90630778703664994 0.4226182617406995 
1 0 450 1 0 
1 0 0 0 1 
1 462.65454598697016 190.81325560185763 -0.90630778703664994 0.4226182617406995 
1 0 450 1 0 
1 3.0000000000000124 -4.1300296516055823e-14 0 1 
1 463.9224007721923 193.53217896296758 -0.90630778703664994 0.4226182617406995 
7 0 0  8 9 2  5.1554119364752982 102.27053260000002  5.2963836078133344 89.161305440924565  5.4373552791517668 77.054193296607991  5.5783269504888935 66.346180486289086  5.7192986218294877 57.391756566707045  5.8602702931641701 50.477710319100879  6.0012419645040822 45.802276907619671  6.14221363584155 43.464559463244484  6.2831853071795862 43.464559463244484 
 2.0138192828855059 9 3.1415926535897931 9
3 80.892728717714277 225 -1 0 -0 -1 113.56921682066015 47.996425000000002
3 80.892728717714277 225 -1 0 -0 -1 113.56921682066016 47.996424999999988
7 0 0  8 9 2  0 43.464559463244484  0.1409716713380359 43.464559463244484  0.2819433426761293 45.802276907619671  0.42291501401291498 50.47771031895536  0.56388668534964381 57.391756566532422  0.70485835668887376 66.346180486056255  0.84583002802833107 77.054193296658923  0.98680169936625106 89.161305440924565  1.127773370704287 102.27053260000002 
 3.1415926535897931 9 4.2693660242940803 9
3 80.892728717714277 225 -1 0 -0 -1 113.56921682066015 47.996425000000002
3 80.892728717714277 225 -1 0 -0 -1 113.56921682066016 47.996424999999988
7 0 0  8 184 27  1.1277733642521139 0  1.1511322031812214 0.045257191611211132  1.173380377566239 0.091087632238922744  1.1946472771690075 0.13742192042146503  1.2150481650616791 0.18420187215348161  1.2346864908568098 0.23137808591523865  1.2536565566652274 0.27890801230564582  1.2720465357816766 0.32675452827898743  1.3056002388752348 0.41699919272844488  1.3208799002342388 0.45933078118312265  1.3358381285121439 0.50185791131862523  1.3505305150149525 0.54456131289305176  1.3650133651833869 0.58742376274940966  1.3793455436098103 0.6304296758667487  1.3935923718723817 0.67356474948655709  1.4202958186473502 0.7546600372641078  1.4327536263010643 0.79259312298893292  1.4452614029050892 0.83060584191980524  1.4578824487452948 0.86868971725016308  1.4706923221447141 0.90683661177899921  1.483791959710743 0.94503838907883164  1.4973135347467947 0.98328672879031309  1.517682191243616 1.0383216408287401  1.5240053646438867 1.0550784435702356  1.5304715128256419 1.0718414764533826  1.5371029876274633 1.088609871311462  1.543926817439349 1.1053826833500295  1.5509760274134399 1.1221588653894718  1.5582923122421515 1.1389372165639959  1.5730929988146205 1.1714466528777248  1.580538320886717 1.1871776515768033  1.5883132309245411 1.2029080767397318  1.5964746855970589 1.218636526350565  1.6050941896746735 1.2343613301964069  1.6142659023107626 1.2500803944824384  1.6241151742854718 1.2657910409525337  1.6398559485671924 1.2888479443034346  1.6450703026115427 1.2962038211510072  1.6504949074919057 1.3035565868224632  1.6561526059496643 1.3109057767601138  1.6620700497169281 1.3182508539752527  1.6682788824364752 1.3255911861916834  1.6748175910941294 1.3329260098539766  1.6884343222433471 1.3473537405486089  1.6954891126836402 1.3544470444328003  1.7029420029981566 1.3615334323306882  1.7108448742668543 1.3686118846941326  1.7192608303985324 1.3756811641814011  1.7282673847111631 1.382739753877523  1.7379626286351717 1.3897857346534646  1.7586630444261271 1.4036276405835759  1.7696178248977503 1.4104244988279788  1.7814601678337567 1.4172047894780917  1.7943377918836632 1.423965605417834  1.8084372001067095 1.4307032719898416  1.8240029229107222 1.4374129294062641  1.8413619923576046 1.4440880573157326  1.8705123760742932 1.4539304823269534  1.8805593413743971 1.4571317935212622  1.8911961686730632 1.4603215534270122  1.9024869550793391 1.4634984433709124  1.9145064211831937 1.4666609166950135  1.9273428682035967 1.4698071283247331  1.9411024387383575 1.472934827011259  1.9704954822059739 1.4790990562473425  1.9860963426194942 1.4821362471207031  2.0028408585929469 1.4851501058160821  2.0208750550056038 1.4881374306768862  2.0403724159431817 1.4910943347054584  2.0615420701719667 1.4940160353048655  2.0846389415904962 1.4968965098173712  2.134914537031376 1.5025151135636157  2.1620238262896692 1.5052547639324985  2.1915997725536727 1.5079394152025998  2.2239922387634579 1.5105599182352307  2.2596139117767962 1.5131048626717529  2.2989431306582446 1.5155599797674313  2.3425264113092292 1.5179068492833936  2.4146598743425072 1.5212130359346852  2.4396050870873758 1.5222717746881034  2.4657627779881857 1.5232959899598071  2.4931904850016111 1.5242826849224398  2.5219400105403293 1.5252285805535786  2.5520524761472365 1.5261301302506041  2.5835517269958159 1.5269835743647104  2.6490635363810515 1.5285802335348595  2.6830545566853701 1.5293242584492086  2.7184076099530472 1.5300133232234998  2.7550967390159258 1.5306435391613604  2.7930645136317622 1.5312110088109279  2.8322146268881738 1.5317120088332397  2.8724091028316696 1.5321432128015848  2.9542202233655046 1.5328577944408461  2.9958233134768943 1.533142300285937  3.0381153876393796 1.5333527699852993  3.0808939357089002 1.5334871326377879  3.1239277841955158 1.5335441085926718  3.1669729997168545 1.533523344723204  3.2097917873468251 1.5334254335932587  3.294209885974742 1.5330794730675577  3.3358160868793068 1.5328326029300108  3.3767723005368566 1.5325125331213201  3.4168846483573816 1.532121422892601  3.455992339513358 1.5316621065653848  3.4939732775825183 1.5311378827911182  3.5307429304171656 1.5305522926843025  3.6014765262427417 1.5292706749082341  3.6354601631904173 1.528575545731951  3.6681477287754376 1.527827132301141  3.6995187613042617 1.5270290730347824  3.7295786278512821 1.5261849388383553  3.7583515366478712 1.5252981370562626  3.7858739677770874 1.5243718627213485  3.8644127113239586 1.5214985685526707  3.9118867328957094 1.5194443063637664  3.9549614547286183 1.517269486494115  3.9941116809532105 1.5149937469777797  4.0297956757440261 1.5126326763265752  4.0624239443372971 1.510198910181316  4.092356481709384 1.5077026858388465  4.1470226424111027 1.5026419867189422  4.1718301839280301 1.500079187508653  4.1946247149271443 1.4974720336385801  4.2156578657607042 1.4948268148465331  4.2351401242717088 1.4921485784039419  4.2532483360474469 1.4894414534591158  4.2701330701820952 1.4867088645897919  4.317008682596712 1.4785294288330946  4.3438502552776299 1.4730176155426307  4.3674281333351246 1.4674401767078962  4.3883946375608502 1.4618107976966712  4.4072231499631016 1.4561393708836476  4.4242699153910507 1.4504331508819632  4.4398109648935717 1.4446977446582612  4.4678733800981085 1.433357350189578  4.4804739431929406 1.4277538879781706  4.4920652322041832 1.4221311518474309  4.5027955825160006 1.4164920886173604  4.5127814964321544 1.4108389999890179  4.5221172979091904 1.4051737443974441  4.5308801426009691 1.3994978365401303  4.55512751771289 1.3827972857470876  4.5692118940282853 1.3717467941200994  4.58185650678206 1.3606702631172993  4.5933501652398263 1.3495733293493686  4.6039048043894581 1.3384601560801457  4.6136756576015614 1.327333805297485  4.6227840647402978 1.3161966939049532  4.6393330681326006 1.2946014138820727  4.6468423392920819 1.2841443160214872  4.6539320234161039 1.2736810337542934  4.6606614536074176 1.2632127812935892  4.6670776871600594 1.2527405400812626  4.6732191718619323 1.2422651291000673  4.6791176284077283 1.231787240658877  4.695453911727121 1.2016579122005098  4.70534767373465 1.1820017477311922  4.7146572677484073 1.1623429283677069  4.7234966369942413 1.14268423683734  4.7319511140485702 1.1230279325350239  4.7400850880530925 1.1033758966093501  4.7479498450601314 1.08372978278045  4.7689511497545363 1.0297233437981652  4.7816176417099996 0.99537829970495295  4.7938075400452362 0.96106391396369872  4.8056510350252211 0.92678663635069825  4.8172461989488511 0.89255254523186522  4.8286655193114711 0.85836750908288195  4.8399683420853963 0.82423746807476272  4.8680568142892007 0.73906516252689725  4.8847582042476461 0.68809929709777862  4.9014737434590643 0.63729162161303066  4.918320133267116 0.5866637922067639  4.9353991799907817 0.53623953433043425  4.9528029885777869 0.48604531243745441  4.9706223646377898 0.43611124608545748  5.0072781774684225 0.33683334581940233  5.0261146314925611 0.28748951881014556  5.045552585723434 0.23847574370955826  5.0656876169894645 0.18983188603581017  5.0866218940924357 0.141603776973449  5.1084677117034323 0.093844837096112257  5.1313505904118468 0.046618294878841435  5.1554119429274721 0 
 4.5144902142305021 9 4.9566639874677749 7 5.3435660390503879 7 5.6821053341851755 7 5.830216275806646 7 5.9690702835767731 7 6.0341580997190247 7 6.0972119216068359 7 6.1582953115606518 7 6.1878825785695302 7 6.217007544531393 7 6.2456774329001021 7 6.2597883935815757 7 6.2737891123827261 7 6.2876804505682422 7 6.3014632626741838 7 6.3151383965605463 7 6.342274990366298 7 6.3689875748938345 7 6.4215779756824238 7 6.4725249264463676 7 6.5712346435515094 7 6.663775003337582 7 6.8372881779364691 7 7.1409362334845188 7 7.5964083168065946 7 8.0518804001286703 9
2 120.88146900078169 225 -1 0 -0 -1 44.226057042264053
2 120.88146900078169 225 -1 0 -0 -1 44.226057042264017
1 0 0 1 0 
1 0 0 1 0 
1 660 0 0 -1 
1 0 0 0 1 
1 0 -450 1 0 
1 0 0 1 0 
1 0 0 0 -1 
1 0 0 0 1 
1 0 0 0 1 
1 0 0 1 0 
1 0 0 1 0 
1 0 450 1 0 
1 660 0 0 1 
1 0 0 1 0 
1 660 0 0 1 
1 0 450 1 0 
1 660 0 0 -1 
1 450 0 0 1 
1 0 0 0 1 
1 0 450 1 0 
1 0 -450 1 0 
1 0 450 1 0 
1 0 0 0 -1 
1 450 0 0 1 
1 0 102.270532 1 0 
2 0 0 1 0 -0 1 47.996425000000002
1 0 0 1 0 
1 6.2831853071795862 -0 0 1 
1 0 -0 0 1 
1 0 0 1 0 
2 0 0 1 0 -0 1 47.996425000000002
1 0 0 1 0 
1 6.2831853071795862 -6.2831853071795862 0 1 
1 0 -6.2831853071795862 0 1 
1 0 -1.5707963267948966 1 0 
7 0 0  7 8 2  5.5967399841965806 102.27053260000008  5.6948036017655816 95.873320407720428  5.7928672193346742 90.369334518189135  5.8909308369034861 85.859053892447264  5.9889944544728095 82.421919868756959  6.0870580720415077 80.112362592208228  6.1851216896105852 78.957583210531993  6.2831853071795862 78.957583210531993 
 2.4551473306067879 8 3.1415926535897931 8
3 48.725124910070924 225 -1 0 -0 -1 113.56921682066015 47.996425000000002
7 0 0  7 8 2  0 78.957583210531993  0.098063617569000741 78.957583210531993  0.19612723513802166 80.11236259220459  0.29419085270680512 82.421919868793339  0.39225447027615701 85.859053892410884  0.49031808784492625 90.369334518200048  0.58838170541400459 95.873320407720428  0.68644532298300531 102.27053260000008 
 3.1415926535897931 8 3.8280379765727983 8
3 48.725124910070924 225 -1 0 -0 -1 113.56921682066015 47.996425000000002
7 0 0  8 44 7  6.2831853071795862 1.2302842684140851  6.2490372204860289 1.2302842684140851  6.214889142334628 1.2297186289073609  6.1809117067846318 1.2285873536865282  6.1472757682866614 1.2268957960691864  6.1141422312467242 1.2246547104975463  6.0816533219551143 1.2218795358252166  6.0499272653078995 1.2185892896736659  5.9611790727001379 1.207710759929395  5.9063131108655611 1.1988807969489699  5.8550812877833991 1.1884571124396643  5.8078063946620873 1.1766121533582918  5.7644922422528211 1.1635224440201455  5.7249887781686866 1.1493475215347644  5.689065527023617 1.1342292511294334  5.6279326239595022 1.1043446480334065  5.6019450768643022 1.0897705484291607  5.5783236080368255 1.0746510698003249  5.556875075685177 1.0590579262731126  5.53741204420065 1.0430523684506952  5.5197615076806681 1.0266867121183045  5.5037659244978245 1.0100060962067563  5.4639404552476414 0.96337563645141799  5.4432323518789403 0.93285672442232226  5.4264014731527581 0.90170219540368635  5.4128402384215164 0.87006478509329099  5.4020855691149094 0.83806192889551312  5.3937693281389087 0.80578808955146997  5.3876010234161535 0.77332152117124142  5.3769662639478 0.69184065106787662  5.3748928499119515 0.64266912559514822  5.3763392405674253 0.59344048428988572  5.380810228807853 0.5443233101154874  5.3879697518630323 0.49546393937066568  5.3975910106113574 0.44699672337810625  5.4095238040348042 0.39905358652580847  5.4378252898535502 0.30448527958683824  5.4541939695413344 0.25786011785126761  5.4726870441470403 0.21202884093460117  5.49326716044785 0.16712960307457791  5.5159334420985573 0.12330930343067426  5.5407096213299285 0.080727876914981594  5.5676333459376499 0.039560897572703202  5.5967399933940518 0 
 0 9 0.12793674009722913 7 0.36781812777953382 7 0.57771434200155136 7 0.94503271689007917 7 1.4960102792228704 7 2.0469878415556608 9
2 120.88146900078173 225 -1 0 -0 -1 34.22765616408207
7 0 0  8 51 8  0.68644531378553431 0  0.71347951514186547 0.036744089899726176  0.7386305800405073 0.074873690391437348  0.76192687064582643 0.11423526467445644  0.78339838951188767 0.15468720075423903  0.80306569742274192 0.19609957889898055  0.82093218884156283 0.23835244439186515  0.83697592735491477 0.28133297978948335  0.86175823060607126 0.35763121422754224  0.87132035491086146 0.39067833813463326  0.87979841036256445 0.42402725346858183  0.88715527486669998 0.45763300863373502  0.89333866249601712 0.49145082871100954  0.89827736326055718 0.52543506974773224  0.90187514268671609 0.55953765507914066  0.90559447153245898 0.61933148964605611  0.90636020119540106 0.64499415392860937  0.90624223556186312 0.67067121330205459  0.90517376194913013 0.69633866632630825  0.90307446268238989 0.72197039477030411  0.89984698840046529 0.74753727866030584  0.89537202385932835 0.77300588181898577  0.88509938801395749 0.81733482745248243  0.87991208055445902 0.8362554408143742  0.87387767204189837 0.85508188015325126  0.86692490947513368 0.87379549510081533  0.85897185978824453 0.89237524214950692  0.84992401030541997 0.91079704288428931  0.83967224852738132 0.92903291104488073  0.81071843033226154 0.97407525447874654  0.79035418023943294 1.0006080696647359  0.76657357985641283 1.026536812062659  0.73886801222261056 1.0517248701307835  0.70663360727894542 1.07600008747022  0.66916762337848468 1.0991463234629464  0.62569684091989397 1.1208781453979317  0.55069228798315195 1.1508379446981638  0.52405771506027776 1.1603848927226459  0.4957239780325402 1.1694491619688563  0.4656406497598482 1.1779841176969512  0.43378104342162516 1.1859397889914405  0.40015720974871627 1.1932640096281664  0.36483467799305802 1.1999046297298726  0.29104481355294221 1.2117213695904498  0.25257746418306226 1.2168974878940162  0.21266385888810646 1.2212926841275475  0.17149054521507878 1.2248617572349758  0.12930997462103733 1.227566139757073  0.086437344416196993 1.2293782234619357  0.043218672221533812 1.2302842684140853  0 1.2302842684140853 
 4.2361974656239259 9 4.7479444260128405 7 5.1317546463045254 7 5.4196123115232897 7 5.6355055604373625 7 5.9593454338084735 7 6.1212653704940303 7 6.2831853071795862 9
2 120.88146900078173 225 -1 0 -0 -1 34.22765616408207
1 6.2831853071795862 -6.2831853071795862 0 1 
1 0 -6.2831853071795862 0 1 
Curves 36
1 190.81325560185763 0 462.65454598697016 0.90630778703664994 0 0.4226182617406995 
1 193.53217896296758 0 463.9224007721923 0 1 0 
1 190.81325560185763 450 462.65454598697016 0.90630778703664994 0 0.4226182617406995 
1 190.81325560185763 0 462.65454598697016 0 1 0 
1 296.46782103703248 0 236.07759922780772 0.90630778703664994 0 0.4226182617406995 
1 299.18674439814248 0 237.34545401302984 0 1 0 
1 296.46782103703248 450 236.07759922780772 0.90630778703664994 0 0.4226182617406995 
1 296.46782103703248 0 236.07759922780772 0 1 0 
1 190.81325560185763 0 462.65454598697016 0.4226182617406995 0 -0.90630778703664994 
1 193.53217896296758 0 463.9224007721923 0.4226182617406995 0 -0.90630778703664994 
1 190.81325560185763 450 462.65454598697016 0.4226182617406995 0 -0.90630778703664994 
1 193.53217896296758 450 463.9224007721923 0.4226182617406995 0 -0.90630778703664994 
3 225 225 389.34083603546247 0.90630778703664994 0 0.4226182617406995 -0.4226182617406995 0 0.90630778703664994 0 -1 0 113.56921682066015 47.996425000000002
3 225 225 389.34083603546247 0.90630778703664994 0 0.4226182617406995 -0.4226182617406995 0 0.90630778703664994 0 -1 0 113.56921682066015 47.996425000000002
2 241.89997190763023 225 353.09872932313232 0.90630778703664994 0 0.4226182617406995 -0.4226182617406995 0 0.90630778703664994 0 -1 0 44.226057042264053
1 0 0 0 0 0 1 
1 0 0 660 -0 1 0 
1 0 450 0 0 0 1 
1 0 0 0 -0 1 0 
1 0 0 0 1 0 -0 
1 450 0 0 0 0 1 
1 0 0 660 1 0 -0 
1 0 450 660 1 0 -0 
1 450 0 660 -0 1 0 
1 0 450 0 1 0 -0 
1 450 450 0 0 0 1 
1 450 0 0 -0 1 0 
2 225 225 345.218143 0 0 1 1 0 -0 -0 1 0 47.996425000000002
1 272.99642499999999 225 242.94761099999999 0 0 1 
2 225 225 242.94761099999999 0 0 1 1 0 -0 -0 1 0 47.996425000000002
2 225 225 242.94761099999999 -2.4492935982947064e-16 -1 0 1 -2.4492935982947064e-16 0 0 0 1 47.996425000000002
3 225 225 424.83385978274998 0.90630778703664994 0 0.4226182617406995 -0.4226182617406995 0 0.90630778703664994 0 -1 0 113.56921682066015 47.996425000000002
3 225 225 424.83385978274998 0.90630778703664994 0 0.4226182617406995 -0.4226182617406995 0 0.90630778703664994 0 -1 0 113.56921682066015 47.996425000000002
2 255.49458871317998 225 359.4380032492428 0.90630778703664994 0 0.4226182617406995 -0.4226182617406995 0 0.90630778703664994 0 -1 0 34.22765616408207
2 255.49458871317998 225 359.4380032492428 0.90630778703664994 0 0.4226182617406995 -0.4226182617406995 0 0.90630778703664994 0 -1 0 34.22765616408207
2 225 225 345.218143 -2.4492935982947064e-16 -1 0 1 -2.4492935982947064e-16 0 0 0 1 47.996425000000002
Polygon3D 0
PolygonOnTriangulations 0
Surfaces 19
1 190.81325560185763 0 462.65454598697016 0.4226182617406995 0 -0.90630778703664994 0.90630778703664994 0 0.4226182617406995 0 -1 0 
1 190.81325560185763 0 462.65454598697016 0 1 0 0.90630778703664994 0 0.4226182617406995 0.4226182617406995 0 -0.90630778703664994 
1 0 0 0 -0 1 0 0 0 1 1 0 -0 
1 193.53217896296758 0 463.9224007721923 0.90630778703664994 0 0.4226182617406995 0.4226182617406995 0 -0.90630778703664994 0 1 0 
1 190.81325560185763 450 462.65454598697016 0 1 0 0.90630778703664994 0 0.4226182617406995 0.4226182617406995 0 -0.90630778703664994 
1 0 450 0 -0 1 0 0 0 1 1 0 -0 
1 190.81325560185763 0 462.65454598697016 0.90630778703664994 0 0.4226182617406995 0.4226182617406995 0 -0.90630778703664994 0 1 0 
1 296.46782103703248 0 236.07759922780772 0.4226182617406995 0 -0.90630778703664994 0.90630778703664994 0 0.4226182617406995 0 -1 0 
2 225 225 242.94761099999999 0 0 1 1 0 -0 -0 1 0 47.996425000000002
1 190.81325560185763 0 462.65454598697016 0.90630778703664994 0 0.4226182617406995 0.4226182617406995 0 -0.90630778703664994 0 1 0 
4 225 225 345.218143 0 0 1 1 0 -0 -0 1 0 47.996425000000002
1 0 0 0 1 0 -0 0 0 1 0 -1 0 
1 0 0 660 0 0 1 1 0 -0 -0 1 0 
1 0 0 0 0 0 1 1 0 -0 -0 1 0 
1 450 0 0 1 0 -0 0 0 1 0 -1 0 
1 225 225 345.218143 0 0 1 1 0 -0 -0 1 0 
1 225 225 242.94761099999999 0 0 1 1 0 -0 -0 1 0 
4 225 225 242.94761099999999 0 0 1 1 0 -0 -0 1 0 47.996425000000002
1 204.40787240740735 0 468.9938199130807 0.90630778703664994 0 0.4226182617406995 0.4226182617406995 0 -0.90630778703664994 0 1 0 
Triangulations 0

TShapes 117
Ve
1e-07
193.532178962968 0 463.922400772192
0 0

0101101
*
Ve
1e-07
190.813255601858 0 462.65454598697
0 0

0101101
*
Ed
 1e-07 1 1 0
1  1 0 0 3
2  1 1 0 0 3
2  2 2 0 0 3
2  3 3 0 0 3
0

0101000
-117 0 +116 0 *
Ve
1e-07
193.532178962968 450 463.922400772192
0 0

0101101
*
Ed
 1e-07 1 1 0
1  2 0 0 450
2  4 4 0 0 450
2  5 1 0 0 450
0

0101000
-114 0 +117 0 *
Ve
1e-07
190.813255601858 450 462.65454598697
0 0

0101101
*
Ed
 1e-07 1 1 0
1  3 0 0 3
2  6 1 0 0 3
2  7 5 0 0 3
2  8 6 0 0 3
0

0101000
-114 0 +112 0 *
Ed
 1e-07 1 1 0
1  4 0 0 450
2  9 7 0 0 450
2  10 1 0 0 450
0

0101000
-112 0 +116 0 *
Wi

0101100
-115 0 -113 0 +111 0 +110 0 *
Fa
0  1e-07 1 0

0111000
+109 0 *
Ve
1e-07
299.186744398142 0 237.34545401303
0 0

0101101
*
Ve
1e-07
296.467821037032 0 236.077599227808
0 0

0101101
*
Ed
 1e-07 1 1 0
1  5 0 0 3
2  11 8 0 0 3
2  12 2 0 0 3
2  13 3 0 0 3
0

0101000
-107 0 +106 0 *
Ve
1e-07
299.186744398142 450 237.34545401303
0 0

0101101
*
Ed
 1e-07 1 1 0
1  6 0 0 450
2  14 4 0 0 450
2  15 8 0 0 450
0

0101000
-104 0 +107 0 *
Ve
1e-07
296.467821037032 450 236.077599227808
0 0

0101101
*
Ed
 1e-07 1 1 0
1  7 0 0 3
2  16 8 0 0 3
2  17 5 0 0 3
2  18 6 0 0 3
0

0101000
-104 0 +102 0 *
Ed
 1e-07 1 1 0
1  8 0 0 450
2  19 7 0 0 450
2  20 8 0 0 450
0

0101000
-102 0 +106 0 *
Wi

0101100
-105 0 -103 0 +101 0 +100 0 *
Fa
0  1e-07 8 0

0111000
+99 0 *
Ed
 1e-07 1 1 0
1  9 0 0 250
2  21 7 0 0 250
2  22 2 0 0 250
2  23 3 0 0 250
0

0101000
-106 0 +116 0 *
Ed
 1e-07 1 1 0
1  10 0 0 250
2  24 4 0 0 250
2  25 2 0 0 250
2  26 3 0 0 250
0

0101000
-107 0 +117 0 *
Wi

0101100
-97 0 -105 0 +96 0 +115 0 *
Fa
0  1e-07 2 0

0111000
+95 0 *
Ed
 1e-07 1 1 0
1  11 0 0 250
2  27 7 0 0 250
2  28 5 0 0 250
2  29 6 0 0 250
0

0101000
-102 0 +112 0 *
Ed
 1e-07 1 1 0
1  12 0 0 250
2  30 4 0 0 250
2  31 5 0 0 250
2  32 6 0 0 250
0

0101000
-104 0 +114 0 *
Wi

0101100
-93 0 -101 0 +92 0 +111 0 *
Fa
0  1e-07 5 0

0111000
+91 0 *
Wi

0101100
-110 0 -93 0 +97 0 +100 0 *
Ve
1.00000056843419e-07
245.574749660858 181.637153124205 345.218143
0 0

0101101
*
Ve
1.00000113686838e-07
272.996425 225 286.412170463245
0 0

0101101
*
Ed
 1.00000056843419e-07 1 1 0
1  13 0 2.01381928933768 3.14159265358979
2  33 9 0 2.01381928933768 3.14159265358979
2  34 10 0 2.01381928933768 3.14159265358979
2  35 7 0 2.01381928933768 3.14159265358979
0

0101000
+88 0 -87 0 *
Ve
1.00000056843419e-07
245.574749660858 268.362846875795 345.218143
0 0

0101101
*
Ed
 1e-07 1 1 0
1  14 0 3.14159265358979 4.26936601784191
2  36 9 0 3.14159265358979 4.26936601784191
2  37 10 0 3.14159265358979 4.26936601784191
2  38 7 0 3.14159265358979 4.26936601784191
0

0101000
+87 0 -85 0 *
Ed
 1.00000028421709e-07 1 1 0
1  15 0 4.5144902142305 8.05188040012867
2  39 11 0 4.5144902142305 8.05188040012867
2  40 10 0 4.5144902142305 8.05188040012867
2  41 7 0 4.5144902142305 8.05188040012867
0

0101000
+85 0 -88 0 *
Wi

0101100
-86 0 -84 0 -83 0 *
Fa
0  1e-07 7 0

0101000
+89 0 +82 0 *
Wi

0101100
+83 0 +84 0 +86 0 *
Fa
0  1e-07 10 0

0101000
+80 0 *
Wi

0101100
-113 0 -92 0 +103 0 +96 0 *
Fa
0  1e-07 4 0

0111000
+78 0 *
Sh

0101100
-108 0 +98 0 -94 0 +90 0 -81 0 -79 0 +77 0 *
So

0100000
+76 0 *
Ve
1e-07
0 0 660
0 0

0101101
*
Ve
1e-07
0 0 0
0 0

0101101
*
Ed
 1e-07 1 1 0
1  16 0 0 660
2  42 12 0 0 660
2  43 3 0 0 660
0

0101000
-74 0 +73 0 *
Ve
1e-07
0 450 660
0 0

0101101
*
Ed
 1e-07 1 1 0
1  17 0 0 450
2  44 12 0 0 450
2  45 13 0 0 450
0

0101000
-71 0 +74 0 *
Ve
1e-07
0 450 0
0 0

0101101
*
Ed
 1e-07 1 1 0
1  18 0 0 660
2  46 12 0 0 660
2  47 6 0 0 660
0

0101000
-71 0 +69 0 *
Ed
 1e-07 1 1 0
1  19 0 0 450
2  48 12 0 0 450
2  49 14 0 0 450
0

0101000
-69 0 +73 0 *
Wi

0101100
-72 0 -70 0 +68 0 +67 0 *
Fa
0  1e-07 12 0

0111000
+66 0 *
Ve
1e-07
450 0 0
0 0

0101101
*
Ed
 1e-07 1 1 0
1  20 0 0 450
2  50 3 0 0 450
2  51 14 0 0 450
0

0101000
-64 0 +73 0 *
Ve
1e-07
450 0 660
0 0

0101101
*
Ed
 1e-07 1 1 0
1  21 0 0 660
2  52 15 0 0 660
2  53 3 0 0 660
0

0101000
-62 0 +64 0 *
Ed
 1e-07 1 1 0
1  22 0 0 450
2  54 3 0 0 450
2  55 13 0 0 450
0

0101000
-62 0 +74 0 *
Wi

0101100
-63 0 -61 0 +72 0 +60 0 *
Wi

0101100
-96 0 +105 0 +97 0 -115 0 *
Fa
0  1e-07 3 0

0101000
+59 0 +58 0 *
Ve
1e-07
450 450 660
0 0

0101101
*
Ed
 1e-07 1 1 0
1  23 0 0 450
2  56 6 0 0 450
2  57 13 0 0 450
0

0101000
-56 0 +71 0 *
Ed
 1e-07 1 1 0
1  24 0 0 450
2  58 15 0 0 450
2  59 13 0 0 450
0

0101000
-56 0 +62 0 *
Wi

0101100
-70 0 -55 0 +54 0 +60 0 *
Fa
0  1e-07 13 0

0111000
+53 0 *
Ve
1e-07
450 450 0
0 0

0101101
*
Ed
 1e-07 1 1 0
1  25 0 0 450
2  60 6 0 0 450
2  61 14 0 0 450
0

0101000
-51 0 +69 0 *
Ed
 1e-07 1 1 0
1  26 0 0 660
2  62 15 0 0 660
2  63 6 0 0 660
0

0101000
-56 0 +51 0 *
Wi

0101100
-50 0 -49 0 +68 0 +55 0 *
Wi

0101100
-92 0 +101 0 +93 0 -111 0 *
Fa
0  1e-07 6 0

0101000
+48 0 +47 0 *
Ed
 1e-07 1 1 0
1  27 0 0 450
2  64 15 0 0 450
2  65 14 0 0 450
0

0101000
-51 0 +64 0 *
Wi

0101100
-67 0 -50 0 +45 0 +63 0 *
Fa
0  1e-07 14 0

0111000
+44 0 *
Wi

0101100
-61 0 -54 0 +49 0 +45 0 *
Fa
0  1e-07 15 0

0111000
+42 0 *
Ed
 1.00000028421709e-07 1 1 0
1  28 0 1.12777336425211 5.15541194292747
2  66 9 0 1.12777336425211 5.15541194292747
2  67 16 0 1.12777336425211 5.15541194292747
2  68 11 0 1.12777336425211 5.15541194292747
0

0101000
+85 0 -88 0 *
Ve
1.16800774208059e-06
272.996425 225 242.947611
0 0

0101101
*
Ed
 1e-07 1 1 0
1  29 0 0 43.4645594632446
3  69 70CN 9 0 0 43.4645594632446
0

0101000
+39 0 -87 0 *
Ed
 1.00000028421709e-07 1 1 0
1  30 0 0 6.28318530717959
2  71 9 0 0 6.28318530717959
2  72 17 0 0 6.28318530717959
2  73 18 0 0 6.28318530717959
0

0101000
+39 0 -39 0 *
Wi

0101100
-40 0 -86 0 +38 0 +37 0 -38 0 -84 0 *
Fa
0  1e-07 9 0

0101000
+36 0 *
Wi

0101100
-83 0 +40 0 *
Fa
0  1e-07 11 0

0101000
+34 0 *
Ve
1e-07
225 225 194.951186
0 0

0101101
*
Ed
 1e-07 1 1 0
1  31 0 4.71238898038469 6.28318530717959
3  74 75CN 18 0 4.71238898038469 6.28318530717959
0

0101000
+32 0 -39 0 *
Ed
 1e-07 1 1 1
2  76 18 0 0 6.28318530717959
0

0101000
+32 0 -32 0 *
Wi

0101100
-37 0 +31 0 +30 0 -31 0 *
Fa
0  1e-07 18 0

0101000
+29 0 *
Sh

0101100
-65 0 -57 0 +52 0 +46 0 -43 0 +41 0 -77 0 -98 0 +81 0 +108 0 
-35 0 -33 0 -28 0 *
Ve
1.00000056843419e-07
272.996425 225 321.905194210532
0 0

0101101
*
Ve
1.1680077705023e-06
272.996425 225 345.218143
0 0

0101101
*
Ed
 1e-07 1 1 0
1  29 0 78.9575832105319 102.270532
3  69 70CN 9 0 78.9575832105319 102.270532
0

0101000
+26 0 -25 0 *
Ve
1.00000028421709e-07
262.125418445296 194.580267620468 345.218143
0 0

0101101
*
Ed
 1e-07 1 1 0
1  32 0 2.45514733980426 3.14159265358979
2  77 9 0 2.45514733980426 3.14159265358979
2  78 19 0 2.45514733980426 3.14159265358979
0

0101000
+23 0 -26 0 *
Ed
 1.00000028421709e-07 1 1 0
1  28 0 5.59673999339405 6.28318530717959
2  66 9 0 5.59673999339405 6.28318530717959
2  67 16 0 5.59673999339405 6.28318530717959
2  68 11 0 5.59673999339405 6.28318530717959
0

0101000
+23 0 -25 0 *
Wi

0101100
+24 0 +22 0 -21 0 *
Fa
0  1e-07 9 0

0101000
+20 0 *
Ve
1.00000028421709e-07
262.125418445296 255.419732379532 345.218143
0 0

0101101
*
Ed
 1.00000028421709e-07 1 1 0
1  28 0 0 0.686445313785534
2  66 9 0 0 0.686445313785534
2  67 16 0 0 0.686445313785534
2  68 11 0 0 0.686445313785534
0

0101000
+25 0 -18 0 *
Ed
 1e-07 1 1 0
1  33 0 3.14159265358979 3.82803796737533
2  79 9 0 3.14159265358979 3.82803796737533
2  80 19 0 3.14159265358979 3.82803796737533
0

0101000
+26 0 -18 0 *
Wi

0101100
-17 0 +16 0 -24 0 *
Fa
0  1e-07 9 0

0101000
+15 0 *
Ve
1.00000028421709e-07
241.029356161657 225 390.458794562763
0 0

0101101
*
Ed
 1e-07 1 1 0
1  34 0 0 2.04698784155566
2  81 11 0 0 2.04698784155566
2  82 19 0 0 2.04698784155566
0

0101000
+13 0 -23 0 *
Ed
 1e-07 1 1 0
1  35 0 4.23619746562393 6.28318530717959
2  83 11 0 4.23619746562393 6.28318530717959
2  84 19 0 4.23619746562393 6.28318530717959
0

0101000
+18 0 -13 0 *
Wi

0101100
+12 0 +11 0 +16 0 +22 0 *
Fa
0  1e-07 19 0

0101000
+10 0 *
Ed
 1e-07 1 1 0
1  36 0 6.28318530717959 7.51346957559367
3  85 86CN 11 0 6.28318530717959 7.51346957559367
0

0101000
+25 0 -13 0 *
Wi

0101100
+21 0 +12 0 +8 0 *
Fa
0  1e-07 11 0

0101000
+7 0 *
Wi

0101100
-8 0 +11 0 +17 0 *
Fa
0  1e-07 11 0

0101000
+5 0 *
Sh

0101100
-19 0 -14 0 +9 0 -6 0 -4 0 *
So

0100000
+27 0 +3 0 *
Co

1100000
+75 0 +2 0 *

+1 0 