DBRep_DrawableShape

CASCADE Topology V1, (c) Matra-Datavision
Locations 0
Curve2ds 76
1 0 0 1 0 
1 0 0 1 0 
1 352.65454598697016 130.81325560185755 0.4226182617406995 0.90630778703664994 
1 0 0 0 1 
1 3.0000000000000382 0 0 -1 
1 0 -450 1 0 
1 0 0 1 0 
1 352.65454598697016 130.81325560185755 0.4226182617406995 0.90630778703664994 
1 0 0 0 1 
1 0 0 0 -1 
1 0 0 1 0 
1 2.8421709430404007e-14 249.99999999999994 1 0 
1 126.07759922780772 236.46782103703242 0.4226182617406995 0.90630778703664994 
1 250 0 0 1 
1 3.0000000000000582 0 0 -1 
1 0 -450 1 0 
1 2.8421709430404007e-14 249.99999999999994 1 0 
1 126.07759922780772 236.46782103703242 0.4226182617406995 0.90630778703664994 
1 249.99999999999997 0 0 1 
1 0 0 0 -1 
1 0 0 1 0 
1 0 0 0 1 
1 352.65454598697016 130.81325560185755 -0.90630778703664994 0.4226182617406995 
1 0 0 1 0 
1 3.0000000000000382 -2.9309887850104133e-14 0 1 
1 353.9224007721923 133.53217896296752 -0.90630778703664994 0.4226182617406995 
1 0 450 1 0 
1 0 0 0 1 
1 352.65454598697016 130.81325560185755 -0.90630778703664994 0.4226182617406995 
1 0 450 1 0 
1 3.0000000000000382 -2.9309887850104133e-14 0 1 
1 353.9224007721923 133.53217896296752 -0.90630778703664994 0.4226182617406995 
7 0 0  8 79 12  3.7376601401406502 -5.9216305027726576e-16  3.7657635076386393 -0.033833926347476138  3.7919383611304296 -0.069269736159168538  3.8161761767153166 -0.10613844691752305  3.8384780396211227 -0.14427950355894836  3.8588419324366896 -0.18354226924799377  3.8772528372574033 -0.22378515109992597  3.8936727637986839 -0.26487295082440698  3.9205884857993376 -0.34324809977172122  3.9315682343037706 -0.38036850925190485  3.9409175099880969 -0.41794536806347082  3.9485656942092646 -0.45589131691716034  3.9544139919946133 -0.49411821409529466  3.9583270354801341 -0.53253452385233058  3.9601197053191792 -0.57104102599996442  3.9590246500638782 -0.64319560040295887  3.9566939697679118 -0.67684931037717888  3.9523718424479739 -0.71040803226651406  3.9458450476086 -0.74378636278515842  3.9368465668612771 -0.77688602799253204  3.9250439638649368 -0.80959047656665462  3.9100135418840165 -0.84175577617926023  3.8748082253682372 -0.90070685887012114  3.8555112187141276 -0.92766250260240213  3.8329996815446066 -0.95393894208154961  3.8068707926395291 -0.9793876130179342  3.7766694794463547 -1.0038278766737676  3.7418928414003858 -1.0270397150378585  3.7020574420816019 -1.0487495677764285  3.6371489603020963 -1.0773513706206674  3.616376238062339 -1.0857092586515553  3.5945637622269402 -1.0936940978084273  3.5716979244598406 -1.1012784889691147  3.5477762100930619 -1.1084339149554552  3.5228112203849218 -1.1151312468046863  3.4968344403688643 -1.121341533820349  3.4446458446185688 -1.1323766847488463  3.4185501753791367 -1.137263871982289  3.3916547162045099 -1.1416758776863938  3.3640187895754763 -1.1455908126927767  3.3357196422768181 -1.1489886017224593  3.3068521088901144 -1.1518518403245923  3.277526003982687 -1.1541665852999428  3.1922398161364178 -1.1592165035639013  3.1354277270161219 -1.1605472907057219  3.0782158055135369 -1.159850995681154  3.0215163806333294 -1.1571132913550173  2.9662650919071893 -1.1523843657359976  2.9131868720196508 -1.1457728784960182  2.8627727876725428 -1.1374159926481433  2.7737867254379296 -1.1187557243099389  2.7345221850750931 -1.108826222309176  2.6977145865193961 -1.0977758433682538  2.663440729606009 -1.0857124176327488  2.6316762103542715 -1.0727417003481605  2.6023395052652631 -1.0589616224024212  2.5753164001070141 -1.0444612408342813  2.5070091715217964 -1.0028241349832387  2.4702297712317431 -0.97436660829873745  2.4394451396783552 -0.94437638573162985  2.4138160819857148 -0.91319605681655958  2.3926371908291912 -0.88108393097354565  2.3753166886899635 -0.84824716766786423  2.3613721071546911 -0.81485246706527525  2.3339630713191792 -0.73031873648796541  2.3242249180000272 -0.67865619296622981  2.3198609339460745 -0.6265206010887141  2.3199884993464366 -0.5742391250360015  2.3240211412876306 -0.52207898925757945  2.3315484464319525 -0.47027399733372022  2.3422945860955116 -0.41904456448000266  2.369853311169789 -0.31817380695335484  2.3866659140796171 -0.26853249742100038  2.4063266542225676 -0.21990369397083676  2.4287417497562274 -0.17250439806289819  2.4538727810954839 -0.12656119423055578  2.4817135970935187 -0.082317693837444833  2.512269130535763 -0.040037276306399659  2.5455251670389356 -5.9216305027726556e-16 
 1.0136492082886321 9 1.5456350696139443 7 2.0111226982735873 7 2.4184243733507746 7 2.7748133390433134 7 2.9307335115337896 7 3.0769086732436111 7 3.3509871014495296 7 3.5908057261297075 7 4.010488319320018 7 4.6400122091054854 7 5.2695360988909536 9
2 139.23328766717313 225 -1 0 -0 -1 31.745849447534486
2 139.23328766717313 225 -1 0 -0 -1 31.74584944753445
7 0 0  8 9 2  2.5455251566553283 -6.0000002122251317e-07  2.6945420308889445 8.6106979102910834  2.8435589051209718 15.059707174612413  2.9925757793425873 19.055660209312919  3.1415926535846666 20.409597164878505  3.2906095278121938 19.055660209334746  3.4396264020556373 15.059707174605137  3.5886432762906413 8.6106979102911314  3.7376601505242575 -5.9999996437909431e-07 
 5.6871178102451214 9 6.879252804114051 9
3 216.43130294533569 225 -1 0 -0 -1 113.56921682066015 47.996425000000002
3 216.43130294533569 225 -1 0 -0 -1 113.56921682066017 47.996424999999988
1 0 0 1 0 
1 0 0 1 0 
1 660 0 0 -1 
1 0 0 0 1 
1 0 -450 1 0 
1 0 0 1 0 
1 0 0 0 -1 
1 0 0 0 1 
1 0 0 0 1 
1 0 0 1 0 
1 0 0 1 0 
1 0 450 1 0 
1 660 0 0 1 
1 0 0 1 0 
1 660 0 0 1 
1 0 450 1 0 
1 660 0 0 -1 
1 450 0 0 1 
1 0 0 0 1 
1 0 450 1 0 
1 0 -450 1 0 
1 0 450 1 0 
1 0 0 0 -1 
1 450 0 0 1 
1 6.2831853071795862 -6.2831853071795862 0 1 
1 0 -6.2831853071795862 0 1 
1 0 -1.5707963267948966 1 0 
1 0 0 1 0 
2 0 0 1 0 -0 1 47.996425000000002
1 0 0 1 0 
1 6.2831853071795862 -0 0 1 
1 0 -0 0 1 
1 0 102.270532 1 0 
2 0 0 1 0 -0 1 47.996425000000002
1 0 0 1 0 
1 6.2831853071795862 -6.2831853071795862 0 1 
1 0 -6.2831853071795862 0 1 
1 0 1.5707963267948966 1 0 
Curves 31
1 130.81325560185755 0 352.65454598697016 0.90630778703664994 0 0.4226182617406995 
1 133.53217896296752 0 353.9224007721923 0 1 0 
1 130.81325560185755 450 352.65454598697016 0.90630778703664994 0 0.4226182617406995 
1 130.81325560185755 0 352.65454598697016 0 1 0 
1 236.46782103703242 0 126.07759922780772 0.90630778703664994 0 0.4226182617406995 
1 239.18674439814242 0 127.34545401302984 0 1 0 
1 236.46782103703242 450 126.07759922780772 0.90630778703664994 0 0.4226182617406995 
1 236.46782103703242 0 126.07759922780772 0 1 0 
1 130.81325560185755 0 352.65454598697016 0.4226182617406995 0 -0.90630778703664994 
1 133.53217896296752 0 353.9224007721923 0.4226182617406995 0 -0.90630778703664994 
1 130.81325560185755 450 352.65454598697016 0.4226182617406995 0 -0.90630778703664994 
1 133.53217896296752 450 353.9224007721923 0.4226182617406995 0 -0.90630778703664994 
2 192.37470897331099 225 227.73418794471934 0.90630778703664994 0 0.4226182617406995 -0.4226182617406995 0 0.90630778703664994 0 -1 0 31.745849447534486
3 225 225 157.76902555434634 0.90630778703664994 0 0.4226182617406995 -0.4226182617406995 0 0.90630778703664994 0 -1 0 113.56921682066015 47.996425000000002
1 0 0 0 0 0 1 
1 0 0 660 -0 1 0 
1 0 450 0 0 0 1 
1 0 0 0 -0 1 0 
1 0 0 0 1 0 -0 
1 450 0 0 0 0 1 
1 0 0 660 1 0 -0 
1 0 450 660 1 0 -0 
1 450 0 660 -0 1 0 
1 0 450 0 1 0 -0 
1 450 450 0 0 0 1 
1 450 0 0 -0 1 0 
2 225 225 242.94761099999999 -2.4492935982947064e-16 -1 0 1 -2.4492935982947064e-16 0 0 0 1 47.996425000000002
2 225 225 242.94761099999999 0 0 1 1 0 -0 -0 1 0 47.996425000000002
1 272.99642499999999 225 242.94761099999999 0 0 1 
2 225 225 345.218143 0 0 1 1 0 -0 -0 1 0 47.996425000000002
2 225 225 345.218143 -2.4492935982947064e-16 -1 0 1 -2.4492935982947064e-16 0 0 0 1 47.996425000000002
Polygon3D 0
PolygonOnTriangulations 0
Surfaces 18
1 130.81325560185755 0 352.65454598697016 0.4226182617406995 0 -0.90630778703664994 0.90630778703664994 0 0.4226182617406995 0 -1 0 
1 130.81325560185755 0 352.65454598697016 0 1 0 0.90630778703664994 0 0.4226182617406995 0.4226182617406995 0 -0.90630778703664994 
1 0 0 0 -0 1 0 0 0 1 1 0 -0 
1 133.53217896296752 0 353.9224007721923 0.90630778703664994 0 0.4226182617406995 0.4226182617406995 0 -0.90630778703664994 0 1 0 
1 130.81325560185755 450 352.65454598697016 0 1 0 0.90630778703664994 0 0.4226182617406995 0.4226182617406995 0 -0.90630778703664994 
1 0 450 0 -0 1 0 0 0 1 1 0 -0 
1 130.81325560185755 0 352.65454598697016 0.90630778703664994 0 0.4226182617406995 0.4226182617406995 0 -0.90630778703664994 0 1 0 
1 236.46782103703242 0 126.07759922780772 0.4226182617406995 0 -0.90630778703664994 0.90630778703664994 0 0.4226182617406995 0 -1 0 
4 225 225 242.94761099999999 0 0 1 1 0 -0 -0 1 0 47.996425000000002
1 133.53217896296752 0 353.9224007721923 0.90630778703664994 0 0.4226182617406995 0.4226182617406995 0 -0.90630778703664994 0 1 0 
2 225 225 242.94761099999999 0 0 1 1 0 -0 -0 1 0 47.996425000000002
1 0 0 0 1 0 -0 0 0 1 0 -1 0 
1 0 0 660 0 0 1 1 0 -0 -0 1 0 
1 0 0 0 0 0 1 1 0 -0 -0 1 0 
1 450 0 0 1 0 -0 0 0 1 0 -1 0 
1 225 225 242.94761099999999 0 0 1 1 0 -0 -0 1 0 
1 225 225 345.218143 0 0 1 1 0 -0 -0 1 0 
4 225 225 345.218143 0 0 1 1 0 -0 -0 1 0 47.996425000000002
Triangulations 0

TShapes 96
Ve
1e-07
133.532178962968 0 353.922400772192
0 0

0101101
*
Ve
1e-07
130.813255601858 0 352.65454598697
0 0

0101101
*
Ed
 1e-07 1 1 0
1  1 0 0 3
2  1 1 0 0 3
2  2 2 0 0 3
2  3 3 0 0 3
0

0101000
-96 0 +95 0 *
Ve
1e-07
133.532178962968 450 353.922400772192
0 0

0101101
*
Ed
 1e-07 1 1 0
1  2 0 0 450
2  4 4 0 0 450
2  5 1 0 0 450
0

0101000
-93 0 +96 0 *
Ve
1e-07
130.813255601858 450 352.65454598697
0 0

0101101
*
Ed
 1e-07 1 1 0
1  3 0 0 3
2  6 1 0 0 3
2  7 5 0 0 3
2  8 6 0 0 3
0

0101000
-93 0 +91 0 *
Ed
 1e-07 1 1 0
1  4 0 0 450
2  9 7 0 0 450
2  10 1 0 0 450
0

0101000
-91 0 +95 0 *
Wi

0101100
-94 0 -92 0 +90 0 +89 0 *
Fa
0  1e-07 1 0

0111000
+88 0 *
Ve
1e-07
239.186744398142 0 127.34545401303
0 0

0101101
*
Ve
1e-07
236.467821037032 0 126.077599227808
0 0

0101101
*
Ed
 1e-07 1 1 0
1  5 0 0 3
2  11 8 0 0 3
2  12 2 0 0 3
2  13 3 0 0 3
0

0101000
-86 0 +85 0 *
Ve
1e-07
239.186744398142 450 127.34545401303
0 0

0101101
*
Ed
 1e-07 1 1 0
1  6 0 0 450
2  14 4 0 0 450
2  15 8 0 0 450
0

0101000
-83 0 +86 0 *
Ve
1e-07
236.467821037032 450 126.077599227808
0 0

0101101
*
Ed
 1e-07 1 1 0
1  7 0 0 3
2  16 8 0 0 3
2  17 5 0 0 3
2  18 6 0 0 3
0

0101000
-83 0 +81 0 *
Ed
 1e-07 1 1 0
1  8 0 0 450
2  19 7 0 0 450
2  20 8 0 0 450
0

0101000
-81 0 +85 0 *
Wi

0101100
-84 0 -82 0 +80 0 +79 0 *
Fa
0  1e-07 8 0

0111000
+78 0 *
Ed
 1e-07 1 1 0
1  9 0 0 250
2  21 7 0 0 250
2  22 2 0 0 250
2  23 3 0 0 250
0

0101000
-85 0 +95 0 *
Ed
 1e-07 1 1 0
1  10 0 0 250
2  24 4 0 0 250
2  25 2 0 0 250
2  26 3 0 0 250
0

0101000
-86 0 +96 0 *
Wi

0101100
-76 0 -84 0 +75 0 +94 0 *
Fa
0  1e-07 2 0

0111000
+74 0 *
Ed
 1e-07 1 1 0
1  11 0 0 250
2  27 7 0 0 250
2  28 5 0 0 250
2  29 6 0 0 250
0

0101000
-81 0 +91 0 *
Ed
 1e-07 1 1 0
1  12 0 0 250
2  30 4 0 0 250
2  31 5 0 0 250
2  32 6 0 0 250
0

0101000
-83 0 +93 0 *
Wi

0101100
-72 0 -80 0 +71 0 +90 0 *
Fa
0  1e-07 5 0

0111000
+70 0 *
Wi

0101100
-89 0 -72 0 +79 0 +76 0 *
Fa
0  1e-07 7 0

0111000
+68 0 *
Wi

0101100
-92 0 -71 0 +75 0 +82 0 *
Ve
1.209519533577e-07
185.280573295882 198.055168304908 242.947611
0 0

0101101
*
Ve
1.209519533577e-07
185.280573295882 251.944831695092 242.947611
0 0

0101101
*
Ed
 1.20951913163333e-07 1 1 0
1  13 0 1.01364920828863 5.26953609889095
2  33 9 0 1.01364920828863 5.26953609889095
2  34 10 0 1.01364920828863 5.26953609889095
2  35 4 0 1.01364920828863 5.26953609889095
0

0101000
+65 0 -64 0 *
Ed
 1.00000040194367e-07 1 1 0
1  14 0 5.68711782062873 6.87925279373044
2  36 11 0 5.68711782062873 6.87925279373044
2  37 10 0 5.68711782062873 6.87925279373044
2  38 4 0 5.68711782062873 6.87925279373044
0

0101000
+64 0 -65 0 *
Wi

0101100
-63 0 -62 0 *
Fa
0  1e-07 4 0

0101000
+66 0 +61 0 *
Wi

0101100
+62 0 +63 0 *
Fa
0  1e-07 10 0

0101000
+59 0 *
Sh

0101100
-87 0 +77 0 -73 0 +69 0 -67 0 +60 0 +58 0 *
So

0100000
+57 0 *
Ve
1e-07
0 0 660
0 0

0101101
*
Ve
1e-07
0 0 0
0 0

0101101
*
Ed
 1e-07 1 1 0
1  15 0 0 660
2  39 12 0 0 660
2  40 3 0 0 660
0

0101000
-55 0 +54 0 *
Ve
1e-07
0 450 660
0 0

0101101
*
Ed
 1e-07 1 1 0
1  16 0 0 450
2  41 12 0 0 450
2  42 13 0 0 450
0

0101000
-52 0 +55 0 *
Ve
1e-07
0 450 0
0 0

0101101
*
Ed
 1e-07 1 1 0
1  17 0 0 660
2  43 12 0 0 660
2  44 6 0 0 660
0

0101000
-52 0 +50 0 *
Ed
 1e-07 1 1 0
1  18 0 0 450
2  45 12 0 0 450
2  46 14 0 0 450
0

0101000
-50 0 +54 0 *
Wi

0101100
-53 0 -51 0 +49 0 +48 0 *
Fa
0  1e-07 12 0

0111000
+47 0 *
Ve
1e-07
450 0 0
0 0

0101101
*
Ed
 1e-07 1 1 0
1  19 0 0 450
2  47 3 0 0 450
2  48 14 0 0 450
0

0101000
-45 0 +54 0 *
Ve
1e-07
450 0 660
0 0

0101101
*
Ed
 1e-07 1 1 0
1  20 0 0 660
2  49 15 0 0 660
2  50 3 0 0 660
0

0101000
-43 0 +45 0 *
Ed
 1e-07 1 1 0
1  21 0 0 450
2  51 3 0 0 450
2  52 13 0 0 450
0

0101000
-43 0 +55 0 *
Wi

0101100
-44 0 -42 0 +53 0 +41 0 *
Wi

0101100
-75 0 +84 0 +76 0 -94 0 *
Fa
0  1e-07 3 0

0101000
+40 0 +39 0 *
Ve
1e-07
450 450 660
0 0

0101101
*
Ed
 1e-07 1 1 0
1  22 0 0 450
2  53 6 0 0 450
2  54 13 0 0 450
0

0101000
-37 0 +52 0 *
Ed
 1e-07 1 1 0
1  23 0 0 450
2  55 15 0 0 450
2  56 13 0 0 450
0

0101000
-37 0 +43 0 *
Wi

0101100
-51 0 -36 0 +35 0 +41 0 *
Fa
0  1e-07 13 0

0111000
+34 0 *
Ve
1e-07
450 450 0
0 0

0101101
*
Ed
 1e-07 1 1 0
1  24 0 0 450
2  57 6 0 0 450
2  58 14 0 0 450
0

0101000
-32 0 +50 0 *
Ed
 1e-07 1 1 0
1  25 0 0 660
2  59 15 0 0 660
2  60 6 0 0 660
0

0101000
-37 0 +32 0 *
Wi

0101100
-31 0 -30 0 +49 0 +36 0 *
Wi

0101100
-71 0 +80 0 +72 0 -90 0 *
Fa
0  1e-07 6 0

0101000
+29 0 +28 0 *
Ed
 1e-07 1 1 0
1  26 0 0 450
2  61 15 0 0 450
2  62 14 0 0 450
0

0101000
-32 0 +45 0 *
Wi

0101100
-48 0 -31 0 +26 0 +44 0 *
Fa
0  1e-07 14 0

0111000
+25 0 *
Wi

0101100
-42 0 -35 0 +30 0 +26 0 *
Fa
0  1e-07 15 0

0111000
+23 0 *
Ve
1e-07
225 225 194.951186
0 0

0101101
*
Ve
1.16800774208059e-06
272.996425 225 242.947611
0 0

0101101
*
Ed
 1e-07 1 1 0
1  27 0 4.71238898038469 6.28318530717959
3  63 64CN 9 0 4.71238898038469 6.28318530717959
0

0101000
+21 0 -20 0 *
Ed
 1e-07 1 1 1
2  65 9 0 0 6.28318530717959
0

0101000
+21 0 -21 0 *
Ed
 1.00000028421709e-07 1 1 0
1  28 0 0 2.54552516703894
2  66 11 0 0 2.54552516703894
2  67 16 0 0 2.54552516703894
2  68 9 0 0 2.54552516703894
0

0101000
+20 0 -64 0 *
Ed
 1.00000028421709e-07 1 1 0
1  28 0 3.73766014014065 6.28318530717959
2  66 11 0 3.73766014014065 6.28318530717959
2  67 16 0 3.73766014014065 6.28318530717959
2  68 9 0 3.73766014014065 6.28318530717959
0

0101000
+65 0 -20 0 *
Wi

0101100
+19 0 +18 0 -19 0 -17 0 +63 0 -16 0 *
Fa
0  1e-07 9 0

0101000
+15 0 *
Ve
1.1680077705023e-06
272.996425 225 345.218143
0 0

0101101
*
Ed
 1e-07 1 1 0
1  29 0 0 102.270532
3  69 70CN 11 0 0 102.270532
0

0101000
-13 0 +20 0 *
Ed
 1.00000028421709e-07 1 1 0
1  30 0 0 6.28318530717959
2  71 11 0 0 6.28318530717959
2  72 17 0 0 6.28318530717959
2  73 18 0 0 6.28318530717959
0

0101000
+13 0 -13 0 *
Wi

0101100
+12 0 +16 0 +62 0 +17 0 -12 0 -11 0 *
Fa
0  1e-07 11 0

0101000
+10 0 *
Ve
1e-07
225 225 393.214568
0 0

0101101
*
Ed
 1e-07 1 1 0
1  31 0 6.28318530717959 7.85398163397448
3  74 75CN 18 0 6.28318530717959 7.85398163397448
0

0101000
+13 0 -8 0 *
Ed
 1e-07 1 1 1
2  76 18 0 0 6.28318530717959
0

0101000
+8 0 -8 0 *
Wi

0101100
+7 0 +11 0 -7 0 -6 0 *
Fa
0  1e-07 18 0

0101000
+5 0 *
Sh

0101100
-46 0 -38 0 +33 0 +27 0 -24 0 +22 0 -60 0 -77 0 +67 0 +87 0 
-14 0 -9 0 -4 0 *
So

0100000
+3 0 *
Co

1100000
+56 0 +2 0 *

+1 0 