coarse_size = 1.8;

//Lz = 16.0;
//Ly = 24.0;
//Lx = 24.0;
Lz = 1.0;
Ly = 2.0;
Lx = 1.0;

height = Lz/2;
base = Lz/4;
roof = base + height;
R = 0.1*(Lx+Ly)/2;

Point(0) = {0.0, 0.0, 0.0, coarse_size};
Point(1) = {Lx, 0.0, 0.0, coarse_size};
Point(2) = {0.0, Ly, 0.0, coarse_size};
Point(4) = {Lx, Ly, 0.0, coarse_size};

Point(5) = {0.0, 0.0, Lz, coarse_size};
Point(6) = {Lx, 0.0, Lz, coarse_size};
Point(7) = {0.0, Ly, Lz, coarse_size};
Point(8) = {Lx, Ly, Lz, coarse_size};

Point(9) = {0.0, 0.0, base, coarse_size};
Point(10) = {0.0, 0.0, roof, coarse_size};
Point(11) = {R, 0.0, base, coarse_size};
Point(12) = {R, 0.0, roof, coarse_size};
Point(13) = {0.0, R, base, coarse_size};
Point(14) = {0.0, R, roof, coarse_size};
Point(15) = {R, R, base, coarse_size};
Point(16) = {R, R, roof, coarse_size};

Point(17) = {Lx/2+R, Ly, roof, coarse_size};
Point(18) = {Lx/2-R, Ly, roof, coarse_size};
Point(19) = {Lx/2+R, Ly, base, coarse_size};
Point(20) = {Lx/2-R, Ly, base, coarse_size};
Point(21) = {Lx/2+R, Ly-R, roof, coarse_size};
Point(22) = {Lx/2-R, Ly-R, roof, coarse_size};
Point(23) = {Lx/2+R, Ly-R, base, coarse_size};
Point(24) = {Lx/2-R, Ly-R, base, coarse_size};

Point(25) = {Lx/2+R, Ly/2+R, roof, coarse_size};
Point(26) = {Lx/2-R, Ly/2-R, roof, coarse_size};
Point(27) = {Lx/2+R, Ly/2-R, roof, coarse_size};
Point(28) = {Lx/2-R, Ly/2+R, roof, coarse_size};
Point(29) = {Lx/2+R, Ly/2+R, base, coarse_size};
Point(30) = {Lx/2-R, Ly/2-R, base, coarse_size};
Point(31) = {Lx/2+R, Ly/2-R, base, coarse_size};
Point(32) = {Lx/2-R, Ly/2+R, base, coarse_size};

Line(1) = {2, 0};
Line(2) = {0, 1};
Line(3) = {1, 4};
Line(4) = {4, 2};
Line(5) = {2, 7};
Line(6) = {7, 8};
Line(7) = {8, 6};
Line(8) = {6, 5};
Line(9) = {5, 7};
Line(10) = {4, 8};
Line(11) = {6, 1};
Line(12) = {0, 9};
Line(13) = {10, 5};
Line(14) = {10, 12};
Line(15) = {12, 16};
Line(16) = {16, 14};
Line(17) = {14, 10};
Line(18) = {14, 13};
Line(19) = {13, 9};
Line(20) = {9, 11};
Line(21) = {11, 15};
Line(22) = {15, 13};
Line(23) = {15, 16};
Line(24) = {12, 11};
Line(25) = {32, 30};
Line(26) = {30, 31};
Line(27) = {31, 29};
Line(28) = {29, 32};
Line(29) = {32, 28};
Line(30) = {28, 26};
Line(31) = {26, 27};
Line(32) = {27, 25};
Line(33) = {25, 28};
Line(34) = {29, 25};
Line(35) = {26, 30};
Line(36) = {31, 27};
Line(37) = {19, 20};
Line(38) = {20, 24};
Line(39) = {24, 23};
Line(40) = {23, 19};
Line(41) = {19, 17};
Line(42) = {17, 18};
Line(43) = {18, 22};
Line(44) = {22, 21};
Line(45) = {21, 17};
Line(46) = {21, 23};
Line(47) = {22, 24};
Line(48) = {20, 18};

Curve Loop(1) = {4, 1, 2, 3};
Plane Surface(1) = {-1};
Curve Loop(2) = {4, 5, 6, -10};
Curve Loop(3) = {42, -48, -37, 41};
Plane Surface(2) = {2, 3};
Curve Loop(4) = {10, 7, 11, 3};
Plane Surface(3) = {4};
Curve Loop(5) = {8, 9, 6, 7};
Plane Surface(4) = {-5};
Curve Loop(6) = {9, -5, 1, 12, -19, -18, 17, 13};
Plane Surface(5) = {6};
Curve Loop(7) = {13, -8, 11, -2, 12, 20, -24, -14};
Plane Surface(6) = {-7};
Curve Loop(8) = {14, 15, 16, 17};
Plane Surface(7) = {-8};
Curve Loop(9) = {16, 18, -22, 23};
Surface(8) = {9};
Curve Loop(10) = {22, 19, 20, 21};
Surface(9) = {10};
Curve Loop(11) = {21, 23, -15, 24};
Surface(10) = {-11};
Curve Loop(12) = {27, 34, -32, -36};
Surface(11) = {-12};
Curve Loop(13) = {34, 33, -29, -28};
Surface(12) = {13};
Curve Loop(14) = {28, 25, 26, 27};
Surface(13) = {14};
Curve Loop(15) = {26, 36, -31, 35};
Surface(14) = {-15};
Curve Loop(16) = {31, 32, 33, 30};
Surface(15) = {-16};
Curve Loop(17) = {44, 45, 42, 43};
Surface(16) = {-17};
Curve Loop(18) = {43, 47, -38, 48};
Surface(17) = {18};
Curve Loop(19) = {47, 39, -46, -44};
Surface(18) = {-19};
Curve Loop(20) = {45, -41, -40, -46};
Surface(19) = {20};
Curve Loop(21) = {40, 37, 38, 39};
Surface(20) = {21};
Curve Loop(22) = {25, -35, -30, -29};
Surface(21) = {-22};

Surface Loop(1) = {4, 3, 2, 1, 6, 7, 5, 9, 8, 10, 19, 16, 17, 18, 20};
Surface Loop(2) = {12, 11, 14, 21, 15, 13};
Volume(1) = {1, 2};

Physical Surface("South", 49) = {6};
Physical Surface("North", 50) = {2};
Physical Surface("West", 51) = {5};
Physical Surface("East", 52) = {3};
Physical Surface("Bottom", 53) = {1};
Physical Surface("Top", 54) = {4};
Physical Surface("Cavern_full", 55) = {21, 13, 14, 11, 12, 15};
Physical Surface("Cavern_half", 56) = {16, 17, 19, 18, 20};
Physical Surface("Cavern_quarter", 57) = {7, 10, 8, 9};

Physical Volume("Body", 58) = {1};
